<svg width="37" height="37" viewBox="0 0 37 37" fill="none" xmlns="http://www.w3.org/2000/svg">
<circle cx="18.0135" cy="18.0135" r="18.0135" fill="#333E48"/>
<path d="M26.0028 14.1389C25.4636 14.3785 24.8945 14.5283 24.2955 14.6181C24.8945 14.2587 25.3738 13.6896 25.5834 13.0007C25.0143 13.3302 24.3853 13.5698 23.6964 13.7195C23.1573 13.1504 22.3785 12.791 21.5398 12.791C19.9224 12.791 18.6045 14.1089 18.6045 15.7264C18.6045 15.966 18.6344 16.1757 18.6943 16.3853C16.2682 16.2655 14.0816 15.0974 12.6139 13.3002C12.3743 13.7495 12.2245 14.2287 12.2245 14.7679C12.2245 15.7863 12.7337 16.6849 13.5425 17.224C13.0632 17.1941 12.6139 17.0742 12.1946 16.8646V16.8945C12.1946 18.3323 13.213 19.5304 14.5608 19.7999C14.3212 19.8598 14.0517 19.8898 13.7821 19.8898C13.6024 19.8898 13.3927 19.8598 13.213 19.8299C13.6024 20.998 14.6807 21.8667 15.9686 21.8667C14.9502 22.6454 13.6922 23.1247 12.3144 23.1247C12.0748 23.1247 11.8352 23.1247 11.6255 23.0947C12.9434 23.9334 14.471 24.4127 16.1483 24.4127C21.5698 24.4127 24.5351 19.9198 24.5351 16.0259C24.5351 15.9061 24.5351 15.7563 24.5351 15.6365C25.1042 15.2471 25.6134 14.7379 26.0028 14.1389Z" fill="white"/>
</svg>
