<svg width="37" height="37" viewBox="0 0 37 37" fill="none" xmlns="http://www.w3.org/2000/svg">
<circle cx="18.0135" cy="18.0135" r="18.0135" fill="#333E48"/>
<path d="M18.0155 10.8684C20.3428 10.8684 20.6184 10.8771 21.5377 10.9191C22.0905 10.9258 22.638 11.0273 23.1565 11.2192C23.5324 11.3642 23.8739 11.5863 24.1588 11.8712C24.4438 12.1562 24.6659 12.4976 24.8109 12.8736C25.0027 13.392 25.1042 13.9395 25.111 14.4923C25.1525 15.4117 25.1616 15.6873 25.1616 18.0145C25.1616 20.3417 25.1529 20.6173 25.111 21.5367C25.1042 22.0894 25.0027 22.6369 24.8109 23.1554C24.6659 23.5314 24.4438 23.8728 24.1588 24.1578C23.8739 24.4427 23.5324 24.6648 23.1565 24.8098C22.638 25.0016 22.0905 25.1031 21.5377 25.1099C20.6188 25.1514 20.3432 25.1605 18.0155 25.1605C15.6879 25.1605 15.4123 25.1518 14.4934 25.1099C13.9406 25.1031 13.3931 25.0016 12.8746 24.8098C12.4987 24.6648 12.1572 24.4427 11.8723 24.1578C11.5873 23.8728 11.3652 23.5314 11.2202 23.1554C11.0284 22.6369 10.9269 22.0894 10.9201 21.5367C10.8786 20.6173 10.8695 20.3417 10.8695 18.0145C10.8695 15.6873 10.8782 15.4117 10.9201 14.4923C10.9269 13.9395 11.0284 13.392 11.2202 12.8736C11.3652 12.4976 11.5873 12.1562 11.8723 11.8712C12.1572 11.5863 12.4987 11.3642 12.8746 11.2192C13.3931 11.0273 13.9406 10.9258 14.4934 10.9191C15.4127 10.8776 15.6883 10.8684 18.0155 10.8684ZM18.0155 9.29785C15.6497 9.29785 15.3517 9.30781 14.422 9.35015C13.6985 9.36454 12.9828 9.50151 12.3052 9.75525C11.7239 9.97426 11.1974 10.3175 10.7624 10.7609C10.3185 11.1961 9.97503 11.7229 9.75588 12.3045C9.50215 12.9822 9.36517 13.6979 9.35078 14.4213C9.30928 15.3502 9.29932 15.6482 9.29932 18.0141C9.29932 20.3799 9.30928 20.6779 9.35161 21.6077C9.366 22.3311 9.50298 23.0468 9.75671 23.7244C9.97562 24.306 10.3188 24.8328 10.7624 25.2681C11.1976 25.7116 11.7244 26.0548 12.306 26.2737C12.9836 26.5275 13.6994 26.6644 14.4228 26.6788C15.3525 26.7203 15.6493 26.7311 18.0164 26.7311C20.3835 26.7311 20.6802 26.7212 21.6099 26.6788C22.3334 26.6644 23.0491 26.5275 23.7267 26.2737C24.3056 26.0494 24.8312 25.7067 25.27 25.2676C25.7089 24.8285 26.0512 24.3026 26.2752 23.7236C26.5289 23.046 26.6659 22.3302 26.6803 21.6068C26.7218 20.6779 26.7318 20.3799 26.7318 18.0141C26.7318 15.6482 26.7218 15.3502 26.6795 14.4205C26.6651 13.6971 26.5281 12.9813 26.2744 12.3037C26.0555 11.7221 25.7122 11.1953 25.2687 10.7601C24.8335 10.3165 24.3067 9.97332 23.7251 9.75442C23.0475 9.50068 22.3317 9.36371 21.6083 9.34932C20.6794 9.30781 20.3814 9.29785 18.0155 9.29785Z" fill="white"/>
<path d="M18.0165 13.541C17.1313 13.541 16.2659 13.8035 15.5298 14.2954C14.7937 14.7872 14.22 15.4862 13.8812 16.3041C13.5425 17.122 13.4538 18.022 13.6265 18.8902C13.7992 19.7585 14.2255 20.556 14.8515 21.182C15.4775 21.808 16.275 22.2343 17.1433 22.407C18.0116 22.5797 18.9115 22.4911 19.7294 22.1523C20.5473 21.8135 21.2463 21.2398 21.7382 20.5037C22.23 19.7677 22.4925 18.9023 22.4925 18.017C22.4925 16.8299 22.0209 15.6914 21.1815 14.852C20.3421 14.0126 19.2036 13.541 18.0165 13.541ZM18.0165 20.9224C17.4419 20.9224 16.8802 20.752 16.4024 20.4328C15.9246 20.1135 15.5522 19.6598 15.3323 19.1289C15.1124 18.598 15.0548 18.0138 15.1669 17.4502C15.279 16.8866 15.5558 16.3689 15.9621 15.9626C16.3684 15.5562 16.8861 15.2795 17.4497 15.1674C18.0133 15.0553 18.5975 15.1129 19.1284 15.3328C19.6593 15.5527 20.113 15.9251 20.4323 16.4028C20.7515 16.8806 20.9219 17.4424 20.9219 18.017C20.9219 18.7876 20.6158 19.5266 20.071 20.0714C19.5261 20.6163 18.7871 20.9224 18.0165 20.9224Z" fill="white"/>
<path d="M22.6661 14.4063C23.2437 14.4063 23.712 13.9381 23.712 13.3604C23.712 12.7827 23.2437 12.3145 22.6661 12.3145C22.0884 12.3145 21.6201 12.7827 21.6201 13.3604C21.6201 13.9381 22.0884 14.4063 22.6661 14.4063Z" fill="white"/>
</svg>
