<svg width="37" height="37" viewBox="0 0 37 37" fill="none" xmlns="http://www.w3.org/2000/svg">
<circle cx="18.0135" cy="18.0135" r="18.0135" fill="#333E48"/>
<g clip-path="url(#clip0_1_2493)">
<path d="M25.3317 8.91309H11.8168C10.9925 8.91309 10.3242 9.58134 10.3242 10.4056V23.9205C10.3242 24.7448 10.9925 25.4131 11.8168 25.4131H25.3316C26.156 25.4131 26.8242 24.7448 26.8242 23.9205V10.4056C26.8242 9.58134 26.156 8.91309 25.3317 8.91309ZM15.43 23.1603C15.43 23.4002 15.2356 23.5946 14.9957 23.5946H13.1467C12.9068 23.5946 12.7124 23.4002 12.7124 23.1603V15.4096C12.7124 15.1697 12.9068 14.9752 13.1467 14.9752H14.9957C15.2356 14.9752 15.43 15.1697 15.43 15.4096V23.1603ZM14.0712 14.2446C13.1011 14.2446 12.3147 13.4581 12.3147 12.4881C12.3147 11.518 13.1011 10.7315 14.0712 10.7315C15.0413 10.7315 15.8277 11.518 15.8277 12.4881C15.8277 13.4581 15.0413 14.2446 14.0712 14.2446ZM25.0926 23.1953C25.0926 23.4158 24.9138 23.5946 24.6932 23.5946H22.7092C22.4886 23.5946 22.3098 23.4158 22.3098 23.1953V19.5597C22.3098 19.0174 22.4689 17.1832 20.8925 17.1832C19.6697 17.1832 19.4217 18.4386 19.3719 19.0021V23.1953C19.3719 23.4158 19.1931 23.5946 18.9725 23.5946H17.0536C16.833 23.5946 16.6542 23.4158 16.6542 23.1953V15.3746C16.6542 15.154 16.833 14.9752 17.0536 14.9752H18.9725C19.1931 14.9752 19.3719 15.154 19.3719 15.3746V16.0508C19.8253 15.3703 20.4991 14.8451 21.9338 14.8451C25.1108 14.8451 25.0926 17.8132 25.0926 19.4441V23.1953Z" fill="white"/>
</g>
<defs>
<clipPath id="clip0_1_2493">
<rect width="16.5" height="16.5" fill="white" transform="translate(10.3242 9.16309)"/>
</clipPath>
</defs>
</svg>
