<svg width="333" height="41" viewBox="0 0 333 41" fill="none" xmlns="http://www.w3.org/2000/svg">
<g clip-path="url(#clip0_281_917)">
<path d="M44.87 17.9307H22.4351V22.8507H44.87V17.9307Z" fill="#ED6B1E"/>
<path d="M56.0595 0H41.2334L44.814 4.97467L55.6679 8.2C57.682 8.80133 58.9688 10.66 58.9128 12.5733V28.4267C58.9128 30.3947 57.626 32.1987 55.6679 32.8L44.87 36.0253L41.2334 41H56.0595C62.2697 41 67.249 36.08 67.249 30.0667V10.9333C67.305 4.92 62.2697 0 56.0595 0Z" fill="#ED6B1E"/>
<path d="M11.1895 0H26.0156L22.435 4.97467L11.6371 8.2C9.62298 8.80133 8.33619 10.66 8.39214 12.5733V28.4267C8.39214 30.3947 9.67893 32.1987 11.6371 32.8L22.435 36.0253L26.0156 41H11.1895C5.03528 41 0 36.08 0 30.0667V10.9333C0 4.92 5.03528 0 11.1895 0Z" fill="#ED6B1E"/>
<path d="M248.911 28.6452C248.911 32.1986 245.945 35.0412 242.253 35.0412C238.56 35.0412 235.595 32.1439 235.595 28.6452V12.9559C235.595 9.40256 238.56 6.55989 242.253 6.55989C245.889 6.55989 248.911 9.45723 248.911 12.9559V13.1199H254.002V12.9012C254.002 6.72389 248.743 1.63989 242.253 1.63989C235.763 1.63989 230.504 6.72389 230.504 12.9559V28.5906C230.504 34.8226 235.763 39.9066 242.253 39.9066C248.687 39.9066 253.946 34.8226 254.002 28.5906V28.4266H248.911V28.6452Z" fill="#ED6B1E"/>
<path d="M275.318 11.7534C269.947 11.7534 265.471 15.8534 265.248 21.0468V30.6681C265.527 35.8614 269.947 39.9614 275.318 39.9614C280.689 39.9614 285.109 35.8614 285.389 30.6681V21.0468C285.165 15.8534 280.745 11.7534 275.318 11.7534ZM280.297 30.0668C280.242 32.8001 278.06 34.9321 275.318 34.9321C272.577 34.9321 270.395 32.8001 270.339 30.0668V21.5934C270.339 18.9148 272.577 16.7281 275.318 16.7281C278.06 16.7281 280.297 18.9148 280.297 21.5934V30.0668Z" fill="#ED6B1E"/>
<path d="M261.611 1.63989H256.52V39.3599H261.611V1.63989Z" fill="#ED6B1E"/>
<path d="M121.91 11.7534H116.819V39.3054H121.91V11.7534Z" fill="#ED6B1E"/>
<path d="M111.783 1.63989H106.692V39.3599H111.783V1.63989Z" fill="#ED6B1E"/>
<path d="M93.88 1.63989H87.6698L77.4314 39.3052V39.3599H82.4667L85.2081 29.3559L96.3976 29.4106L99.0831 39.3599V39.4146H104.118L93.88 1.63989ZM95.0549 24.4359H86.5509L90.8029 8.80123L95.0549 24.4359Z" fill="#ED6B1E"/>
<path d="M304.131 30.6134C304.131 33.2921 301.893 35.4788 299.152 35.4788C296.41 35.4788 294.173 33.2921 294.173 30.6134V11.7534H289.081V31.4334C289.081 36.1348 292.998 39.9614 297.809 39.9614C298.704 39.9614 299.544 39.8521 300.383 39.5788C300.886 39.4148 301.334 39.2508 301.781 39.0321C302.565 38.6494 303.292 38.1574 303.907 37.5561L304.131 37.3374V39.3601H309.222V11.7534H304.131V30.6134Z" fill="#ED6B1E"/>
<path d="M121.91 1.63989H116.819V6.61456H121.91V1.63989Z" fill="#ED6B1E"/>
<path d="M138.358 11.7532C136.065 11.7532 133.883 12.6279 132.26 14.2132L132.036 14.4319V1.63989H126.945V39.3599H132.036V37.3372L132.26 37.5559C133.883 39.1412 136.065 40.0159 138.358 40.0159C143.17 40.0159 147.086 36.1892 147.086 31.4879V20.2812C147.086 15.5252 143.17 11.7532 138.358 11.7532ZM142.051 21.1559V30.5039C142.051 33.1826 139.813 35.4239 137.016 35.4239C134.274 35.4239 131.98 33.2372 131.98 30.5039V21.1559C131.98 18.4772 134.218 16.2359 137.016 16.2359C139.813 16.2906 142.051 18.4772 142.051 21.1559Z" fill="#ED6B1E"/>
<path d="M185.578 11.6986C183.284 11.6986 181.102 12.5732 179.48 14.1586L179.256 14.3772V1.63989H174.165V39.3599H179.256V37.3372L179.48 37.5559C181.102 39.1412 183.284 40.0159 185.578 40.0159C190.39 40.0159 194.306 36.1892 194.306 31.4879V20.2266C194.306 15.5252 190.39 11.6986 185.578 11.6986ZM189.271 21.1559V30.5039C189.271 33.1826 187.033 35.4239 184.235 35.4239C181.494 35.4239 179.2 33.2372 179.2 30.5039V21.1559C179.2 18.4772 181.438 16.2359 184.235 16.2359C187.033 16.2359 189.271 18.4772 189.271 21.1559Z" fill="#ED6B1E"/>
<path d="M327.965 1.63989V14.3772L327.741 14.1586C326.118 12.5732 323.936 11.6986 321.643 11.6986C316.831 11.6986 312.915 15.5252 312.915 20.2266V31.3786V31.4332C312.915 36.1346 316.831 39.9066 321.643 39.9066C323.936 39.9066 326.118 39.0319 327.741 37.4466L327.965 37.2279V39.2506H333.056V1.63989H327.965ZM327.909 21.1559V30.5039C327.909 33.1826 325.671 35.4239 322.873 35.4239C320.132 35.4239 317.838 33.2372 317.838 30.5039V21.1559C317.838 18.4772 320.076 16.2359 322.873 16.2359C325.671 16.2359 327.909 18.4772 327.909 21.1559Z" fill="#ED6B1E"/>
<path d="M170.528 21.1014C170.528 20.8281 170.472 20.5001 170.416 20.1174V20.0081C170.137 18.5321 169.577 17.1108 168.682 15.8534C166.892 13.3934 164.15 11.9174 161.129 11.7534C161.073 11.7534 160.737 11.7534 160.57 11.7534C158.22 11.7534 155.926 12.5734 154.08 14.0494C152.289 15.5254 151.058 17.5481 150.611 19.8441V19.8988H155.59V19.8441C156.038 17.5481 158.108 15.9081 160.458 15.9081C161.744 15.9081 162.975 16.4001 163.926 17.2748C164.878 18.1494 165.381 19.3521 165.437 20.6094V22.9054H158.22C153.408 22.9054 149.492 26.7321 149.492 31.4334C149.492 35.3694 152.289 38.7041 156.038 39.6881C156.094 39.6881 156.15 39.6881 156.15 39.7428C156.318 39.7974 156.485 39.7974 156.653 39.8521C156.821 39.9068 157.045 39.9068 157.269 39.9614C157.325 39.9614 157.325 39.9614 157.381 39.9614C157.772 40.0161 158.22 40.0161 158.723 40.0161C159.954 40.0161 161.017 39.8521 161.744 39.5788C163.031 39.1961 164.206 38.4854 165.213 37.5561L165.437 37.3374V39.3601H170.528V36.0801V21.1014ZM159.227 26.6228H165.381V30.1214C165.381 32.7454 163.423 35.0414 160.793 35.5334C160.402 35.6428 160.01 35.6427 159.674 35.6427C158.779 35.6427 157.94 35.4241 157.101 34.9321C156.877 34.8228 156.653 34.6588 156.429 34.5494C156.15 34.3308 155.87 34.0574 155.646 33.7841L155.59 33.7294C154.975 32.9641 154.639 32.0348 154.639 31.0508C154.695 28.5908 156.709 26.6228 159.227 26.6228Z" fill="#ED6B1E"/>
<path d="M217.804 21.1014C217.804 20.8281 217.748 20.5001 217.692 20.1174V20.0081C217.412 18.5321 216.853 17.1108 215.958 15.8534C214.167 13.3934 211.426 11.9174 208.405 11.7534C208.349 11.7534 208.013 11.7534 207.845 11.7534C205.495 11.7534 203.202 12.5734 201.355 14.0494C199.565 15.5254 198.334 17.5481 197.887 19.8441V19.8988H202.866V19.8441C203.313 17.5481 205.383 15.9081 207.733 15.9081C209.02 15.9081 210.251 16.4001 211.202 17.2748C212.153 18.1494 212.657 19.3521 212.713 20.6094V22.9054H205.495C200.684 22.9054 196.768 26.7321 196.768 31.4334C196.768 35.3694 199.565 38.7041 203.313 39.6881C203.369 39.6881 203.425 39.6881 203.425 39.7428C203.593 39.7974 203.761 39.7974 203.929 39.8521C204.097 39.9068 204.32 39.9068 204.544 39.9614C204.6 39.9614 204.6 39.9614 204.656 39.9614C205.048 40.0161 205.495 40.0161 205.999 40.0161C207.23 40.0161 208.293 39.8521 209.02 39.5788C210.307 39.1961 211.482 38.4854 212.489 37.5561L212.713 37.3374V39.3601H217.804V36.0801V21.1014ZM206.502 26.6228H212.657V30.1214C212.657 32.7454 210.699 35.0414 208.069 35.5334C207.677 35.6428 207.286 35.6427 206.95 35.6427C206.055 35.6427 205.216 35.4241 204.376 34.9321C204.153 34.8228 203.929 34.6588 203.705 34.5494C203.425 34.3308 203.146 34.0574 202.922 33.7841L202.866 33.7294C202.25 32.9641 201.915 32.0348 201.915 31.0508C201.971 28.6454 203.985 26.6228 206.502 26.6228Z" fill="#ED6B1E"/>
</g>
<defs>
<clipPath id="clip0_281_917">
<rect width="333" height="41" fill="white"/>
</clipPath>
</defs>
</svg>
