<svg width="184" height="108" viewBox="0 0 184 108" fill="none" xmlns="http://www.w3.org/2000/svg">
<path d="M52.2947 39.4023C52.2947 41.5979 52.5368 43.3781 52.9605 44.6836C53.4447 45.9891 54.05 47.4133 54.8973 48.9561C55.2 49.4309 55.321 49.9056 55.321 50.321C55.321 50.9144 54.9579 51.5078 54.171 52.1012L50.3579 54.5935C49.8131 54.9495 49.2684 55.1276 48.7842 55.1276C48.1789 55.1276 47.5737 54.8309 46.9684 54.2968C46.121 53.4067 45.3947 52.4572 44.7894 51.5078C44.1842 50.499 43.5789 49.3715 42.9131 48.0067C38.1921 53.466 32.2605 56.1957 25.1184 56.1957C20.0342 56.1957 15.9789 54.7715 13.0131 51.9232C10.0473 49.0748 8.53418 45.277 8.53418 40.5298C8.53418 35.4858 10.35 31.3913 14.0421 28.3056C17.7342 25.2199 22.6368 23.677 28.871 23.677C30.9289 23.677 33.0473 23.855 35.2868 24.1517C37.5263 24.4484 39.8263 24.9232 42.2473 25.4572V21.1254C42.2473 16.6155 41.2789 13.4704 39.4026 11.6309C37.4658 9.79129 34.1973 8.90118 29.5368 8.90118C27.4184 8.90118 25.2394 9.13855 23 9.67261C20.7605 10.2067 18.5815 10.8594 16.4631 11.6902C15.4947 12.1056 14.7684 12.3429 14.3447 12.4616C13.921 12.5803 13.6184 12.6396 13.3763 12.6396C12.5289 12.6396 12.1052 12.0462 12.1052 10.8001V7.89239C12.1052 6.94294 12.2263 6.23085 12.5289 5.81547C12.8315 5.40008 13.3763 4.9847 14.2237 4.56932C16.3421 3.50118 18.8842 2.61107 21.85 1.89899C24.8158 1.12756 27.9631 0.771513 31.2921 0.771513C38.4947 0.771513 43.7605 2.37371 47.15 5.57811C50.4789 8.7825 52.1736 13.6484 52.1736 20.1759V39.4023H52.2947ZM27.721 48.4221C29.7184 48.4221 31.7763 48.066 33.9552 47.3539C36.1342 46.6418 38.071 45.3364 39.7052 43.5561C40.6737 42.4287 41.4 41.1825 41.7631 39.7583C42.1263 38.3342 42.3684 36.6133 42.3684 34.5957V32.1034C40.6131 31.688 38.7368 31.332 36.8 31.0946C34.8631 30.8572 32.9868 30.7385 31.1105 30.7385C27.0552 30.7385 24.0894 31.51 22.0921 33.1122C20.0947 34.7144 19.1263 36.9693 19.1263 39.9364C19.1263 42.7254 19.8526 44.8023 21.3658 46.2265C22.8184 47.71 24.9368 48.4221 27.721 48.4221ZM76.3236 54.8309C75.2342 54.8309 74.5079 54.6528 74.0237 54.2374C73.5394 53.8814 73.1158 53.0506 72.7526 51.9232L58.5289 6.05283C58.1658 4.86602 57.9842 4.09459 57.9842 3.67921C57.9842 2.72976 58.4684 2.19569 59.4368 2.19569H65.3684C66.5184 2.19569 67.3052 2.37371 67.7289 2.7891C68.2131 3.14514 68.5763 3.97591 68.9394 5.10338L79.1079 44.3869L88.55 5.10338C88.8526 3.91657 89.2157 3.14514 89.7 2.7891C90.1842 2.43305 91.0315 2.19569 92.121 2.19569H96.9631C98.1131 2.19569 98.9 2.37371 99.3842 2.7891C99.8684 3.14514 100.292 3.97591 100.534 5.10338L110.097 44.8616L120.568 5.10338C120.932 3.91657 121.355 3.14514 121.779 2.7891C122.263 2.43305 123.05 2.19569 124.139 2.19569H129.768C130.737 2.19569 131.282 2.67041 131.282 3.67921C131.282 3.97591 131.221 4.27261 131.16 4.62866C131.1 4.9847 130.979 5.45943 130.737 6.11217L116.15 51.9825C115.787 53.1693 115.363 53.9407 114.879 54.2968C114.395 54.6528 113.608 54.8902 112.579 54.8902H107.374C106.224 54.8902 105.437 54.7122 104.953 54.2968C104.468 53.8814 104.045 53.11 103.803 51.9232L94.421 13.6484L85.1 51.8638C84.7973 53.0506 84.4342 53.8221 83.95 54.2374C83.4658 54.6528 82.6184 54.8309 81.5289 54.8309H76.3236ZM154.1 56.4331C150.953 56.4331 147.805 56.077 144.779 55.3649C141.753 54.6528 139.392 53.8814 137.818 52.9913C136.85 52.4572 136.184 51.8638 135.942 51.3298C135.7 50.7957 135.579 50.2023 135.579 49.6682V46.6418C135.579 45.3957 136.063 44.8023 136.971 44.8023C137.334 44.8023 137.697 44.8616 138.06 44.9803C138.424 45.099 138.968 45.3364 139.574 45.5737C141.632 46.4638 143.871 47.1759 146.232 47.6506C148.653 48.1254 151.013 48.3627 153.434 48.3627C157.247 48.3627 160.213 47.71 162.271 46.4045C164.329 45.099 165.418 43.2001 165.418 40.7671C165.418 39.1056 164.874 37.7407 163.784 36.6133C162.695 35.4858 160.637 34.477 157.671 33.5276L148.895 30.8572C144.476 29.4924 141.208 27.4748 139.21 24.8045C137.213 22.1935 136.184 19.2858 136.184 16.2001C136.184 13.7078 136.729 11.5122 137.818 9.61327C138.908 7.71437 140.36 6.05283 142.176 4.74734C143.992 3.3825 146.05 2.37371 148.471 1.66162C150.892 0.949535 153.434 0.652832 156.097 0.652832C157.429 0.652832 158.821 0.712173 160.153 0.890195C161.545 1.06822 162.816 1.30558 164.087 1.54294C165.297 1.83965 166.447 2.13635 167.537 2.49239C168.626 2.84844 169.474 3.20448 170.079 3.56052C170.926 4.03525 171.532 4.50998 171.895 5.04404C172.258 5.51877 172.439 6.17151 172.439 7.00228V9.79129C172.439 11.0374 171.955 11.6902 171.047 11.6902C170.563 11.6902 169.776 11.4528 168.747 10.9781C165.297 9.43525 161.424 8.66382 157.126 8.66382C153.676 8.66382 150.953 9.19789 149.076 10.3254C147.2 11.4528 146.232 13.1737 146.232 15.6067C146.232 17.2682 146.837 18.6924 148.047 19.8199C149.258 20.9473 151.497 22.0748 154.705 23.0836L163.3 25.7539C167.658 27.1188 170.805 29.0177 172.682 31.4506C174.558 33.8836 175.466 36.6726 175.466 39.7583C175.466 42.31 174.921 44.6243 173.892 46.6418C172.803 48.6594 171.35 50.4396 169.474 51.8638C167.597 53.3473 165.358 54.4155 162.755 55.1869C160.032 56.0177 157.187 56.4331 154.1 56.4331Z" fill="#252F3E"/>
<path fill-rule="evenodd" clip-rule="evenodd" d="M165.539 85.2728C145.626 99.6925 116.695 107.347 91.8184 107.347C56.9552 107.347 25.5421 94.7079 1.81574 73.7013C-0.0605733 72.0398 1.63416 69.7848 3.87364 71.0903C29.5368 85.6881 61.1921 94.5299 93.9368 94.5299C116.029 94.5299 140.3 90.02 162.634 80.7629C165.963 79.2794 168.808 82.8991 165.539 85.2728Z" fill="#FF9900"/>
<path fill-rule="evenodd" clip-rule="evenodd" d="M173.832 76.0155C171.289 72.8112 157.005 74.4727 150.529 75.2441C148.592 75.4815 148.289 73.8199 150.045 72.5738C161.424 64.7408 180.126 66.9958 182.305 69.6068C184.484 72.2771 181.7 90.6133 171.047 99.3958C169.413 100.761 167.839 100.049 168.566 98.2683C170.987 92.3936 176.374 79.1606 173.832 76.0155Z" fill="#FF9900"/>
</svg>
