<svg width="40" height="40" viewBox="0 0 40 40" fill="none" xmlns="http://www.w3.org/2000/svg">
<path fill-rule="evenodd" clip-rule="evenodd" d="M17.4559 17.4196L22.1106 9.35734C22.8801 8.02338 24.2726 7.21875 25.8117 7.21875C27.3507 7.21875 28.7432 8.02338 29.5127 9.35734L38.8738 25.5678C39.6433 26.8998 39.6433 28.5091 38.8738 29.8411C38.1043 31.1751 36.7098 31.9777 35.1708 31.9777H25.2918L24.9426 30.4369C24.9389 30.4198 24.9349 30.4028 24.9307 30.386H34.6C35.7538 30.386 36.772 29.7966 37.3505 28.8002C37.3512 28.7988 37.352 28.7976 37.3527 28.7962C37.9283 27.7967 37.9283 26.6215 37.3527 25.622L37.3519 25.6206L28.5626 10.4002L28.5618 10.3988C27.9854 9.39875 26.9668 8.81051 25.8117 8.81051C24.6591 8.81051 23.6371 9.3993 23.0608 10.4002L18.0962 18.9992C17.9323 18.6501 17.4559 17.4196 17.4559 17.4196ZM14.9919 29.6575C14.9985 29.6629 15.005 29.6683 15.0115 29.6737C14.8333 29.8884 14.7032 30.1471 14.6393 30.4382C14.6392 30.4388 14.5236 30.9491 14.4072 31.4622C13.7298 31.094 13.155 30.5406 12.7515 29.8411C12.1963 28.8801 12.0417 27.7746 12.2876 26.7332L13.8357 25.7893C13.3625 26.3725 13.2706 27.2104 13.6683 27.8992L14.2795 28.9578C14.4554 29.2626 14.7046 29.4989 14.9919 29.6575ZM20.0883 22.1681C19.5378 21.4486 19.1357 20.8816 18.7897 20.3077L24.1483 11.0264C24.4968 10.4212 25.1148 10.0654 25.8117 10.0654C26.5105 10.0654 27.1267 10.4212 27.4752 11.0264L36.2652 26.2481C36.6137 26.8533 36.6137 27.5649 36.2652 28.1701C35.9149 28.7735 35.2988 29.1311 34.6 29.1311H23.8073C23.5946 29.0505 23.3639 29.0072 23.1245 29.0072H17.9261L21.9548 26.6812C22.8468 26.1662 23.1528 25.024 22.6378 24.1321L22.0267 23.0735C21.6241 22.3762 20.8382 22.037 20.0883 22.1681ZM25.8117 26.3471C26.4562 26.3471 26.9816 25.8217 26.9816 25.1772C26.9816 24.5326 26.4562 24.0073 25.8117 24.0073C25.1672 24.0073 24.6417 24.5326 24.6417 25.1772C24.6417 25.8217 25.1672 26.3471 25.8117 26.3471ZM25.8117 22.3905C26.3039 22.3905 26.7081 22.0019 26.7257 21.5097L26.9562 15.1154C26.9659 14.8576 26.88 14.6329 26.7003 14.4475C26.5226 14.2619 26.2999 14.1682 26.0421 14.1682H25.5812C25.3234 14.1682 25.1027 14.2619 24.923 14.4475C24.7453 14.6329 24.6594 14.8576 24.6672 15.1154L24.8996 21.5097C24.9172 22.0019 25.3195 22.3905 25.8117 22.3905ZM12.0788 22.4127C12.1107 22.4577 12.1421 22.5024 12.173 22.5468L12.1741 22.5484C12.6226 23.2 12.9545 23.7748 13.2945 24.4887C13.3139 24.53 13.3334 24.5718 13.3528 24.614L2.51516 31.2217C2.12732 31.4457 1.63061 31.3126 1.40669 30.9247L0.65767 29.6274C0.433749 29.2395 0.566847 28.7429 0.95469 28.519L12.0788 22.4127ZM15.3952 32.7809L15.8644 30.7098C15.9238 30.4347 16.1773 30.2621 16.4577 30.2621H23.1245C23.405 30.2621 23.6585 30.4347 23.7177 30.7098L24.187 32.7809H15.3952ZM16.5308 18.5664C17.2695 20.3174 17.778 21.1982 18.9232 22.7105L14.9055 25.0301C14.7384 24.6331 14.5832 24.2809 14.4301 23.9545C14.0585 23.1737 13.6962 22.5461 13.2057 21.834C13 21.5385 12.7729 21.2286 12.5131 20.886L16.5308 18.5664ZM16.0717 15.2645L16.6806 16.3266C16.8483 16.6173 16.7479 16.9924 16.4572 17.1602L11.3309 20.1198C11.0403 20.2877 10.6651 20.1871 10.4974 19.8965L9.88708 18.8395C9.71932 18.5489 9.81979 18.1737 10.1105 18.006L15.2381 15.0411C15.5288 14.8733 15.9039 14.9738 16.0717 15.2645ZM20.9421 23.7003L21.5524 24.7573C21.7202 25.0479 21.6197 25.4231 21.329 25.5908L16.2014 28.5557C15.9107 28.7235 15.5304 28.6217 15.3625 28.331L14.7537 27.2688C14.5859 26.9781 14.6865 26.603 14.9771 26.4352L20.1033 23.4755C20.394 23.3078 20.7743 23.4097 20.9421 23.7003Z" fill="#D000D4"/>
</svg>
