<svg width="40" height="40" viewBox="0 0 40 40" fill="none" xmlns="http://www.w3.org/2000/svg">
<path fill-rule="evenodd" clip-rule="evenodd" d="M18.9491 16.9465C21.4694 15.6426 23.903 13.4309 23.517 7.38008C21.785 7.25664 20.2537 6.72305 18.9491 5.78945C17.6444 6.72305 16.11 7.25742 14.3811 7.38008C13.9951 13.4309 16.4287 15.6426 18.9491 16.9465ZM7.44593 20.4215L10.3139 17.5512C10.4319 17.4355 10.4928 17.2809 10.4928 17.1152C10.4928 16.9496 10.4319 16.7949 10.3139 16.6793C10.1991 16.5637 10.0428 16.5004 9.8803 16.5004C9.71468 16.5004 9.55843 16.5637 9.44358 16.6793L6.57249 19.5496C6.33343 19.7895 6.33343 20.1809 6.57249 20.4215C6.81077 20.6621 7.20374 20.6621 7.44593 20.4215ZM7.09515 23.9051L8.63265 22.3691L7.65608 21.3957C7.47718 21.4777 7.2889 21.5238 7.09436 21.5348V23.9051H7.09515ZM4.3928 30.0098C4.25218 30.1473 4.07093 30.223 3.87249 30.223C3.69983 30.223 3.54046 30.166 3.40999 30.0605C3.39124 30.0246 3.36546 29.9902 3.3428 29.9551C3.08733 29.5637 3.02093 29.3043 3.35218 28.9723L9.29202 23.0316L10.3319 24.0699L4.3928 30.0098ZM11.8897 31.0824H21.6061V30.2301C21.6061 29.7605 21.2233 29.3777 20.7545 29.3777H12.7412C12.2725 29.3777 11.8897 29.7605 11.8897 30.2301V31.0824ZM23.6092 32.0199H9.88655V34.1512H23.6092V32.0199ZM15.8131 23.0496L12.942 25.9199C12.703 26.1605 12.703 26.552 12.942 26.7926C13.0569 26.9082 13.2131 26.9715 13.3787 26.9715C13.5444 26.9715 13.6975 26.9082 13.8155 26.7926L16.6834 23.9223C16.8014 23.8066 16.8623 23.652 16.8623 23.4863C16.8623 23.3207 16.8014 23.166 16.6834 23.0504C16.5655 22.9301 16.4061 22.8699 16.2467 22.8699C16.0905 22.8684 15.9342 22.9293 15.8131 23.0496ZM14.4162 22.2184V22.2191L14.8662 22.6691L12.5631 24.9746L8.39046 20.8027L10.6967 18.4973L14.4162 22.2184ZM31.7405 6.30195L36.053 6.87695C37.0772 7.01367 37.8014 7.95898 37.6639 8.98398L34.1069 35.6863C33.9694 36.7113 33.0225 37.434 31.9983 37.2973L15.4139 35.0879H24.078C24.3366 35.0879 24.5467 34.8777 24.5467 34.6191V33.1605H28.9264C30.4764 33.1605 31.7397 31.898 31.7397 30.3473V6.30195H31.7405ZM26.3881 5.16523C26.7358 9.40664 26.1967 12.7223 24.7358 15.3035C23.5428 17.4121 21.7725 18.9996 19.1569 20.3004C19.0928 20.3332 19.0194 20.3496 18.9498 20.3496C18.8764 20.3496 18.8061 20.3332 18.7397 20.3004C16.1272 18.9988 14.3537 17.4113 13.1608 15.3035C11.703 12.723 11.1608 9.40664 11.5116 5.16523C11.5303 4.92773 11.7256 4.74258 11.9616 4.73477C14.5584 4.65117 16.81 3.87383 18.6608 2.42539C18.8295 2.29258 19.0694 2.29258 19.2381 2.42539C21.0912 3.87383 23.3436 4.65117 25.9373 4.73477C26.1741 4.74258 26.3686 4.92773 26.3881 5.16523ZM14.942 21.4184L11.2897 17.7652C11.3819 17.5637 11.4303 17.3441 11.4303 17.1152C11.4303 16.6996 11.2709 16.309 10.9772 16.016C10.6834 15.723 10.2944 15.5621 9.87952 15.5621C9.46155 15.5621 9.07249 15.723 8.77874 16.016L7.09436 17.6996V3.40898C7.09436 2.37461 7.93655 1.5332 8.97015 1.5332H28.9264C29.96 1.5332 30.8022 2.37461 30.8022 3.40898V30.3473C30.8022 31.3816 29.96 32.223 28.9264 32.223H24.5467V31.5504C24.5467 31.291 24.3366 31.0816 24.078 31.0816H22.5436V30.2293C22.5436 30.2059 22.5436 30.1824 22.5436 30.159H26.5053C26.7639 30.159 26.9741 29.9488 26.9741 29.6902C26.9741 29.4316 26.7639 29.2215 26.5053 29.2215H22.2311C21.9092 28.7496 21.3662 28.4395 20.7537 28.4395H12.7412C11.7553 28.4395 10.9514 29.2426 10.9514 30.2293V31.0816H9.41702C9.15843 31.0816 8.94827 31.291 8.94827 31.5504V32.1973C8.10921 32.1043 7.09515 31.7098 7.09515 30.3473V28.6316L10.9936 24.7324L11.9694 25.7059C11.7045 26.2801 11.8069 26.9824 12.2787 27.4543C12.5725 27.7473 12.9616 27.9082 13.3795 27.9082C13.7944 27.9082 14.1866 27.7465 14.4772 27.4543L16.7834 25.148H26.5061C26.7647 25.148 26.9748 24.9387 26.9748 24.6793C26.9748 24.4207 26.7647 24.2105 26.5061 24.2105H17.6248C17.7397 23.9895 17.8006 23.7426 17.8006 23.4848C17.8006 23.0684 17.6412 22.6785 17.3475 22.3855C17.3381 22.3746 17.3248 22.366 17.3155 22.3551H26.5061C26.7647 22.3551 26.9748 22.1449 26.9748 21.8863C26.9748 21.627 26.7647 21.4176 26.5061 21.4176H14.942V21.4184ZM20.735 27.4723C20.735 27.7316 20.9451 27.941 21.2037 27.941H26.5053C26.7639 27.941 26.9741 27.7309 26.9741 27.4723C26.9741 27.2137 26.7639 27.0035 26.5053 27.0035H21.2037C20.9459 27.0035 20.735 27.2137 20.735 27.4723ZM24.4233 6.89492C25.01 14.027 21.9162 16.5184 19.1569 17.8918C19.0928 17.9246 19.0194 17.941 18.9498 17.941C18.8764 17.941 18.8061 17.9246 18.7397 17.8918C15.9803 16.5176 12.8889 14.027 13.4764 6.89492C13.4951 6.65742 13.6905 6.47227 13.9295 6.46523C15.7858 6.4043 17.3366 5.87148 18.66 4.83477C18.8287 4.70195 19.0686 4.70195 19.2373 4.83477C20.5647 5.87148 22.1116 6.4043 23.9709 6.46523C24.2092 6.47227 24.4037 6.65742 24.4233 6.89492ZM18.9491 19.3559C15.3319 17.5066 11.81 14.3754 12.4131 5.65273C14.9045 5.50273 17.0991 4.74023 18.9491 3.3832C20.7991 4.74023 22.9936 5.50273 25.485 5.65273C26.0881 14.3754 22.5662 17.5059 18.9491 19.3559ZM18.3076 12.1691L20.9647 9.51211C21.1467 9.3293 21.4428 9.3293 21.6248 9.51211C21.81 9.69492 21.81 9.99258 21.6248 10.1746L18.6358 13.1637C18.5467 13.2551 18.4256 13.3012 18.3069 13.3012C18.1858 13.3012 18.0647 13.2551 17.9748 13.1637L16.2678 11.4598C16.0858 11.277 16.0858 10.9801 16.2678 10.7973C16.453 10.6145 16.7498 10.6145 16.9311 10.7973L18.3076 12.1691Z" fill="#D000D4"/>
</svg>
