<svg width="40" height="40" viewBox="0 0 40 40" fill="none" xmlns="http://www.w3.org/2000/svg">
<path d="M38.2597 21.6962C37.0998 20.2448 35.6175 19.3041 33.8115 18.8734C34.3814 18.0124 34.6656 17.054 34.6656 15.9985C34.6656 14.5262 34.1446 13.2694 33.1034 12.2276C32.0619 11.1862 30.805 10.6653 29.3327 10.6653C28.0132 10.6653 26.8606 11.0959 25.8747 11.9571C25.0556 9.95697 23.7461 8.35289 21.9477 7.14473C20.1493 5.93622 18.1666 5.33203 15.9997 5.33203C13.0554 5.33203 10.5414 6.37396 8.45809 8.4573C6.37459 10.5401 5.33318 13.0543 5.33318 15.9988C5.33318 16.1793 5.34711 16.4779 5.37484 16.8944C3.73603 17.6584 2.43061 18.8041 1.45814 20.3317C0.486048 21.8598 0 23.5261 0 25.332C0 27.9016 0.913356 30.099 2.73956 31.9254C4.56583 33.7523 6.76381 34.6652 9.33321 34.6652H32.0001C34.2081 34.6652 36.0934 33.8837 37.6561 32.3215C39.2186 30.7593 39.9999 28.874 39.9999 26.6652C39.9997 24.8041 39.4197 23.148 38.2597 21.6962ZM26.4583 22.4983L19.1457 29.8113C19.0208 29.9359 18.861 29.9986 18.6665 29.9986C18.4721 29.9986 18.3123 29.9359 18.1873 29.8113L10.8542 22.4778C10.7292 22.3529 10.6668 22.1931 10.6668 21.9986C10.6668 21.818 10.7325 21.6617 10.8644 21.5299C10.9966 21.398 11.1525 21.3321 11.3331 21.3321H15.9998V13.9989C15.9998 13.8184 16.0658 13.6621 16.1976 13.5299C16.3296 13.3982 16.4858 13.3323 16.6663 13.3323H20.6667C20.8475 13.3323 21.003 13.398 21.1357 13.5299C21.2673 13.6621 21.3332 13.8184 21.3332 13.9989V21.3321H25.9999C26.1944 21.3321 26.3542 21.3945 26.4788 21.5193C26.6039 21.6442 26.6657 21.804 26.6657 21.9985C26.6657 22.1659 26.5969 22.3319 26.4583 22.4983Z" fill="#D000D4"/>
</svg>
