<svg width="40" height="40" viewBox="0 0 40 40" fill="none" xmlns="http://www.w3.org/2000/svg">
<path d="M16.8693 14.4354C17.0598 14.5459 17.276 14.6044 17.4963 14.6049C17.7166 14.6055 17.9331 14.5481 18.1242 14.4385L33.2288 5.62712C32.9024 5.05844 32.4322 4.58562 31.8653 4.25614C31.2984 3.92666 30.6548 3.7521 29.9992 3.75H4.99916C4.34348 3.7521 3.69989 3.92666 3.13301 4.25614C2.56613 4.58562 2.0959 5.05844 1.76953 5.62712L16.8693 14.4354Z" fill="#00858A"/>
<path d="M33.75 8.21289V16.9004C32.5483 16.4636 31.2786 16.2435 30 16.2504C27.0177 16.2549 24.1588 17.4416 22.05 19.5504C19.9412 21.6592 18.7545 24.5181 18.75 27.5004C18.7466 27.9183 18.7716 28.3359 18.825 28.7504H5C4.00633 28.7475 3.05419 28.3515 2.35156 27.6488C1.64892 26.9462 1.2529 25.9941 1.25 25.0004V8.21289L15.6125 16.6004C16.1887 16.9247 16.8388 17.0951 17.5 17.0951C18.1612 17.0951 18.8113 16.9247 19.3875 16.6004L33.75 8.21289Z" fill="#00858A"/>
<path d="M33.7579 19.6034C32.151 18.8558 30.3556 18.6115 28.6074 18.9025C26.8592 19.1936 25.2398 20.0064 23.9619 21.2344C22.6307 22.5285 21.7477 24.2139 21.4416 26.045C21.1354 27.8761 21.4221 29.7571 22.2598 31.4139C23.0975 33.0706 24.4425 34.4165 26.0987 35.2554C27.7549 36.0943 29.6357 36.3822 31.467 36.0773C33.2983 35.7724 34.9843 34.8906 36.2794 33.5604C37.5744 32.2302 38.4107 30.5211 38.6665 28.6823C38.9222 26.8435 38.5839 24.971 37.701 23.3379C36.8181 21.7048 35.4365 20.3964 33.7579 19.6034ZM33.7494 28.7501H26.2494C25.9178 28.7501 25.5999 28.6184 25.3655 28.384C25.1311 28.1496 24.9994 27.8316 24.9994 27.5001C24.9994 27.1686 25.1311 26.8506 25.3655 26.6162C25.5999 26.3818 25.9178 26.2501 26.2494 26.2501H33.7494C34.0809 26.2501 34.3988 26.3818 34.6332 26.6162C34.8677 26.8506 34.9994 27.1686 34.9994 27.5001C34.9994 27.8316 34.8677 28.1496 34.6332 28.384C34.3988 28.6184 34.0809 28.7501 33.7494 28.7501Z" fill="#00858A"/>
</svg>
