<svg width="40" height="40" viewBox="0 0 40 40" fill="none" xmlns="http://www.w3.org/2000/svg">
<path d="M36.2438 30.141C33.7625 31.0848 30.0438 31.391 27.4938 31.391C26.1875 31.391 24.9125 31.3098 23.7313 31.1473C23.6688 31.2785 23.6 31.4098 23.525 31.541C22.825 32.8348 21.8812 33.9848 20.7312 34.9473C20.5375 35.1098 20.3375 35.2723 20.125 35.4285C21.95 36.0973 24.5875 36.4848 27.4938 36.4848C32.4625 36.4848 37.4938 35.2785 37.4938 32.9723V29.541C37.1313 29.766 36.7063 29.966 36.2438 30.141Z" fill="#D000D4"/>
<path d="M22.5191 14.3965C23.9941 14.6902 25.7191 14.8465 27.4941 14.8465C31.0816 14.8465 34.3441 14.1902 36.2441 13.3777C36.7754 13.1465 37.2004 12.909 37.4941 12.659V9.05273C37.2566 9.32773 36.9504 9.57773 36.5754 9.81523C34.7691 10.9465 31.3754 11.6277 27.4941 11.6277C23.6129 11.6277 20.2191 10.9465 18.4129 9.81523C18.0379 9.57773 17.7316 9.32773 17.4941 9.05273V14.834C17.6691 14.9027 17.8441 14.9777 18.0191 15.059C18.4816 15.2715 18.9566 15.5215 19.4066 15.8027C20.5316 16.509 21.5316 17.3965 22.3691 18.4465C22.6691 18.8277 22.9504 19.2152 23.1941 19.6152C24.5004 19.834 25.9691 19.9465 27.4941 19.9465C29.2691 19.9465 30.9941 19.7902 32.4691 19.4965C32.8129 19.4277 33.1379 19.6465 33.2066 19.984C33.2754 20.3215 33.0566 20.6527 32.7191 20.7215C31.1566 21.034 29.3504 21.1965 27.4941 21.1965C26.2566 21.1965 25.0504 21.1215 23.9254 20.9777C24.4629 22.1402 24.7941 23.3777 24.9191 24.659C24.9316 24.7465 24.9379 24.834 24.9441 24.9277C25.7691 25.0027 26.6316 25.0402 27.4941 25.0402C31.3691 25.0402 34.5379 24.359 36.2441 23.5902C36.8754 23.309 37.3066 23.009 37.4941 22.734V14.1527C37.1254 14.3652 36.7004 14.559 36.2441 14.7277C33.8066 15.659 30.3191 16.0965 27.4941 16.0965C25.6379 16.0965 23.8316 15.934 22.2691 15.6215C21.9316 15.559 21.7129 15.2277 21.7816 14.8902C21.8504 14.5527 22.1754 14.3277 22.5191 14.3965ZM21.3379 14.784C21.2566 15.0465 21.0066 15.2152 20.7441 15.2152C20.6816 15.2152 20.6191 15.209 20.5504 15.184C20.2691 15.0965 20.0004 14.9965 19.7566 14.8965C19.4379 14.7652 19.2816 14.4027 19.4129 14.084C19.5441 13.7652 19.9129 13.609 20.2316 13.7402C20.4441 13.834 20.6816 13.9152 20.9316 13.9965C21.2629 14.1027 21.4441 14.4527 21.3379 14.784ZM34.0566 19.0902C34.3066 19.009 34.5441 18.9277 34.7566 18.8402C35.0754 18.709 35.4441 18.859 35.5754 19.1777C35.7066 19.4965 35.5504 19.8652 35.2316 19.9965C34.9879 20.0965 34.7191 20.1902 34.4379 20.284C34.3691 20.3027 34.3066 20.3152 34.2441 20.3152C33.9816 20.3152 33.7316 20.1402 33.6504 19.8777C33.5441 19.5465 33.7254 19.1965 34.0566 19.0902Z" fill="#D000D4"/>
<path d="M36.8691 7.49625C36.8691 8.1525 36.4354 8.70937 35.6973 9.17188C34.0098 10.2325 30.7404 10.7831 27.4941 10.7831C24.2479 10.7831 20.9785 10.2325 19.291 9.17188C18.5529 8.70875 18.1191 8.1525 18.1191 7.49625C18.1191 5.33437 22.836 4.20312 27.4941 4.20312C32.1523 4.20312 36.8691 5.33375 36.8691 7.49625Z" fill="#D000D4"/>
<path d="M37.4938 24.3477V27.9039C37.3 28.2039 36.8688 28.5039 36.2438 28.7789C34.5313 29.5352 31.3688 30.1414 27.4938 30.1414C26.3688 30.1414 25.275 30.0789 24.25 29.9602C24.7 28.7477 24.9437 27.4727 24.975 26.1789C25.7937 26.2539 26.6438 26.2914 27.4938 26.2914C30.175 26.2914 33.8125 25.9039 36.2438 24.9539C36.7125 24.7789 37.1313 24.5727 37.4938 24.3477Z" fill="#D000D4"/>
<path d="M23.6746 24.7836C23.5309 23.3336 23.0871 21.9648 22.4121 20.7461C22.1184 20.2086 21.7746 19.7023 21.3934 19.2273C20.6496 18.2961 19.7559 17.4961 18.7434 16.8648C18.3434 16.6148 17.9246 16.3898 17.4934 16.1961C16.1621 15.5836 14.6809 15.2461 13.1184 15.2461C7.26836 15.2461 2.50586 20.0086 2.50586 25.8586C2.50586 31.7086 7.26836 36.4711 13.1184 36.4711C15.2059 36.4711 17.1559 35.8648 18.7996 34.8148H18.8059C19.1996 34.5648 19.5746 34.2898 19.9246 33.9898C20.9371 33.1398 21.7934 32.1086 22.4309 30.9398C22.6371 30.5648 22.8246 30.1773 22.9809 29.7711C23.4434 28.6148 23.7059 27.3648 23.7246 26.0523C23.7309 25.9898 23.7309 25.9211 23.7309 25.8586C23.7309 25.4961 23.7121 25.1336 23.6746 24.7836ZM13.1184 25.2336C14.8415 25.2336 16.2434 26.4155 16.2434 27.8673C16.2434 29.1392 15.1677 30.203 13.7434 30.448V31.483C13.7434 31.828 13.464 32.108 13.1184 32.108C12.7727 32.108 12.4934 31.828 12.4934 31.483V30.448C11.069 30.203 9.99336 29.1392 9.99336 27.8673C9.99336 27.5223 10.2727 27.2423 10.6184 27.2423C10.964 27.2423 11.2434 27.5223 11.2434 27.8673C11.2434 28.6173 12.1021 29.2511 13.1184 29.2511C14.1346 29.2511 14.9934 28.6173 14.9934 27.8673C14.9934 27.1173 14.1346 26.4836 13.1184 26.4836C11.3952 26.4836 9.99336 25.3017 9.99336 23.8498C9.99336 22.578 11.069 21.5142 12.4934 21.2692V20.2342C12.4934 19.8892 12.7727 19.6092 13.1184 19.6092C13.464 19.6092 13.7434 19.8892 13.7434 20.2342V21.2692C15.1677 21.5142 16.2434 22.578 16.2434 23.8498C16.2434 24.1948 15.964 24.4748 15.6184 24.4748C15.2727 24.4748 14.9934 24.1948 14.9934 23.8498C14.9934 23.0998 14.1346 22.4661 13.1184 22.4661C12.1021 22.4661 11.2434 23.0998 11.2434 23.8498C11.2434 24.5998 12.1021 25.2336 13.1184 25.2336Z" fill="#D000D4"/>
<path d="M4.57617 15.9073C4.23055 15.9073 3.95117 15.6273 3.95117 15.2823V10.0254C3.95117 9.68039 4.23055 9.40039 4.57617 9.40039C4.9218 9.40039 5.20117 9.68039 5.20117 10.0254V15.2823C5.20117 15.6273 4.9218 15.9073 4.57617 15.9073Z" fill="#D000D4"/>
<path d="M4.57617 8.09906C4.23055 8.09906 3.95117 7.81906 3.95117 7.47406V5.24219C3.95117 4.89719 4.23055 4.61719 4.57617 4.61719C4.9218 4.61719 5.20117 4.89719 5.20117 5.24219V7.47469C5.20117 7.81969 4.9218 8.09906 4.57617 8.09906Z" fill="#D000D4"/>
<path d="M9.16028 13.4075C8.81465 13.4075 8.53528 13.1275 8.53528 12.7825V4.14062C8.53528 3.79562 8.81465 3.51562 9.16028 3.51562C9.5059 3.51562 9.78528 3.79562 9.78528 4.14062V12.7825C9.78528 13.1275 9.5059 13.4075 9.16028 13.4075Z" fill="#D000D4"/>
<path d="M13.7441 13.4072C13.3985 13.4072 13.1191 13.1272 13.1191 12.7822V8.46094C13.1191 8.11594 13.3985 7.83594 13.7441 7.83594C14.0898 7.83594 14.3691 8.11594 14.3691 8.46094V12.7822C14.3691 13.1272 14.0898 13.4072 13.7441 13.4072Z" fill="#D000D4"/>
<path d="M13.7441 7.06766C13.3985 7.06766 13.1191 6.78766 13.1191 6.44266V6.08203C13.1191 5.73703 13.3985 5.45703 13.7441 5.45703C14.0898 5.45703 14.3691 5.73703 14.3691 6.08203V6.44266C14.3691 6.78766 14.0898 7.06766 13.7441 7.06766Z" fill="#D000D4"/>
</svg>
