<svg width="40" height="40" viewBox="0 0 40 40" fill="none" xmlns="http://www.w3.org/2000/svg">
<g clip-path="url(#clip0_244_1273)">
<path d="M35.2941 4.73713V8.26654H32.9412V4.73713H30.5882V3.56066C30.5882 2.91196 31.1159 2.38419 31.7647 2.38419C32.4134 2.38419 32.9412 2.91196 32.9412 3.56066V4.73713H35.2941V3.56066C35.2941 1.61454 33.7108 0.03125 31.7647 0.03125C29.8185 0.03125 28.2353 1.61454 28.2353 3.56066V4.73713H11.7647V8.26654H9.41177V4.73713H7.05882V3.56066C7.05882 2.91196 7.58659 2.38419 8.23529 2.38419C8.884 2.38419 9.41177 2.91196 9.41177 3.56066V4.73713H11.7647V3.56066C11.7647 1.61454 10.1814 0.03125 8.23529 0.03125C6.28918 0.03125 4.70588 1.61454 4.70588 3.56066V4.73713H0V10.6195H40V4.73713H35.2941Z" fill="#00858A"/>
<path d="M0 36.5021H8.84533C7.34824 34.3251 6.47059 31.6908 6.47059 28.855C6.47059 21.3949 12.5398 15.3256 20 15.3256C27.4602 15.3256 33.5294 21.3949 33.5294 28.855C33.5294 31.6909 32.6518 34.3252 31.1547 36.5021H40V12.9727H0V36.5021Z" fill="#00858A"/>
<path d="M28.6864 21.8315L27.0117 23.5061C26.5335 22.8805 25.9736 22.3206 25.3481 21.8424L27.0226 20.1678C25.3891 18.8445 23.3768 17.9715 21.1758 17.7402V20.11C20.3926 20.0051 19.6064 20.0051 18.8229 20.11V17.7402C16.6219 17.9715 14.6096 18.8445 12.9761 20.1678L14.6506 21.8424C14.0251 22.3206 13.4652 22.8805 12.987 23.5061L11.3123 21.8315C9.989 23.4651 9.11606 25.4774 8.88477 27.6784H11.2545C11.1497 28.4614 11.1496 29.2478 11.2545 30.0313H8.88477C9.11606 32.2322 9.98908 34.2445 11.3123 35.8781L12.987 34.2035C13.4652 34.8291 14.0251 35.389 14.6506 35.8673L12.9761 37.542C14.6096 38.8653 16.6219 39.7382 18.8229 39.9695V37.5998C19.6061 37.7046 20.3923 37.7046 21.1758 37.5998V39.9695C23.3768 39.7382 25.3891 38.8653 27.0226 37.542L25.3481 35.8673C25.9736 35.389 26.5335 34.8291 27.0117 34.2035L28.6864 35.8781C30.0097 34.2445 30.8826 32.2322 31.1139 30.0313H28.7443C28.8491 29.2482 28.8492 28.4619 28.7443 27.6784H31.1139C30.8826 25.4774 30.0097 23.4651 28.6864 21.8315ZM22.6969 33.2162L18.8229 29.3421V24.1489H21.1758V28.3675L24.3606 31.5523L22.6969 33.2162Z" fill="#00858A"/>
</g>
<defs>
<clipPath id="clip0_244_1273">
<rect width="40" height="40" fill="white"/>
</clipPath>
</defs>
</svg>
