<svg width="40" height="40" viewBox="0 0 40 40" fill="none" xmlns="http://www.w3.org/2000/svg">
<g clip-path="url(#clip0_244_1290)">
<path d="M37.5 8.66271V13.7502H2.5V8.66271C2.51279 7.68013 2.91477 6.74273 3.61777 6.05614C4.32077 5.36954 5.26739 4.9898 6.25 5.00021H8.75V7.50021C8.75 8.49477 9.14509 9.4486 9.84835 10.1519C10.5516 10.8551 11.5054 11.2502 12.5 11.2502C13.4946 11.2502 14.4484 10.8551 15.1517 10.1519C15.8549 9.4486 16.25 8.49477 16.25 7.50021V5.00021H23.75V7.50021C23.75 8.49477 24.1451 9.4486 24.8483 10.1519C25.5516 10.8551 26.5054 11.2502 27.5 11.2502C28.4946 11.2502 29.4484 10.8551 30.1517 10.1519C30.8549 9.4486 31.25 8.49477 31.25 7.50021V5.00021H33.75C34.7326 4.9898 35.6792 5.36954 36.3822 6.05614C37.0852 6.74273 37.4872 7.68013 37.5 8.66271Z" fill="#00858A"/>
<path d="M2.5 16.25V36.3375C2.51279 37.3201 2.91477 38.2575 3.61777 38.9441C4.32077 39.6307 5.26739 40.0104 6.25 40H33.75C34.7326 40.0104 35.6792 39.6307 36.3822 38.9441C37.0852 38.2575 37.4872 37.3201 37.5 36.3375V16.25H2.5ZM13.75 33.75C13.749 34.0812 13.617 34.3986 13.3828 34.6328C13.1486 34.867 12.8312 34.999 12.5 35H10C9.66877 34.999 9.35139 34.867 9.11717 34.6328C8.88296 34.3986 8.75096 34.0812 8.75 33.75V31.25C8.75096 30.9188 8.88296 30.6014 9.11717 30.3672C9.35139 30.133 9.66877 30.001 10 30H12.5C12.8312 30.001 13.1486 30.133 13.3828 30.3672C13.617 30.6014 13.749 30.9188 13.75 31.25V33.75ZM13.75 25C13.749 25.3312 13.617 25.6486 13.3828 25.8828C13.1486 26.117 12.8312 26.249 12.5 26.25H10C9.66877 26.249 9.35139 26.117 9.11717 25.8828C8.88296 25.6486 8.75096 25.3312 8.75 25V22.5C8.75096 22.1688 8.88296 21.8514 9.11717 21.6172C9.35139 21.383 9.66877 21.251 10 21.25H12.5C12.8312 21.251 13.1486 21.383 13.3828 21.6172C13.617 21.8514 13.749 22.1688 13.75 22.5V25ZM22.5 33.75C22.499 34.0812 22.367 34.3986 22.1328 34.6328C21.8986 34.867 21.5812 34.999 21.25 35H18.75C18.4188 34.999 18.1014 34.867 17.8672 34.6328C17.633 34.3986 17.501 34.0812 17.5 33.75V31.25C17.501 30.9188 17.633 30.6014 17.8672 30.3672C18.1014 30.133 18.4188 30.001 18.75 30H21.25C21.5812 30.001 21.8986 30.133 22.1328 30.3672C22.367 30.6014 22.499 30.9188 22.5 31.25V33.75ZM22.5 25C22.499 25.3312 22.367 25.6486 22.1328 25.8828C21.8986 26.117 21.5812 26.249 21.25 26.25H18.75C18.4188 26.249 18.1014 26.117 17.8672 25.8828C17.633 25.6486 17.501 25.3312 17.5 25V22.5C17.501 22.1688 17.633 21.8514 17.8672 21.6172C18.1014 21.383 18.4188 21.251 18.75 21.25H21.25C21.5812 21.251 21.8986 21.383 22.1328 21.6172C22.367 21.8514 22.499 22.1688 22.5 22.5V25ZM31.25 25C31.249 25.3312 31.117 25.6486 30.8828 25.8828C30.6486 26.117 30.3312 26.249 30 26.25H27.5C27.1688 26.249 26.8514 26.117 26.6172 25.8828C26.383 25.6486 26.251 25.3312 26.25 25V22.5C26.251 22.1688 26.383 21.8514 26.6172 21.6172C26.8514 21.383 27.1688 21.251 27.5 21.25H30C30.3312 21.251 30.6486 21.383 30.8828 21.6172C31.117 21.8514 31.249 22.1688 31.25 22.5V25Z" fill="#00858A"/>
<path d="M13.75 5V7.5C13.75 7.83152 13.6183 8.14946 13.3839 8.38388C13.1495 8.6183 12.8315 8.75 12.5 8.75C12.1685 8.75 11.8505 8.6183 11.6161 8.38388C11.3817 8.14946 11.25 7.83152 11.25 7.5V5C11.25 4.66848 11.3817 4.35054 11.6161 4.11612C11.8505 3.8817 12.1685 3.75 12.5 3.75C12.8315 3.75 13.1495 3.8817 13.3839 4.11612C13.6183 4.35054 13.75 4.66848 13.75 5Z" fill="#00858A"/>
<path d="M28.75 5V7.5C28.75 7.83152 28.6183 8.14946 28.3839 8.38388C28.1495 8.6183 27.8315 8.75 27.5 8.75C27.1685 8.75 26.8505 8.6183 26.6161 8.38388C26.3817 8.14946 26.25 7.83152 26.25 7.5V5C26.25 4.66848 26.3817 4.35054 26.6161 4.11612C26.8505 3.8817 27.1685 3.75 27.5 3.75C27.8315 3.75 28.1495 3.8817 28.3839 4.11612C28.6183 4.35054 28.75 4.66848 28.75 5Z" fill="#00858A"/>
</g>
<defs>
<clipPath id="clip0_244_1290">
<rect width="40" height="40" fill="white"/>
</clipPath>
</defs>
</svg>
