<svg width="40" height="40" viewBox="0 0 40 40" fill="none" xmlns="http://www.w3.org/2000/svg">
<path d="M30.834 3.33203C27.6673 3.33203 25.0007 5.9987 25.0007 9.16536C25.0007 11.832 26.834 13.9987 29.1673 14.6654V29.4987C29.1673 31.4987 27.5007 33.1654 25.5007 33.1654C23.5007 33.1654 21.6673 31.6654 21.6673 29.6654V10.4987C21.6673 6.4987 18.5007 3.33203 14.6673 3.33203C10.834 3.33203 7.50065 6.4987 7.50065 10.4987V25.332C5.16732 25.9987 3.33398 28.1654 3.33398 30.832C3.33398 33.9987 6.00065 36.6654 9.16732 36.6654C12.334 36.6654 15.0007 33.9987 15.0007 30.832C15.0007 28.1654 13.1673 25.9987 10.834 25.332V10.4987C10.834 8.33203 12.5007 6.66536 14.6673 6.66536C16.6673 6.66536 18.334 8.33203 18.334 10.4987V29.6654C18.334 33.4987 21.5007 36.6654 25.334 36.6654C29.1673 36.6654 32.334 33.4987 32.334 29.6654V14.6654C34.834 13.9987 36.6673 11.832 36.6673 9.16536C36.6673 5.9987 34.0007 3.33203 30.834 3.33203ZM11.6673 30.832C11.6673 32.1654 10.5007 33.332 9.16732 33.332C7.83398 33.332 6.66732 32.1654 6.66732 30.832C6.66732 29.4987 7.83398 28.332 9.16732 28.332C10.5007 28.332 11.6673 29.4987 11.6673 30.832ZM30.834 11.6654C29.5007 11.6654 28.334 10.4987 28.334 9.16536C28.334 7.83203 29.5007 6.66536 30.834 6.66536C32.1673 6.66536 33.334 7.83203 33.334 9.16536C33.334 10.4987 32.1673 11.6654 30.834 11.6654Z" fill="#00858A"/>
</svg>
