<svg width="210" height="110" viewBox="0 0 210 110" fill="none" xmlns="http://www.w3.org/2000/svg">
<path d="M6.61768 40.5977V49.6002H15.6359L16.6202 47.8026H28.2655V58.5956H39.0858V47.8026H50.731L51.7298 49.6002H60.7552V40.5977H6.61768ZM17.438 49.6002L6.61768 69.403H15.6359L20.7962 59.9672L33.6792 69.403L46.5693 59.9672L51.7297 69.403H60.7551L49.9204 49.6002H40.9022V60.4004H26.4705V49.6002H17.438Z" fill="white"/>
<path d="M202.602 46.0977L195.105 54.4733L203.371 64.0494H196.7L191.812 58.1331L186.534 64.0494H180.617L188.985 54.6902L181.893 46.0977H187.839L192.19 51.1172L196.7 46.0977H202.602Z" fill="white"/>
<path d="M165.951 52.5202H177.219V56.1511L165.951 56.1077V60.462H179.221V64.0494H161.136V46.0977H179.221V49.6851H165.951V52.5204V52.5202Z" fill="white"/>
<path d="M95.9349 52.5202H107.203V56.1511L95.9349 56.1077V60.462H109.204V64.0494H91.1201V46.0977H109.204V49.6851H95.9349V52.5204V52.5202Z" fill="white"/>
<path d="M132.756 46.0977H141.181L145.213 56.3972L149.389 46.0977H157.902V64.0494H153.001V49.7286L146.924 64.0494H143.429L137.556 49.6852V64.0494H132.755V46.0977H132.756Z" fill="white"/>
<path d="M69.6851 46.0977H88.741V49.6852H81.5914V64.0494H76.7911V49.6852H69.6851V46.0977Z" fill="white"/>
<path d="M112.497 46.0977H117.384V60.462H130.581V64.0494H112.497V46.0977Z" fill="white"/>
</svg>
