<svg width="210" height="110" viewBox="0 0 210 110" fill="none" xmlns="http://www.w3.org/2000/svg">
<g clip-path="url(#clip0_21_1347567)">
<path d="M43.7467 54.0356L50.3197 60.2861C51.5589 61.5956 52.327 63.4665 52.327 65.5295C52.327 69.4803 49.4897 72.6852 45.9824 72.6852L41.4862 72.7022H27.6968L29.1035 65.8383L39.4789 65.8584C40.6029 65.8584 41.5138 64.8344 41.5138 63.5705C41.5138 62.7873 41.1692 62.0975 40.6343 61.6826L34.8408 56.922C33.299 55.6178 32.3015 53.5283 32.3015 51.1873C32.3015 47.2237 35.1416 44.021 38.6432 44.021L53.6385 44.0093L52.4098 50.055H45.1391C44.0189 50.055 43.109 51.0769 43.109 52.3387C43.109 53.0083 43.3564 53.61 43.759 54.0292L43.7467 54.0356Z" fill="white"/>
<path d="M68.4711 66.7295H68.4978C67.3756 66.7295 66.4495 65.7076 66.4676 64.4394C66.4676 64.172 66.5247 63.9661 66.5799 63.7634L69.3591 50.0123H73.9924L75.2221 44.007H70.5898L72.145 36.5H63.2639L61.7192 44.008H56.8708L55.6316 50.0113H60.4933L56.9108 67.4925C56.8537 67.795 56.827 68.0571 56.827 68.4243C56.827 70.7876 58.5307 72.72 60.638 72.72L68.2931 72.6829L69.5276 66.7009C69.5305 66.703 68.8633 66.7295 68.4711 66.7295Z" fill="white"/>
<path d="M166.277 66.7295H166.297C165.175 66.7295 164.254 65.7076 164.273 64.4394C164.273 64.172 164.325 63.9661 164.376 63.7634L167.161 50.0123H171.793L173.021 44.007H168.397L169.934 36.5H161.074L159.514 44.008H154.677L153.438 50.0113H158.3L154.715 67.4925C154.655 67.795 154.622 68.0571 154.622 68.4243C154.626 70.7876 156.326 72.72 158.43 72.72H158.436L166.101 72.6829L167.327 66.7009C167.326 66.703 166.675 66.7295 166.277 66.7295Z" fill="white"/>
<path d="M102.705 72.6702C103.286 72.3943 103.69 71.8276 103.84 71.1219L103.89 70.8927L103.864 70.9457L108.168 50.0007H104.616L105.834 44.0028H109.391L109.787 42.0512L109.877 41.6554C110.659 38.6925 113.089 36.5319 115.967 36.5319L115.98 36.5117H124.407L123.424 41.3307L120.428 41.3211C119.465 41.3211 118.677 42.0746 118.452 43.0763V43.0381L118.246 44.0017H122.874L121.661 50.023H117.02L113.192 68.8074C112.786 71.0179 111.056 72.6787 108.971 72.6787L102.705 72.6702Z" fill="white"/>
<path d="M85.961 65.995L85.921 66.0162C85.409 66.3993 84.7903 66.6158 84.1317 66.6158C82.3071 66.6158 80.83 64.954 80.83 62.8942C80.83 60.8365 82.3071 59.164 84.1317 59.164L90.3897 59.1895C89.8633 62.1216 88.2101 64.5953 85.961 65.995ZM101.531 47.7242C101.531 45.6666 100.049 44.0068 98.2304 44.0068H78.4591L77.2513 49.9719H90.9017C91.4709 49.9719 91.9325 50.4759 91.9325 51.1095C91.9325 51.1965 91.9277 51.2782 91.9087 51.3621H91.8963L91.3529 53.9981H81.7837C76.8801 53.9981 72.9026 58.4934 72.9026 64.0286C72.9026 64.1103 72.9026 64.2005 72.9073 64.2844C72.9073 64.2844 72.9102 64.5688 72.9159 64.7523C73.0511 69.9162 77.2084 73.4967 81.737 73.4967C82.3062 73.4967 82.7678 73.45 83.4093 73.3269C85.2291 72.964 86.5749 72.3845 87.8122 71.3C88.4128 72.1468 89.3551 72.67 90.3887 72.67H98.7444C97.8345 72.0099 97.2387 70.8341 97.2387 69.5225C97.2387 69.2084 97.2682 68.9027 97.33 68.6056L101.448 48.5138V48.5424C101.502 48.2803 101.531 48.0044 101.531 47.7242Z" fill="white"/>
<path d="M20.1654 51.3707L19.6095 54.0397H11.8487L12.2837 52.0032C12.4122 50.8868 13.2478 50.0283 14.2672 50.0071L19.1708 50.0134C19.7314 50.0134 20.1816 50.5228 20.1816 51.1627C20.1816 51.2338 20.1816 51.2996 20.1654 51.3707ZM26.4843 44.0091H26.4452H8.56508L8.4994 43.9741C6.48448 43.9741 4.7808 45.5394 4.31823 47.6629L0.0656731 68.2004C0.0152287 68.4561 0 68.6981 0 68.9687C0 71.0285 1.48287 72.6957 3.30649 72.6957H24.7425L26.1435 65.8074H11.9772L12.0058 65.819C10.8789 65.819 9.96515 64.7939 9.96515 63.53C9.96515 63.3348 9.99846 63.1437 10.0327 62.9644L10.0223 62.9846L10.7113 59.4561H27.4655L29.7365 48.4163C29.7679 48.1892 29.7841 47.96 29.7841 47.7276C29.785 45.6774 28.3107 44.0091 26.4843 44.0091Z" fill="white"/>
<path d="M183.759 65.9985L183.725 66.0166C183.204 66.3997 182.591 66.6162 181.926 66.6162C180.105 66.6162 178.638 64.9543 178.638 62.8945C178.638 60.8337 180.106 59.1644 181.926 59.1644L188.188 59.1856C187.664 62.1188 186.009 64.5903 183.759 65.9985ZM196.037 44.0029H176.256L175.045 49.9733H188.706C189.275 49.9733 189.734 50.4795 189.734 51.1109C189.734 51.2 189.728 51.2796 189.712 51.3677L189.697 51.3624L189.164 53.9984H179.591C174.69 53.9984 170.71 58.4969 170.71 64.0289V64.2868C170.71 64.2868 170.72 64.5723 170.72 64.7559C170.852 69.9165 175.015 73.5002 179.535 73.5002C180.107 73.5002 180.571 73.4503 181.213 73.3272C183.036 72.9643 184.37 72.3849 185.62 71.3003C186.223 72.1504 187.163 72.6788 188.194 72.6788H196.552C195.637 72.0103 195.037 70.8345 195.037 69.5228C195.037 69.2119 195.07 68.9031 195.137 68.6059L199.252 48.5152V48.5417C199.304 48.2796 199.337 48.0058 199.337 47.7235C199.334 45.6627 197.852 44.0029 196.037 44.0029Z" fill="white"/>
<path d="M140.974 51.392L140.427 54.0652H132.665L133.101 52.0287C133.219 50.9176 134.061 50.0474 135.078 50.0294L139.979 50.0326C140.54 50.0326 140.995 50.5494 140.995 51.1819C140.995 51.254 140.989 51.3241 140.974 51.392ZM147.301 44.024H147.258H129.379L129.317 43.9922C127.288 43.9922 125.597 45.5606 125.124 47.6767L120.875 68.2248C120.823 68.4838 120.812 68.7193 120.812 68.9868C120.812 71.0498 122.291 72.718 124.11 72.718H145.551L146.958 65.8254H132.787L132.813 65.8371C131.686 65.8371 130.783 64.8162 130.783 63.5534C130.783 63.3528 130.802 63.1629 130.845 62.9825L130.821 63.0069L131.524 59.4667H148.284L150.541 48.4238C150.58 48.2062 150.6 47.9823 150.6 47.7499C150.6 45.6922 149.126 44.024 147.301 44.024Z" fill="white"/>
<path d="M205.655 48.5193H206.297L207.346 50.4698H208.108L206.96 48.462C207.582 48.3888 208.023 48.0449 208.023 47.2225C208.023 46.2918 207.53 45.9098 206.533 45.9098H204.991V50.4698H205.654L205.655 48.5193ZM205.655 47.8826V46.5497H206.47C206.872 46.5497 207.358 46.6165 207.358 47.1641C207.358 47.8274 206.909 47.8826 206.414 47.8826H205.655ZM210 48.1118C210 45.6381 208.325 43.9922 206.394 43.9922C204.429 43.9922 202.761 45.6371 202.761 48.1118C202.761 50.4571 204.269 52.2293 206.394 52.2293C208.325 52.2293 210 50.5908 210 48.1118ZM209.212 48.1118C209.212 50.1249 207.962 51.5108 206.394 51.5108C204.632 51.5108 203.546 49.9827 203.546 48.1118C203.546 46.1135 204.785 44.7127 206.394 44.7127C207.962 44.7117 209.212 46.1135 209.212 48.1118Z" fill="white"/>
</g>
<defs>
<clipPath id="clip0_21_1347567">
<rect width="210" height="37" fill="white" transform="translate(0 36.5)"/>
</clipPath>
</defs>
</svg>
