<svg width="339" height="54" viewBox="0 0 339 54" fill="none" xmlns="http://www.w3.org/2000/svg">
<path d="M39.8664 13.9237H41.7822L47.2431 8.46276L47.5109 6.14338C37.3471 -2.82864 21.8356 -1.8594 12.8636 8.30436C10.3707 11.1253 8.56426 14.4856 7.57617 18.1212C8.18336 17.8723 8.85843 17.8308 9.49201 18.008L20.4138 16.2053C20.4138 16.2053 20.9682 15.2851 21.2586 15.3417C26.1161 10.0052 34.2924 9.38297 39.9041 13.9237H39.8664Z" fill="#EA4335"/>
<path d="M55.0246 18.1212C53.7687 13.4975 51.1929 9.34149 47.6101 6.16602L39.9468 13.8294C43.1826 16.4731 45.0268 20.4594 44.9476 24.638V25.9995C48.7151 25.9995 51.7699 29.0543 51.7699 32.8219C51.7699 36.5894 48.7151 39.6442 44.9476 39.6442H31.3029L29.9414 41.0245V49.2083L31.3029 50.5698H44.9476C54.7455 50.6452 62.7521 42.7631 62.8275 32.9652C62.8728 27.014 59.9424 21.4475 55.0246 18.1212Z" fill="#4285F4"/>
<path d="M17.6383 50.4838H31.2831V39.562H17.6383C16.6653 39.562 15.7074 39.3508 14.8212 38.9473L12.9053 39.5431L7.40669 45.004L6.92773 46.9199C10.0089 49.2506 13.7727 50.5027 17.6383 50.4838Z" fill="#34A853"/>
<path d="M17.6389 15.0548C7.83715 15.1114 -0.0562679 23.1029 0.000302177 32.9046C0.0342443 38.3768 2.58744 43.5285 6.92826 46.8623L14.8405 38.9501C11.4086 37.4 9.88122 33.3572 11.4312 29.9252C12.9813 26.4933 17.0241 24.9659 20.4561 26.5159C21.9684 27.1986 23.179 28.4129 23.8654 29.9252L31.7776 22.013C28.4136 17.608 23.179 15.0322 17.6389 15.0548Z" fill="#FBBC05"/>
<path d="M99.1522 42.8577C94.4041 42.918 89.8407 41.0437 86.5069 37.6646C83.0636 34.4287 81.1403 29.8956 81.2006 25.1701C81.144 20.4446 83.0674 15.9152 86.5069 12.6756C89.8257 9.26258 94.3928 7.35051 99.1522 7.38822C103.685 7.32788 108.056 9.08909 111.281 12.2759L107.872 15.7455C105.537 13.4865 102.399 12.2495 99.1522 12.2947C95.7467 12.2533 92.4769 13.6449 90.1462 16.1264C87.725 18.5288 86.39 21.8174 86.4465 25.2267C86.4164 28.5982 87.7514 31.8378 90.1462 34.2138C95.0791 39.1316 103.033 39.2259 108.083 34.425C109.587 32.7807 110.508 30.6838 110.708 28.4663H99.2088V23.5635H115.478C115.637 24.5516 115.701 25.551 115.671 26.5542C115.874 30.7366 114.358 34.821 111.473 37.8607C108.264 41.1983 103.783 43.0161 99.1522 42.8577ZM136.979 39.5993C132.442 43.9476 125.284 43.9476 120.747 39.5993C118.548 37.4684 117.349 34.5155 117.432 31.4569C117.349 28.3984 118.552 25.4454 120.747 23.3146C125.288 18.9776 132.438 18.9776 136.979 23.3146C139.174 25.4454 140.377 28.3984 140.294 31.4569C140.373 34.5193 139.162 37.4722 136.96 39.5993H136.979ZM124.33 36.4012C126.672 38.9053 130.601 39.0336 133.106 36.6878C133.204 36.5935 133.302 36.4992 133.392 36.4012C134.671 35.0774 135.361 33.2973 135.308 31.4569C135.365 29.6127 134.674 27.8214 133.392 26.4938C130.982 23.9821 126.992 23.8954 124.477 26.3053C124.413 26.3656 124.349 26.4297 124.288 26.4938C123.006 27.8214 122.316 29.6127 122.372 31.4569C122.323 33.2973 123.021 35.0812 124.307 36.4012H124.33ZM161.926 39.5993C157.389 43.9476 150.231 43.9476 145.694 39.5993C143.496 37.4684 142.296 34.5155 142.379 31.4569C142.296 28.3984 143.499 25.4454 145.694 23.3146C150.231 18.9662 157.389 18.9662 161.926 23.3146C164.121 25.4454 165.324 28.3984 165.241 31.4569C165.328 34.5155 164.125 37.4684 161.926 39.5993ZM149.281 36.4012C151.623 38.9053 155.553 39.0336 158.057 36.6878C158.155 36.5935 158.253 36.4992 158.343 36.4012C159.622 35.0774 160.312 33.2973 160.259 31.4569C160.316 29.6127 159.626 27.8214 158.343 26.4938C155.934 23.9821 151.943 23.8954 149.432 26.3053C149.368 26.3656 149.303 26.4297 149.243 26.4938C147.961 27.8214 147.271 29.6127 147.327 31.4569C147.278 33.2973 147.976 35.0812 149.262 36.4012H149.281ZM178.328 53.0893C176.031 53.161 173.779 52.4444 171.947 51.0566C170.32 49.8334 169.039 48.2091 168.228 46.3424L172.595 44.5209C173.07 45.6372 173.813 46.6177 174.76 47.3758C175.771 48.1904 177.042 48.6203 178.343 48.5826C180.01 48.6844 181.639 48.0546 182.808 46.8591C183.962 45.4675 184.532 43.6798 184.4 41.8771V40.2291H184.226C182.744 41.9865 180.523 42.9444 178.23 42.8162C175.322 42.8238 172.542 41.6169 170.566 39.4823C168.424 37.3666 167.24 34.4665 167.289 31.4532C167.236 28.4248 168.42 25.5057 170.566 23.3674C172.539 21.2253 175.318 20.0071 178.23 20.0147C179.448 20.0109 180.655 20.2824 181.756 20.7991C182.71 21.214 183.559 21.8362 184.249 22.6207H184.422V20.7991H189.174V41.2058C189.427 44.4681 188.326 47.6926 186.127 50.1175C184.034 52.1201 181.224 53.1912 178.328 53.0893ZM178.675 38.3736C180.33 38.4113 181.918 37.706 183.004 36.4577C184.185 35.1038 184.811 33.3501 184.747 31.5512C184.818 29.7221 184.196 27.9383 183.004 26.5504C181.918 25.2983 180.33 24.5969 178.675 24.6346C176.974 24.6006 175.341 25.2983 174.191 26.5504C172.923 27.8892 172.233 29.6731 172.275 31.5135C172.237 33.3388 172.923 35.1038 174.191 36.42C175.333 37.6834 176.966 38.3962 178.675 38.3736ZM197.626 8.67425V42.1675H192.625V8.67425H197.626ZM211.346 42.8577C208.317 42.9369 205.395 41.7489 203.279 39.5804C201.133 37.4307 199.96 34.4929 200.039 31.4569C199.926 28.4135 201.054 25.4529 203.162 23.2543C205.153 21.1574 207.937 19.9958 210.825 20.0524C212.142 20.0373 213.443 20.2938 214.657 20.7991C215.751 21.2404 216.746 21.8928 217.587 22.715C218.311 23.4127 218.953 24.1895 219.503 25.0343C219.948 25.7471 220.325 26.4976 220.635 27.2745L221.151 28.5794L205.825 34.8851C206.775 37.0649 208.966 38.4377 211.342 38.3359C213.639 38.3434 215.77 37.1403 216.958 35.1755L220.789 37.7626C219.812 39.1631 218.559 40.3501 217.108 41.2511C215.389 42.3372 213.382 42.8954 211.346 42.8577ZM204.946 31.11L215.14 26.8747C214.827 26.128 214.265 25.5133 213.548 25.1324C212.749 24.6798 211.844 24.4498 210.923 24.4611C209.366 24.5026 207.884 25.155 206.805 26.2826C205.496 27.5347 204.814 29.3035 204.946 31.11Z" fill="#5F6368"/>
<path d="M247.352 42.857C238.633 43.0079 231.444 36.0611 231.293 27.3417C231.29 27.1305 231.29 26.9156 231.297 26.7044C231.094 17.985 237.999 10.7554 246.715 10.5517C246.926 10.548 247.141 10.548 247.352 10.548C251.712 10.4122 255.898 12.2752 258.715 15.6053L255.954 18.2867C253.884 15.6807 250.693 14.2212 247.371 14.357C244.184 14.2854 241.103 15.5186 238.844 17.7663C236.494 20.1309 235.238 23.3667 235.374 26.6968C235.235 30.0269 236.494 33.2627 238.844 35.6274C241.103 37.8789 244.184 39.1083 247.371 39.0367C251.082 39.0782 254.608 37.4263 256.95 34.5525L259.711 37.3132C258.266 39.0404 256.452 40.4208 254.404 41.356C252.194 42.3818 249.784 42.8948 247.352 42.857Z" fill="#5F6368"/>
<path d="M267.126 42.1664H263.158V11.2188H267.126V42.1664Z" fill="#5F6368"/>
<path d="M273.604 23.54C277.93 19.2445 284.915 19.2445 289.24 23.54C291.292 25.7085 292.397 28.6049 292.307 31.5881C292.397 34.5712 291.292 37.4676 289.24 39.6361C284.915 43.9317 277.93 43.9317 273.604 39.6361C271.553 37.4676 270.448 34.5712 270.538 31.5881C270.448 28.6049 271.549 25.7085 273.604 23.54ZM276.554 37.147C279.092 39.8285 283.323 39.9454 286.008 37.4073C286.099 37.3243 286.186 37.2338 286.269 37.147C287.668 35.646 288.407 33.6435 288.32 31.5918C288.411 29.5402 287.672 27.5377 286.269 26.0367C283.731 23.3552 279.499 23.2383 276.814 25.7764C276.723 25.8594 276.637 25.9499 276.554 26.0367C275.154 27.5377 274.415 29.5402 274.502 31.5918C274.423 33.6397 275.17 35.6347 276.573 37.1282L276.554 37.147Z" fill="#5F6368"/>
<path d="M314.282 42.1671H310.45V39.2368H310.337C309.654 40.3493 308.689 41.262 307.538 41.8805C306.347 42.5707 304.989 42.9365 303.609 42.9327C301.338 43.0873 299.125 42.1973 297.593 40.5191C296.141 38.6824 295.414 36.3781 295.542 34.0437V21.0137H299.509V33.3158C299.509 37.2644 301.252 39.2368 304.74 39.2368C306.313 39.2858 307.81 38.573 308.764 37.321C309.794 36.0198 310.341 34.4019 310.318 32.7425V21.0137H314.285V42.1671H314.282Z" fill="#5F6368"/>
<path d="M327.754 42.8565C325.031 42.8641 322.44 41.6836 320.663 39.617C318.676 37.422 317.612 34.5483 317.692 31.5878C317.612 28.6273 318.676 25.7535 320.663 23.5586C322.44 21.4957 325.031 20.3115 327.754 20.319C329.262 20.2964 330.752 20.6509 332.083 21.3523C333.256 21.9407 334.248 22.8345 334.957 23.9395H335.13L334.957 21.0092V11.2188H338.924V42.1664H335.093V39.236H334.919C334.21 40.3411 333.218 41.2349 332.045 41.8232C330.725 42.5171 329.251 42.8754 327.754 42.8565ZM328.406 39.236C330.22 39.2624 331.959 38.5082 333.177 37.1656C334.523 35.6306 335.213 33.6281 335.093 31.5878C335.213 29.5512 334.523 27.5449 333.177 26.01C330.771 23.3625 326.675 23.1701 324.027 25.58C323.877 25.7158 323.733 25.8629 323.598 26.01C322.247 27.5336 321.557 29.5324 321.682 31.5651C321.557 33.5979 322.247 35.5967 323.598 37.1203C324.819 38.4931 326.573 39.2624 328.406 39.236Z" fill="#5F6368"/>
</svg>
