<svg width="210" height="110" viewBox="0 0 210 110" fill="none" xmlns="http://www.w3.org/2000/svg">
<g clip-path="url(#clip0_7_265)">
<path d="M113.391 14C109.043 20.0409 103.614 27.609 98.7806 34.3258C98.687 34.482 98.5434 34.6026 98.3728 34.6683C98.2022 34.734 98.0144 34.741 97.8393 34.6883C97.3732 34.5741 96.9187 34.4175 96.4815 34.2205C95.189 33.6571 94.0105 32.8646 93.0035 31.8818C92.9094 31.7883 92.8318 31.6479 92.6576 31.6479C92.5232 32.3735 92.4688 33.1114 92.4953 33.8487C92.5467 34.6516 92.6816 35.4471 92.8977 36.2225C92.98 36.5546 93.0224 36.5803 93.3683 36.5733L93.5495 36.5592C93.8789 36.5335 94.206 36.4984 94.5355 36.4821C100.478 36.1359 106.518 35.7734 112.655 35.3946C113.196 35.3525 113.735 35.3618 114.271 35.287C114.971 35.192 115.682 35.3189 116.305 35.6495C117.17 36.0931 117.902 36.7583 118.422 37.5766C118.495 37.6833 118.552 37.7999 118.592 37.9227C118.66 38.1379 118.629 38.1917 118.397 38.1917C118.095 38.1917 117.796 38.1683 117.495 38.1729C117.093 38.1729 116.707 38.0794 116.307 38.0771C116.307 38.0771 102.16 37.5532 94.4672 37.5041C94.126 37.5041 93.7872 37.4807 93.4459 37.4854C93.2295 37.4854 93.2106 37.5345 93.2695 37.7426C93.2938 37.818 93.3236 37.8915 93.3589 37.9625C93.5428 38.3483 93.7479 38.7238 93.9731 39.0874C94.0178 39.1622 94.0978 39.2254 94.0554 39.3213C93.9527 39.3578 93.8404 39.3578 93.7377 39.3213C92.9611 39.1293 92.2179 38.8226 91.5328 38.4115C90.7192 37.9219 89.9719 37.3308 89.3091 36.6528C89.2479 36.5896 89.1938 36.5031 89.0879 36.5288C88.982 36.5546 89.0008 36.6738 88.9914 36.7627C88.926 37.205 88.8906 37.6511 88.8855 38.0981C88.8825 38.6951 88.9305 39.2913 89.0291 39.8802C89.0667 40.1141 89.0855 40.1141 89.3209 40.1141C89.5115 40.1141 89.6997 40.1141 89.8903 40.0954C98.9006 39.7399 108.986 39.361 118.7 38.9728C119.811 38.9284 120.917 38.8769 122.027 38.8208C122.237 38.8053 122.448 38.8398 122.642 38.9213C123.035 39.0897 123.43 39.2651 123.818 39.4616C124.861 39.9884 125.751 40.7698 126.407 41.7325C126.456 41.8026 126.522 41.8658 126.52 41.9476C126.437 42.0295 126.355 41.9991 126.284 41.9991C123.345 41.9359 120.401 41.8705 117.22 41.8377C116.749 41.8377 116.62 41.7301 116.488 41.2928C116.439 41.1314 116.41 40.9654 116.361 40.804C116.289 40.5012 116.118 40.2302 115.877 40.0322C115.635 39.8342 115.335 39.7201 115.022 39.7071C114.645 39.6652 114.265 39.6457 113.886 39.6487C111.939 39.7095 109.92 39.7305 107.812 39.8194C107.812 39.8381 107.812 39.8615 107.793 39.8802L110.617 41.4284C110.617 41.4472 110.617 41.4705 110.603 41.4893C110.33 41.4893 110.055 41.4893 109.782 41.4893C103.663 41.2905 97.6322 41.1688 90.7728 40.811C90.3327 40.811 89.8903 40.7806 89.4526 40.7736C89.1891 40.7736 89.1444 40.8297 89.2173 41.073C89.4499 41.8462 89.8145 42.574 90.2951 43.2246C90.3515 43.3112 90.4306 43.3809 90.5239 43.4262C90.6172 43.4715 90.7211 43.4908 90.8245 43.4818C102.694 43.1684 126.557 42.8387 126.557 42.8387C126.647 42.8257 126.738 42.8463 126.813 42.8964C126.887 42.9466 126.941 43.0228 126.962 43.11C127.075 43.4304 127.183 43.7484 127.27 44.0759C127.346 44.3635 127.386 44.6582 127.44 44.9529C127.484 45.1051 127.511 45.2622 127.517 45.4206C127.503 45.6826 127.503 45.6966 127.247 45.6896C116.728 45.4089 104.494 45.1423 92.0317 44.8313C91.5798 44.8273 91.1326 44.7384 90.7139 44.5693C90.0931 44.3206 89.486 44.0396 88.8949 43.7274C87.83 43.1949 86.8492 42.5102 85.9841 41.6951C85.9464 41.6576 85.9088 41.5945 85.8029 41.6319C85.7652 41.95 85.7205 42.2797 85.6876 42.6118C85.6018 44.1209 85.8211 45.6318 86.3323 47.0554C86.3465 47.1188 86.3847 47.1744 86.4391 47.2106C86.4934 47.2467 86.5597 47.2607 86.6241 47.2495C86.7135 47.2495 86.8053 47.2495 86.8947 47.2495C98.87 46.9852 113.956 46.7397 127.459 46.445C127.694 46.445 127.736 46.4754 127.741 46.721C127.764 47.5163 127.718 48.3121 127.602 49.0994C127.553 49.4128 127.534 49.4245 127.219 49.4245C126.788 49.4245 126.36 49.4105 125.929 49.4245C125.077 49.4245 124.23 49.4432 123.378 49.4666C123.129 49.4849 122.883 49.4061 122.691 49.2468C122.276 48.9007 121.796 48.6399 121.279 48.4797C120.032 48.0952 118.715 47.9906 117.422 48.1733C116.555 48.2742 115.721 48.5641 114.98 49.0222C114.804 49.1358 114.593 49.1846 114.384 49.1602C113.751 49.1041 113.109 49.1111 112.471 49.0643C104.021 48.7626 95.3638 48.4422 87.1654 48.1289C87.1018 48.1289 87.0124 48.0914 86.9771 48.171C86.9418 48.2505 87.003 48.3276 87.0595 48.3791C87.1682 48.4652 87.2676 48.5624 87.356 48.6691C87.5772 48.9755 87.8054 49.2772 88.036 49.5789C88.2666 49.8806 88.2713 49.8852 88.036 50.1939C87.9019 50.3764 87.7631 50.5588 87.6336 50.7506C87.5583 50.8628 87.5913 50.9119 87.7207 50.9213H87.8407C95.7003 50.6757 104.125 50.3039 113.088 50.0185C113.151 50.0185 113.227 49.9741 113.297 50.063C113.234 50.1444 113.166 50.2224 113.095 50.2968C112.932 50.4606 112.768 50.6172 112.608 50.781C112.054 51.3276 111.531 51.9037 111.041 52.5069C110.991 52.5807 110.923 52.6408 110.844 52.6817C110.764 52.7226 110.676 52.7429 110.586 52.7408C103.63 52.4625 95.0861 52.121 87.2642 51.7632C87.1451 51.7495 87.0245 51.7694 86.9163 51.8207C86.8081 51.872 86.7166 51.9526 86.6524 52.0532C86.1394 52.7735 85.6123 53.4845 85.0922 54.2048C85.0514 54.243 85.0196 54.2896 84.9988 54.3413C84.9781 54.393 84.969 54.4486 84.9722 54.5042C93.3495 54.2017 101.729 53.8969 110.111 53.5898C110.108 53.6343 110.099 53.6783 110.085 53.7207C110.036 53.8073 109.984 53.8914 109.927 53.9733C109.448 54.6342 109.034 55.339 108.69 56.0781C108.661 56.1643 108.603 56.2378 108.526 56.2857C108.448 56.3336 108.356 56.3528 108.266 56.3401C101.094 55.849 92.7776 55.9448 84.551 55.4303C84.4669 55.4194 84.3814 55.4312 84.3036 55.4645C84.2257 55.4979 84.1583 55.5515 84.1086 55.6198C83.5485 56.3798 82.9791 57.1376 82.4167 57.8977C82.372 57.9585 82.3014 58.0169 82.3743 58.1315C90.921 57.7433 99.4795 57.4299 108.069 57.0651C108.053 57.1347 108.033 57.2034 108.01 57.2709C107.665 58.0751 107.386 58.9057 107.177 59.7546C107.132 59.9417 107.08 59.9604 106.84 59.9511C99.463 59.6634 90.2668 59.3383 81.9719 58.9641C81.8635 58.9491 81.753 58.9662 81.6542 59.0132C81.5555 59.0602 81.4728 59.135 81.4166 59.2284C80.9036 59.93 80.3765 60.6316 79.8588 61.3473C79.7778 61.4239 79.7269 61.5267 79.7152 61.6373C79.9882 61.6373 80.2565 61.6373 80.5224 61.6373C89.0173 61.3169 97.291 60.9801 106.666 60.6316C106.746 60.6124 106.83 60.6241 106.901 60.6644C106.901 60.7205 106.883 60.779 106.871 60.8351C106.69 61.6065 106.587 62.3938 106.562 63.1855V63.2159C106.539 63.4311 106.518 63.4498 106.308 63.4498C106.259 63.4498 106.207 63.4498 106.158 63.4498C98.0558 63.1621 88.1443 62.8674 79.3176 62.54C79.2128 62.531 79.1077 62.5531 79.0155 62.6035C78.9234 62.6539 78.8483 62.7302 78.7999 62.823C78.6422 63.0849 78.4704 63.3422 78.3081 63.6065C78.1768 63.7929 78.0588 63.9883 77.9551 64.1911C78.0563 64.2847 78.1716 64.2543 78.2775 64.259C87.5983 64.4461 96.778 63.9666 107.2 64.0976C107.42 64.0997 107.639 64.1319 107.85 64.1935C109.299 64.6163 110.789 64.8868 112.295 65.0003C114.141 65.1481 115.999 65.0235 117.808 64.6308C122.486 63.5597 126.178 61.0292 128.915 57.1469C130.953 54.261 131.927 50.9868 132.134 47.4834C132.273 45.2252 131.97 42.9618 131.242 40.818C130.94 39.8384 130.507 38.9033 129.955 38.0373L113.391 14ZM127.308 49.8221C127.496 49.8221 127.506 49.8759 127.433 50.1074C127.176 50.923 126.778 51.6876 126.256 52.3666C126.2 52.4494 126.137 52.5276 126.068 52.6005C126.052 52.6266 126.029 52.6481 126.002 52.6631C125.975 52.678 125.945 52.6859 125.914 52.6859C125.883 52.6859 125.852 52.678 125.825 52.6631C125.798 52.6481 125.776 52.6266 125.76 52.6005C125.697 52.5364 125.642 52.4649 125.597 52.3877C125.131 51.6241 124.617 50.8907 124.058 50.1916C124.032 50.1621 124.009 50.13 123.99 50.0957C123.952 50.0185 123.966 49.9577 124.065 49.9531C124.204 49.9531 124.343 49.9531 124.487 49.939L125.743 49.8829C126.23 49.8595 126.717 49.8338 127.209 49.8151H127.301L127.308 49.8221Z" fill="white"/>
<path d="M71.6275 88.0059C71.5004 88.0059 71.4651 88.1017 71.4651 88.214C71.4651 89.0092 71.4651 89.8067 71.4651 90.5995C71.4629 90.705 71.4819 90.8099 71.5208 90.9081C71.5597 91.0063 71.6178 91.0958 71.6918 91.1715C71.7658 91.2472 71.8541 91.3076 71.9517 91.3491C72.0494 91.3906 72.1543 91.4125 72.2605 91.4134C72.3805 91.4134 72.4958 91.4134 72.6205 91.4134H88.1067C88.7491 91.4134 89.0903 91.0696 89.1044 90.4404C89.1044 90.2206 89.1044 90.0031 89.1044 89.7833V75.8375C89.1044 75.4189 89.1044 75.4236 89.5092 75.4236C91.0576 75.4236 92.6106 75.4236 94.1614 75.4095C94.4922 75.3983 94.8216 75.4585 95.1267 75.5861C95.4318 75.7137 95.7054 75.9056 95.9286 76.1486C96.243 76.4756 96.5229 76.8338 96.764 77.2174C98.9807 80.7792 100.626 84.582 102.63 87.9146C102.852 88.2795 103.08 88.6443 103.306 89.0068C103.341 89.0666 103.382 89.1237 103.426 89.1775C103.532 89.2921 103.598 89.2921 103.692 89.1775C103.748 89.0969 103.799 89.0125 103.845 88.925C106.04 85.0591 108.196 81.1698 110.356 77.2805C110.502 77.0186 110.657 76.766 110.826 76.5157C111.034 76.1738 111.33 75.8931 111.683 75.7024C112.036 75.5117 112.434 75.4179 112.836 75.4306C113.777 75.4306 114.719 75.4306 115.66 75.4306H117.371C117.7 75.4306 117.705 75.4306 117.705 75.765V95.4804C117.705 95.8826 117.705 95.8826 117.288 95.8826H112.895C112.631 95.8826 112.598 95.8405 112.591 95.5926C112.591 95.5225 112.591 95.4547 112.591 95.3845V84.3107C112.609 84.1968 112.598 84.0806 112.561 83.9716C112.445 84.0137 112.408 84.1212 112.358 84.2054L106.33 95.0547C106.24 95.2185 106.123 95.3728 106.021 95.5225C105.957 95.6238 105.867 95.7073 105.762 95.7653C105.656 95.8234 105.537 95.854 105.417 95.8546C105.297 95.8546 105.181 95.8546 105.057 95.8546C104.047 95.8546 103.035 95.8288 102.026 95.8546C101.777 95.8817 101.526 95.8295 101.31 95.7054C101.093 95.5814 100.922 95.392 100.821 95.1647L94.912 84.4861C94.8367 84.3481 94.7732 84.2031 94.6979 84.0651C94.6838 84.0324 94.672 83.9833 94.6203 83.9903C94.5963 83.9949 94.5745 84.0072 94.5583 84.0254C94.5421 84.0436 94.5325 84.0666 94.5308 84.0908C94.527 84.1508 94.527 84.211 94.5308 84.2709C94.5308 87.5638 94.5308 90.8521 94.5308 94.1426C94.5372 94.4417 94.465 94.7372 94.3214 95.0001C94.1778 95.263 93.9677 95.4841 93.7119 95.6418C93.5409 95.7659 93.3374 95.8382 93.126 95.8499C92.8742 95.8499 92.6271 95.8803 92.3753 95.8826C84.271 95.8826 76.1385 95.9013 68.3401 95.9201C68.0303 95.9359 67.7205 95.889 67.4295 95.7821C67.1316 95.6719 66.8743 95.4746 66.6916 95.2162C66.5088 94.9577 66.4092 94.6503 66.4058 94.3344C66.4058 94.138 66.4058 93.9345 66.4058 93.738V77.4887C66.4058 77.3203 66.4058 77.1495 66.4058 76.9811C66.3823 76.2211 67.1118 75.4984 67.8907 75.461C73.7242 75.4072 80.0706 75.447 85.2076 75.461C85.7629 75.461 85.7065 75.4165 85.7065 75.9568C85.7065 77.2103 85.7065 78.4616 85.7065 79.7151V79.7759C85.7065 80.1571 85.7065 80.1571 85.3347 80.1571C81.099 80.1712 76.4727 80.1758 72.6699 80.1828C72.52 80.1782 72.3699 80.1829 72.2205 80.1969C72.0247 80.214 71.8429 80.3046 71.7118 80.45C71.5807 80.5955 71.5102 80.7851 71.5145 80.9804C71.5004 81.696 71.484 82.4116 71.4722 83.1273C71.4722 83.2536 71.4487 83.3916 71.5804 83.4781C71.6955 83.5125 71.8169 83.5213 71.9358 83.5038H83.8216C84.1581 83.5038 84.1581 83.5038 84.1581 83.8429V87.7205C84.1728 87.8193 84.1647 87.92 84.1346 88.0152C84.0489 88.0433 83.9579 88.0513 83.8687 88.0386H71.891C71.8002 88.0495 71.708 88.0415 71.6204 88.0152L71.6275 88.0059Z" fill="white"/>
<path d="M163.446 91.1359C163.546 91.2709 163.678 91.3793 163.83 91.4515C163.982 91.5238 164.15 91.5575 164.319 91.5499C165.26 91.5358 166.22 91.5499 167.171 91.5499C167.505 91.5499 167.474 91.5498 167.479 91.8305L167.502 95.7081C167.502 95.9981 167.502 96.0098 167.199 96.0098H161.495C161.297 96.0098 161.097 95.984 160.899 95.9677C160.71 95.9504 160.526 95.894 160.359 95.8022C160.193 95.7104 160.047 95.5852 159.932 95.4345L155.739 90.4086C155.682 90.3407 155.642 90.2565 155.525 90.2261C155.386 90.3688 155.235 90.5138 155.101 90.6705C153.972 91.9872 152.899 93.3343 151.894 94.5972C151.699 94.8428 151.477 95.0649 151.287 95.3245C151.123 95.5265 150.915 95.6881 150.678 95.7969C150.441 95.9056 150.183 95.9584 149.922 95.9513C149.752 95.9513 149.581 95.9513 149.411 95.9513H124.023C123.684 95.9586 123.347 95.9209 123.018 95.839C122.63 95.7468 122.283 95.5319 122.028 95.2265C121.773 94.9212 121.625 94.5419 121.606 94.1458C121.606 94.0757 121.606 94.0078 121.606 93.9377C121.606 88.5025 121.606 83.0626 121.592 77.6251C121.575 77.2151 121.678 76.8088 121.889 76.4558C122.067 76.1417 122.327 75.8811 122.642 75.7013C122.957 75.5215 123.314 75.4291 123.677 75.4338C129.56 75.4338 134.972 75.4525 140.57 75.4525H140.721C140.956 75.4525 140.973 75.4665 140.975 75.7051C140.975 75.8851 140.975 76.0629 140.975 76.243C140.975 77.1784 140.961 78.1326 140.975 79.0775C140.975 79.3418 141.02 79.6107 141.013 79.8797C141.013 79.9475 141.032 80.0223 140.98 80.0761C140.669 80.1267 140.353 80.144 140.039 80.1276C135.972 80.1276 131.907 80.1276 127.842 80.1276C127.696 80.1276 127.539 80.0785 127.412 80.1954L127.122 80.3451C126.939 80.4271 126.782 80.5578 126.668 80.7229C126.555 80.888 126.49 81.0809 126.48 81.2805C126.437 81.9447 126.454 82.6113 126.456 83.2778C126.456 83.4743 126.513 83.5117 126.753 83.5117C130.828 83.5117 134.859 83.4906 138.634 83.4883C138.956 83.4883 138.963 83.4883 138.963 83.8274V87.8547C138.963 87.9856 138.914 88.0628 138.768 88.0511C138.69 88.0511 138.606 88.0511 138.533 88.0511C134.672 88.0511 130.812 88.0465 126.953 88.0371C126.449 88.0371 126.503 88.0371 126.503 88.5048C126.503 89.1316 126.503 89.7584 126.503 90.3758C126.487 90.6435 126.577 90.9069 126.752 91.1106C126.928 91.3143 127.176 91.4424 127.444 91.468C127.652 91.4976 127.861 91.5124 128.07 91.5124C135.029 91.5639 147.3 91.4633 147.3 91.4633C147.499 91.4734 147.697 91.4363 147.879 91.3549C148.06 91.2736 148.219 91.1504 148.343 90.9956C149.637 89.3117 151.082 87.9786 152.244 86.4351C152.536 86.0445 152.541 85.8504 152.219 85.4832C150.835 83.9241 149.447 82.361 148.053 80.7941C148.009 80.7426 147.952 80.6982 147.908 80.6444C147.762 80.4807 147.579 80.3532 147.375 80.272C147.171 80.1908 146.95 80.1581 146.731 80.1767C145.912 80.2094 145.084 80.1767 144.27 80.1767C144.194 80.1767 144.107 80.2024 144.048 80.1252C144.373 80.0887 144.701 80.0801 145.027 80.0995C145.747 80.0995 146.467 80.0995 146.936 80.0995C146.14 80.1229 145.091 80.0574 144.044 80.1252C143.919 80.0317 143.95 79.8914 143.95 79.7721C143.95 78.4414 143.95 77.1059 143.95 75.7752C143.95 75.4735 143.95 75.4688 144.246 75.4688H149.049C149.533 75.471 150.004 75.6267 150.393 75.9132C150.62 76.0761 150.826 76.2662 151.007 76.4792C152.557 78.2472 153.981 80.0364 155.421 81.7436C155.478 81.8114 155.534 81.8816 155.598 81.9494C155.781 82.1459 155.845 82.1506 156.028 81.9494C157.48 80.2656 158.939 78.5466 160.313 76.9282C160.626 76.5646 160.981 76.2403 161.372 75.9623C161.744 75.6858 162.195 75.5365 162.66 75.5367H167.192C167.469 75.5367 167.495 75.5624 167.495 75.8501C167.495 77.2416 167.495 78.6355 167.495 80.0247C167.407 80.0908 167.297 80.1224 167.187 80.1135H164.551H164.488C165.316 80.1135 166.173 80.1135 167.027 80.1135C167.133 80.1135 167.244 80.0761 167.347 80.151C167.347 80.1837 167.448 80.2188 167.347 80.2562C167.297 80.2638 167.246 80.2638 167.196 80.2562C166.338 80.2562 165.479 80.2562 164.608 80.2562C164.444 80.2493 164.28 80.2823 164.132 80.3524C163.983 80.4225 163.854 80.5275 163.756 80.6585C162.304 82.3423 160.744 84.1946 159.462 85.7405C159.207 86.0492 159.207 86.117 159.462 86.4421C160.925 88.1213 161.944 89.3702 163.422 91.1546L163.446 91.1359Z" fill="white"/>
<path d="M42.5281 85.6775C42.5281 82.284 42.5281 79.1595 42.5281 76.0163C42.5281 75.897 42.5281 75.7824 42.514 75.6584C42.4999 75.5345 42.5516 75.476 42.6787 75.476C42.8999 75.476 43.1187 75.476 43.3399 75.476C49.6935 75.476 55.3528 75.476 61.1934 75.4573C61.5236 75.4387 61.8534 75.5013 62.1535 75.6397C62.4416 75.7708 62.6875 75.9788 62.8637 76.2406C63.0399 76.5024 63.1394 76.8077 63.1512 77.1225C63.1512 77.2114 63.1512 77.3026 63.1512 77.3914V88.0653C63.1651 88.4038 63.1181 88.742 63.0124 89.064C62.8848 89.3807 62.6663 89.6531 62.3841 89.8474C62.017 90.109 61.5716 90.2393 61.1204 90.2169C57.2189 90.2169 53.3189 90.2169 49.4205 90.2169H49.3311C49.0464 90.2169 49.0275 90.1936 49.0275 89.9036V85.6541C49.0275 85.308 49.0275 85.3033 49.3758 85.3033C51.856 85.3033 54.337 85.3033 56.8189 85.3033C56.9577 85.3033 57.1012 85.3033 57.2401 85.3033C57.3311 85.3104 57.4226 85.2975 57.508 85.2654C57.5933 85.2332 57.6705 85.1827 57.7339 85.1174C57.7974 85.0521 57.8455 84.9737 57.8748 84.8878C57.9042 84.8019 57.914 84.7106 57.9037 84.6204C57.9037 83.398 57.9037 82.1749 57.9037 80.951C57.9037 80.4364 57.6189 80.1722 57.0942 80.1722H47.971C47.5921 80.1722 47.5921 80.1722 47.5921 80.5534C47.5921 84.2953 47.5984 88.0419 47.6109 91.7932V95.6708C47.6109 95.9234 47.6109 95.9281 47.3521 95.9281H42.7987C42.514 95.9281 42.514 95.9281 42.514 95.6264V85.6775H42.5281Z" fill="white"/>
<path d="M127.414 80.1951C127.412 80.1777 127.415 80.1602 127.421 80.1439C127.427 80.1276 127.437 80.1128 127.45 80.1007C127.462 80.0886 127.477 80.0794 127.494 80.0739C127.511 80.0684 127.528 80.0667 127.546 80.0688H127.826C132.062 80.0688 136.297 80.0688 140.533 80.0688C140.724 80.0688 140.9 80.0688 140.964 79.835C140.964 79.9168 140.964 79.9987 140.982 80.0805C141.001 80.1624 140.919 80.1741 140.851 80.1764C140.782 80.1787 140.688 80.1764 140.615 80.1764H128.614C128.212 80.1764 127.812 80.1764 127.414 80.1951Z" fill="white"/>
<path d="M84.1367 88.0063C84.1367 86.6335 84.1367 85.263 84.1367 83.8902C84.1367 83.4949 84.1555 83.5253 83.7578 83.5253C79.8186 83.5253 75.8787 83.5253 71.9379 83.5253C71.8226 83.5253 71.7026 83.5698 71.5967 83.4692C71.7049 83.4692 71.8179 83.4692 71.9261 83.4692H83.8025C84.2379 83.4692 84.2073 83.4388 84.2073 83.8715C84.2073 85.0946 84.2073 86.3178 84.2073 87.5362C84.2073 87.6976 84.2567 87.8683 84.1437 88.018L84.1367 88.0063Z" fill="white"/>
<path d="M71.6274 88.0068C71.7286 88.0068 71.8251 88.0068 71.9286 88.0068H83.8686C83.958 88.0068 84.0498 88.0068 84.1392 88.0068C84.0521 88.0817 83.9486 88.0442 83.8498 88.0442C79.8619 88.0442 75.8741 88.0442 71.8863 88.0442C71.7992 88.0442 71.7098 88.07 71.6274 88.0068Z" fill="white"/>
<path d="M167.342 80.1316H164.382C164.476 80.038 164.577 80.0637 164.674 80.0637C165.363 80.0637 166.055 80.0637 166.74 80.0637C166.989 80.0829 167.24 80.0624 167.483 80.0029C167.53 80.1479 167.413 80.1175 167.342 80.1316Z" fill="white"/>
<path d="M98.9029 33.9112C98.9029 33.9791 98.8699 34.0071 98.8158 34.0118C98.8158 34.0118 98.7852 33.9884 98.7852 33.9744C98.7844 33.9507 98.7916 33.9275 98.8057 33.9084C98.8197 33.8893 98.8399 33.8754 98.8629 33.8691C98.8888 33.8691 98.9005 33.8925 98.9005 33.9112H98.9029Z" fill="white"/>
<path d="M144.037 80.1226C144.098 80.0477 144.183 80.0665 144.258 80.0665H147.138C147.166 80.0598 147.195 80.0616 147.222 80.0716C147.249 80.0816 147.272 80.0994 147.289 80.1226C146.194 80.1226 145.117 80.1226 144.037 80.1226Z" fill="white"/>
</g>
<defs>
<clipPath id="clip0_7_265">
<rect width="125" height="82" fill="white" transform="translate(42.5 14)"/>
</clipPath>
</defs>
</svg>
