<svg width="304" height="50" viewBox="0 0 304 50" fill="none" xmlns="http://www.w3.org/2000/svg">
<path d="M46.8813 45.3125C46.8813 47.9013 44.7824 50 42.1932 50C39.604 50 37.505 47.9013 37.505 45.3125C37.505 42.7237 39.604 40.625 42.1932 40.625C44.7824 40.625 46.8813 42.7237 46.8813 45.3125Z" fill="#007CD4"/>
<path d="M50.0067 25C50.0067 38.8071 38.8123 50 25.0034 50C11.1944 50 0 38.8071 0 25C0 11.1929 11.1944 6.24512e-06 25.0034 6.24512e-06C38.8123 6.24512e-06 50.0067 11.1929 50.0067 25Z" fill="#FF6213"/>
<path d="M50.0067 25.3125C50.0067 33.7694 43.1502 40.625 34.6922 40.625C26.2342 40.625 19.3776 33.7694 19.3776 25.3125C19.3776 16.8556 26.2342 10 34.6922 10C43.1502 10 50.0067 16.8556 50.0067 25.3125Z" fill="white"/>
<path d="M288.668 6C289.1 6 289.451 6.35027 289.451 6.78234V38.0515C289.451 38.4836 289.1 38.8339 288.668 38.8339H284.593C284.161 38.8339 283.81 38.4836 283.81 38.0515V6.78234C283.81 6.35027 284.161 6 284.593 6H288.668ZM302.192 15.7198C302.867 15.7198 303.225 16.518 302.776 17.0224L293.873 27.0205L288.425 32.5533L286.63 28.1741L290.839 22.8762L296.887 15.9861C297.036 15.8169 297.25 15.7198 297.475 15.7198H302.192ZM298.587 38.8339C298.325 38.8339 298.08 38.7028 297.935 38.4846L291.01 28.0673L294.771 24.4143L303.861 37.6077C304.218 38.1267 303.847 38.8339 303.216 38.8339H298.587Z" fill="#FF6213"/>
<path d="M273.683 20.4403V38.0509C273.683 38.483 273.333 38.8332 272.901 38.8332H268.825C268.393 38.8332 268.043 38.483 268.043 38.0509V16.5016C268.043 16.0695 268.393 15.7192 268.825 15.7192H272.65C273.062 15.7192 273.404 16.0401 273.43 16.4521L273.683 20.4403ZM280.712 15.5697L280.627 20.8248C280.313 20.7679 279.957 20.7251 279.559 20.6967C279.174 20.6682 278.811 20.6539 278.469 20.6539C277.6 20.6539 276.838 20.775 276.183 21.0171C275.528 21.245 274.979 21.5796 274.538 22.0211C274.11 22.4626 273.783 23.0038 273.555 23.6447C273.327 24.2713 273.199 24.9834 273.17 25.7809L271.953 25.6313C271.953 24.1645 272.102 22.8044 272.401 21.5511C272.7 20.2979 273.135 19.2013 273.704 18.2614C274.274 17.3214 274.986 16.5951 275.841 16.0824C276.71 15.5555 277.707 15.292 278.832 15.292C279.145 15.292 279.48 15.3205 279.836 15.3774C280.207 15.4202 280.499 15.4843 280.712 15.5697Z" fill="#FF6213"/>
<path d="M257.275 33.9199V23.2601C257.275 22.4768 257.139 21.8004 256.869 21.2307C256.598 20.661 256.185 20.2196 255.63 19.9062C255.074 19.5929 254.369 19.4363 253.514 19.4363C252.76 19.4363 252.097 19.5645 251.527 19.8208C250.972 20.0771 250.545 20.4403 250.246 20.9103C250.083 21.1579 249.965 21.4267 249.89 21.7164C249.783 22.135 249.447 22.4911 249.014 22.4911H244.918C244.485 22.4911 244.129 22.1392 244.187 21.7111C244.279 21.0406 244.489 20.3963 244.819 19.7781C245.275 18.9093 245.923 18.1403 246.763 17.4709C247.618 16.7874 248.636 16.2533 249.818 15.8688C251.015 15.4843 252.354 15.292 253.835 15.292C255.587 15.292 257.146 15.5911 258.514 16.1892C259.895 16.7731 260.978 17.6561 261.761 18.8381C262.559 20.0202 262.958 21.5084 262.958 23.3029V33.3859C262.958 34.5394 263.029 35.5292 263.171 36.3552C263.328 37.167 263.556 37.8719 263.855 38.4701V38.8332H258.108C257.837 38.2493 257.631 37.5088 257.488 36.6116C257.346 35.7001 257.275 34.8029 257.275 33.9199ZM258.065 24.7555L258.108 28.1094H254.54C253.657 28.1094 252.881 28.2019 252.211 28.3871C251.542 28.558 250.993 28.8143 250.566 29.1561C250.139 29.4837 249.818 29.8824 249.605 30.3524C249.391 30.8081 249.284 31.328 249.284 31.9119C249.284 32.4815 249.412 32.9942 249.669 33.45C249.939 33.9057 250.324 34.2688 250.822 34.5394C251.335 34.7958 251.933 34.924 252.617 34.924C253.614 34.924 254.483 34.7246 255.224 34.3258C255.964 33.9128 256.541 33.4143 256.954 32.8304C257.367 32.2465 257.588 31.6911 257.617 31.1642L259.24 33.5995C259.041 34.1834 258.742 34.8029 258.343 35.458C257.944 36.1131 257.431 36.7255 256.805 37.2952C256.178 37.8648 255.423 38.3348 254.54 38.7051C253.657 39.0754 252.631 39.2605 251.463 39.2605C249.968 39.2605 248.629 38.9614 247.447 38.3633C246.264 37.7651 245.332 36.9462 244.648 35.9066C243.964 34.867 243.622 33.6849 243.622 32.3605C243.622 31.1357 243.85 30.0533 244.306 29.1134C244.762 28.1735 245.438 27.3831 246.336 26.7422C247.233 26.0871 248.344 25.5957 249.669 25.2682C251.008 24.9264 252.539 24.7555 254.262 24.7555H258.065Z" fill="#FF6213"/>
<path d="M233.858 33.3431V16.5016C233.858 16.0695 234.209 15.7192 234.641 15.7192H238.759C239.191 15.7192 239.542 16.0695 239.542 16.5016V38.8332H234.2L233.858 33.3431ZM234.585 28.558L236.337 28.5153C236.337 30.0676 236.166 31.4989 235.824 32.8091C235.482 34.1193 234.948 35.2586 234.222 36.2271C233.509 37.1812 232.605 37.9289 231.508 38.4701C230.412 38.997 229.115 39.2605 227.62 39.2605C226.48 39.2605 225.441 39.1038 224.5 38.7905C223.56 38.463 222.749 37.9574 222.065 37.2738C221.395 36.576 220.876 35.6859 220.505 34.6035C220.135 33.5069 219.95 32.1896 219.95 30.6515V16.5016C219.95 16.0695 220.3 15.7192 220.732 15.7192H224.808C225.24 15.7192 225.59 16.0695 225.59 16.5016V30.6942C225.59 31.4633 225.676 32.1041 225.846 32.6168C226.032 33.1295 226.281 33.5496 226.594 33.8772C226.922 34.1905 227.299 34.4184 227.727 34.5608C228.168 34.689 228.638 34.753 229.137 34.753C230.504 34.753 231.579 34.4825 232.363 33.9413C233.161 33.3859 233.73 32.6453 234.072 31.7196C234.414 30.7797 234.585 29.7258 234.585 28.558Z" fill="#FF6213"/>
<path d="M207.045 34.4552L214.597 40.4494C214.981 40.7537 214.994 41.3314 214.624 41.6525L212.067 43.8748C211.782 44.1229 211.36 44.1314 211.065 43.895L203.413 37.7664L207.045 34.4552ZM215.484 22.4923V24.0945C215.484 26.4443 215.171 28.5592 214.544 30.4391C213.918 32.3047 213.02 33.8927 211.852 35.2029C210.699 36.5131 209.324 37.5171 207.729 38.215C206.134 38.9128 204.367 39.2617 202.43 39.2617C200.507 39.2617 198.741 38.9128 197.132 38.215C195.536 37.5171 194.155 36.5131 192.987 35.2029C191.819 33.8927 190.914 32.3047 190.273 30.4391C189.633 28.5592 189.312 26.4443 189.312 24.0945V22.4923C189.312 20.1282 189.625 18.0133 190.252 16.1477C190.893 14.2821 191.79 12.6941 192.944 11.3839C194.112 10.0594 195.494 9.0483 197.089 8.35046C198.698 7.65263 200.465 7.30371 202.388 7.30371C204.325 7.30371 206.091 7.65263 207.686 8.35046C209.296 9.0483 210.677 10.0594 211.831 11.3839C212.999 12.6941 213.896 14.2821 214.523 16.1477C215.164 18.0133 215.484 20.1282 215.484 22.4923ZM209.545 24.0945V22.4496C209.545 20.7548 209.388 19.2666 209.075 17.9849C208.761 16.6889 208.291 15.5994 207.665 14.7164C207.052 13.8335 206.304 13.1712 205.421 12.7297C204.538 12.274 203.527 12.0461 202.388 12.0461C201.262 12.0461 200.258 12.274 199.375 12.7297C198.492 13.1712 197.744 13.8335 197.132 14.7164C196.519 15.5994 196.049 16.6889 195.722 17.9849C195.408 19.2666 195.252 20.7548 195.252 22.4496V24.0945C195.252 25.775 195.408 27.2632 195.722 28.5592C196.049 29.8552 196.519 30.9518 197.132 31.849C197.758 32.732 198.513 33.4013 199.396 33.857C200.294 34.3128 201.305 34.5406 202.43 34.5406C203.57 34.5406 204.581 34.3128 205.464 33.857C206.347 33.4013 207.088 32.732 207.686 31.849C208.299 30.9518 208.761 29.8552 209.075 28.5592C209.388 27.2632 209.545 25.775 209.545 24.0945Z" fill="#FF6213"/>
<path d="M183.765 6.02197C184.197 6.02197 184.548 6.37224 184.548 6.80432V38.0521C184.548 38.4842 184.197 38.8345 183.765 38.8345H179.668C179.236 38.8345 178.886 38.4842 178.886 38.0521V6.80432C178.886 6.37224 179.236 6.02197 179.668 6.02197H183.765Z" fill="white"/>
<path d="M167.797 33.9199V23.2601C167.797 22.4768 167.662 21.8004 167.391 21.2307C167.121 20.661 166.708 20.2196 166.152 19.9062C165.597 19.5929 164.892 19.4363 164.037 19.4363C163.282 19.4363 162.62 19.5645 162.05 19.8208C161.495 20.0771 161.067 20.4403 160.768 20.9103C160.606 21.1579 160.487 21.4267 160.413 21.7164C160.306 22.135 159.969 22.4911 159.537 22.4911H155.44C155.008 22.4911 154.652 22.1392 154.71 21.7111C154.801 21.0406 155.012 20.3963 155.341 19.7781C155.797 18.9093 156.445 18.1403 157.286 17.4709C158.14 16.7874 159.159 16.2533 160.341 15.8688C161.537 15.4843 162.876 15.292 164.358 15.292C166.109 15.292 167.669 15.5911 169.036 16.1892C170.418 16.7731 171.501 17.6561 172.284 18.8381C173.082 20.0202 173.48 21.5084 173.48 23.3029V33.3859C173.48 34.5394 173.552 35.5292 173.694 36.3552C173.851 37.167 174.079 37.8719 174.378 38.4701V38.8332H168.631C168.36 38.2493 168.153 37.5088 168.011 36.6116C167.869 35.7001 167.797 34.8029 167.797 33.9199ZM168.588 24.7555L168.631 28.1094H165.063C164.179 28.1094 163.403 28.2019 162.734 28.3871C162.064 28.558 161.516 28.8143 161.089 29.1561C160.661 29.4837 160.341 29.8824 160.127 30.3524C159.914 30.8081 159.807 31.328 159.807 31.9119C159.807 32.4815 159.935 32.9942 160.191 33.45C160.462 33.9057 160.847 34.2688 161.345 34.5394C161.858 34.7958 162.456 34.924 163.14 34.924C164.137 34.924 165.006 34.7246 165.746 34.3258C166.487 33.9128 167.064 33.4143 167.477 32.8304C167.89 32.2465 168.111 31.6911 168.139 31.1642L169.763 33.5995C169.564 34.1834 169.264 34.8029 168.866 35.458C168.467 36.1131 167.954 36.7255 167.327 37.2952C166.701 37.8648 165.946 38.3348 165.063 38.7051C164.179 39.0754 163.154 39.2605 161.986 39.2605C160.49 39.2605 159.152 38.9614 157.969 38.3633C156.787 37.7651 155.854 36.9462 155.171 35.9066C154.487 34.867 154.145 33.6849 154.145 32.3605C154.145 31.1357 154.373 30.0533 154.829 29.1134C155.284 28.1735 155.961 27.3831 156.858 26.7422C157.756 26.0871 158.867 25.5957 160.191 25.2682C161.53 24.9264 163.061 24.7555 164.785 24.7555H168.588Z" fill="white"/>
<path d="M130.43 6.80432C130.43 6.37224 130.78 6.02197 131.212 6.02197H135.309C135.741 6.02197 136.091 6.37224 136.091 6.80432V33.7289L135.612 38.1367C135.569 38.5337 135.233 38.8345 134.834 38.8345H131.212C130.78 38.8345 130.43 38.4842 130.43 38.0521V6.80432ZM150.962 27.0425V27.4911C150.962 29.2143 150.769 30.7951 150.385 32.2335C150.014 33.6719 149.452 34.918 148.697 35.9719C147.942 37.0116 147.002 37.8233 145.877 38.4072C144.766 38.9769 143.462 39.2617 141.967 39.2617C140.542 39.2617 139.303 38.984 138.249 38.4286C137.21 37.8732 136.334 37.0899 135.621 36.0787C134.909 35.0533 134.339 33.8499 133.912 32.4685C133.485 31.0728 133.164 29.549 132.951 27.897V26.6793C133.164 25.0131 133.485 23.4892 133.912 22.1078C134.339 20.7264 134.909 19.5229 135.621 18.4976C136.334 17.4722 137.21 16.6818 138.249 16.1263C139.289 15.5709 140.514 15.2932 141.924 15.2932C143.434 15.2932 144.751 15.5852 145.877 16.1691C147.016 16.7387 147.956 17.5505 148.697 18.6044C149.452 19.644 150.014 20.883 150.385 22.3214C150.769 23.7456 150.962 25.3193 150.962 27.0425ZM145.3 27.4911V27.0425C145.3 26.0598 145.221 25.1341 145.065 24.2654C144.908 23.3824 144.652 22.6062 144.296 21.9369C143.94 21.2675 143.455 20.7406 142.843 20.3561C142.23 19.9716 141.461 19.7793 140.535 19.7793C139.652 19.7793 138.897 19.9288 138.271 20.2279C137.658 20.527 137.145 20.94 136.732 21.4669C136.334 21.9939 136.02 22.6134 135.792 23.3254C135.579 24.0375 135.436 24.8066 135.365 25.6326V28.9651C135.465 30.0617 135.7 31.0515 136.07 31.9344C136.44 32.8032 136.989 33.4939 137.715 34.0066C138.456 34.5193 139.41 34.7756 140.578 34.7756C141.49 34.7756 142.252 34.5976 142.864 34.2416C143.477 33.8713 143.961 33.3586 144.317 32.7035C144.673 32.0341 144.922 31.258 145.065 30.375C145.221 29.492 145.3 28.5307 145.3 27.4911Z" fill="white"/>
<path d="M104.663 27.5112V27.0626C104.663 25.3679 104.905 23.8084 105.39 22.3843C105.874 20.9459 106.579 19.6997 107.505 18.6459C108.431 17.592 109.563 16.7731 110.902 16.1892C112.241 15.5911 113.765 15.292 115.474 15.292C117.212 15.292 118.75 15.5911 120.089 16.1892C121.442 16.7731 122.581 17.592 123.507 18.6459C124.433 19.6997 125.138 20.9459 125.622 22.3843C126.107 23.8084 126.349 25.3679 126.349 27.0626V27.5112C126.349 29.1917 126.107 30.7512 125.622 32.1896C125.138 33.6137 124.433 34.8599 123.507 35.928C122.581 36.9818 121.449 37.8007 120.11 38.3846C118.771 38.9685 117.24 39.2605 115.517 39.2605C113.808 39.2605 112.276 38.9685 110.923 38.3846C109.57 37.8007 108.431 36.9818 107.505 35.928C106.579 34.8599 105.874 33.6137 105.39 32.1896C104.905 30.7512 104.663 29.1917 104.663 27.5112ZM110.304 27.0626V27.5112C110.304 28.5224 110.403 29.4694 110.603 30.3524C110.802 31.2354 111.108 32.0116 111.521 32.6809C111.935 33.3503 112.469 33.8772 113.124 34.2617C113.793 34.632 114.591 34.8171 115.517 34.8171C116.428 34.8171 117.212 34.632 117.867 34.2617C118.522 33.8772 119.056 33.3503 119.469 32.6809C119.897 32.0116 120.21 31.2354 120.409 30.3524C120.609 29.4694 120.708 28.5224 120.708 27.5112V27.0626C120.708 26.0657 120.609 25.1329 120.409 24.2642C120.21 23.3812 119.897 22.605 119.469 21.9357C119.056 21.2521 118.515 20.718 117.846 20.3335C117.19 19.9347 116.4 19.7354 115.474 19.7354C114.562 19.7354 113.779 19.9347 113.124 20.3335C112.469 20.718 111.935 21.2521 111.521 21.9357C111.108 22.605 110.802 23.3812 110.603 24.2642C110.403 25.1329 110.304 26.0657 110.304 27.0626Z" fill="white"/>
<path d="M99.5009 6.02197C99.9331 6.02197 100.283 6.37224 100.283 6.80432V38.0521C100.283 38.4842 99.9331 38.8345 99.5009 38.8345H95.4041C94.9719 38.8345 94.6216 38.4842 94.6216 38.0521V6.80432C94.6216 6.37224 94.9719 6.02197 95.404 6.02197H99.5009Z" fill="white"/>
<path d="M89.1735 22.748V34.5913C89.1735 34.7657 89.1167 34.9363 89.0022 35.068C88.5453 35.5937 87.8831 36.1583 87.0156 36.7617C86.047 37.4453 84.7794 38.0363 83.2126 38.5348C81.6458 39.019 79.723 39.2611 77.444 39.2611C75.4642 39.2611 73.6553 38.9335 72.0173 38.2784C70.3793 37.6091 68.9691 36.6335 67.7869 35.3518C66.6047 34.0701 65.6932 32.5035 65.0522 30.6521C64.4112 28.8007 64.0908 26.6858 64.0908 24.3075V22.2567C64.0908 19.8784 64.3899 17.7635 64.9881 15.9121C65.6006 14.0607 66.4694 12.4941 67.5947 11.2124C68.7341 9.93066 70.0944 8.95512 71.6754 8.28577C73.2707 7.61641 75.0511 7.28174 77.0167 7.28174C79.6517 7.28174 81.8167 7.7161 83.5117 8.58484C85.2209 9.45357 86.5313 10.6499 87.4429 12.1737C88.2177 13.4568 88.7456 14.9045 89.0265 16.5169C89.1067 16.9777 88.7415 17.3861 88.2737 17.3861H84.1036C83.7148 17.3861 83.3888 17.0996 83.3063 16.7196C83.1305 15.9105 82.8571 15.1856 82.4862 14.5449C82.0162 13.7189 81.3467 13.078 80.4779 12.6223C79.6232 12.1523 78.5123 11.9174 77.1449 11.9174C75.9912 11.9174 74.9728 12.1452 74.0897 12.601C73.2066 13.0567 72.4659 13.7189 71.8677 14.5876C71.2695 15.4564 70.8137 16.5316 70.5003 17.8134C70.2012 19.0951 70.0517 20.562 70.0517 22.214V24.3075C70.0517 25.9738 70.2226 27.4549 70.5644 28.7509C70.9063 30.0326 71.3977 31.1149 72.0386 31.9979C72.6938 32.8667 73.4986 33.5289 74.4529 33.9846C75.4214 34.4261 76.5182 34.6469 77.7431 34.6469C78.8541 34.6469 79.7728 34.5543 80.4992 34.3691C81.2399 34.1698 81.831 33.9348 82.2725 33.6642C82.7141 33.3936 83.0559 33.1301 83.2981 32.8738V27.0419H77.906C77.4738 27.0419 77.1235 26.6916 77.1235 26.2595V23.5304C77.1235 23.0983 77.4738 22.748 77.906 22.748H89.1735Z" fill="white"/>
</svg>
