<svg width="239" height="110" viewBox="0 0 239 110" fill="none" xmlns="http://www.w3.org/2000/svg">
<path d="M30.6159 36.6152C24.6558 36.6152 19.586 40.4955 17.7895 45.8649C16.4461 45.4166 15.0121 45.1711 13.5247 45.1711C6.06666 45.1711 0 51.245 0 58.712V73.3845H9.95829V58.712C9.95829 56.7425 11.5576 55.1413 13.5247 55.1413C15.4918 55.1413 17.0911 56.7425 17.0911 58.712V73.3845H27.0494V50.1562C27.0494 48.1867 28.6487 46.5855 30.6159 46.5855C32.583 46.5855 34.1823 48.1867 34.1823 50.1562V73.3845H44.1406V50.1562C44.1406 42.6892 38.0739 36.6152 30.6159 36.6152Z" fill="white"/>
<path d="M86.7723 67.1137L86.7456 65.2776C85.7541 66.7347 84.0642 67.466 82.2889 67.466C79.6981 67.466 77.8909 65.774 77.8909 63.3562C77.8909 60.7302 79.5808 59.1289 82.9286 58.6059L86.6284 58.0241V57.7893C86.6284 56.2734 85.4662 55.4301 83.5417 55.4301C81.6172 55.4301 80.0766 56.2147 78.7065 57.469V54.1758C79.9593 53.1831 81.7079 52.4839 83.7709 52.4839C87.7319 52.4839 89.9176 54.5228 89.9176 57.9334V67.119H86.7723V67.1137ZM83.1046 64.7225C85.1997 64.7225 86.655 63.3241 86.655 61.3973V60.6074L83.4831 61.1305C81.9691 61.392 81.1534 62.0645 81.1534 63.084C81.1801 64.0767 81.9691 64.7172 83.1046 64.7172V64.7225Z" fill="white"/>
<path d="M96.7922 67.1149H93.4124V52.832H96.7922V54.7268C97.6665 53.3871 99.1485 52.4797 101.158 52.4797C104.623 52.4797 106.692 54.8122 106.692 58.5163V67.1149H103.312V59.1568C103.312 56.9418 102.176 55.5701 100.14 55.5701C98.1036 55.5701 96.7922 57.1446 96.7922 59.5945V67.1149Z" fill="white"/>
<path d="M116.557 52.4797C117.927 52.4797 119.265 52.832 120.374 53.4992V56.8511C119.265 56.0078 118.103 55.5701 116.85 55.5701C114.318 55.5701 112.426 57.4649 112.426 59.9734C112.426 62.482 114.292 64.3768 116.85 64.3768C118.188 64.3768 119.415 63.795 120.433 63.0958V66.4477C119.239 67.1202 117.901 67.4671 116.531 67.4671C112.106 67.4671 109.019 64.3181 109.019 59.9734C109.019 55.6288 112.132 52.4797 116.563 52.4797H116.557Z" fill="white"/>
<path d="M137.202 59.9734C137.202 64.174 133.972 67.4671 129.6 67.4671C125.229 67.4671 121.998 64.174 121.998 59.9734C121.998 55.7729 125.229 52.4797 129.6 52.4797C133.972 52.4797 137.202 55.7729 137.202 59.9734ZM125.351 59.9734C125.351 62.4233 127.217 64.3768 129.6 64.3768C131.983 64.3768 133.854 62.4233 133.854 59.9734C133.854 57.5236 131.989 55.5701 129.6 55.5701C127.212 55.5701 125.351 57.5236 125.351 59.9734Z" fill="white"/>
<path d="M68.9542 52.4782C66.9764 52.4782 65.1692 53.4123 64.119 54.8694V46.7085H60.7711V67.1133H64.119V65.1599C65.1692 66.617 66.9711 67.4656 68.9542 67.4656C72.8831 67.4656 75.9111 64.1724 75.9111 59.9719C75.9111 55.7714 72.8831 52.4782 68.9542 52.4782ZM68.2825 64.3699C65.8942 64.3699 64.0337 62.4164 64.0337 59.9666C64.0337 57.5167 65.8995 55.5632 68.2825 55.5632C70.6654 55.5632 72.5366 57.5167 72.5366 59.9666C72.5366 62.4164 70.6708 64.3699 68.2825 64.3699Z" fill="white"/>
<path d="M148.895 67.1144H145.516V52.8315H148.895V54.7263C149.652 53.3546 151.049 52.4792 152.974 52.4792C155.01 52.4792 156.524 53.472 157.313 55.1319C158.129 53.7602 159.669 52.4792 162.058 52.4792C165.347 52.4792 167.239 54.7797 167.239 58.3397V67.1144H163.86V58.9802C163.86 56.8826 162.9 55.5696 161.125 55.5696C159.35 55.5696 158.097 57.0587 158.07 59.3912V67.1144H154.69V59.0976C154.69 56.9093 153.731 55.5696 151.955 55.5696C150.18 55.5696 148.901 57.1121 148.901 59.5353V67.1144H148.895Z" fill="white"/>
<path d="M180.257 52.8271H183.637V67.11H180.257V65.2152C179.382 66.5549 177.9 67.4623 175.917 67.4623C172.537 67.4623 170.474 65.1298 170.474 61.4257V52.8271H173.854V60.7852C173.854 63.0002 174.99 64.3399 176.941 64.3399C178.892 64.3399 180.262 62.7974 180.262 60.3475V52.8271H180.257Z" fill="white"/>
<path d="M190.955 46.7036V67.1085H187.576V46.7036H190.955Z" fill="white"/>
<path d="M201.107 64.3703C201.629 64.3703 202.242 64.2262 202.679 63.9326V66.9376C202.125 67.2311 201.283 67.4607 200.115 67.4607C197.263 67.4607 195.541 65.6833 195.541 62.7104V55.6864H193.009V55.222L198.804 49.1267H198.889V52.8309H202.674V55.6864H198.889V62.1019C198.889 63.6764 199.587 64.3756 201.101 64.3756L201.107 64.3703Z" fill="white"/>
<path d="M211.193 52.8271H214.775L218.592 62.7387L222.436 52.8271H225.928L220.048 67.11H217.078L211.198 52.8271H211.193Z" fill="white"/>
<path d="M205.783 67.1144V52.8315H209.163V67.1144H205.783Z" fill="white"/>
<path d="M235.855 67.1132L235.828 65.2771C234.837 66.7342 233.147 67.4655 231.372 67.4655C228.781 67.4655 226.974 65.7735 226.974 63.3557C226.974 60.7297 228.664 59.1285 232.011 58.6054L235.711 58.0236V57.7888C235.711 56.2729 234.549 55.4296 232.624 55.4296C230.7 55.4296 229.159 56.2142 227.789 57.4685V54.1754C229.042 53.1826 230.791 52.4834 232.854 52.4834C236.815 52.4834 239 54.5223 239 57.9329V67.1185H235.855V67.1132ZM232.187 64.722C234.282 64.722 235.738 63.3236 235.738 61.3968V60.6069L232.566 61.13C231.052 61.3915 230.236 62.064 230.236 63.0835C230.263 64.0762 231.052 64.7167 232.187 64.7167V64.722Z" fill="white"/>
<path d="M207.453 50.7227C206.318 50.7227 205.385 49.7887 205.385 48.6518C205.385 47.5149 206.318 46.5542 207.453 46.5542C208.647 46.5542 209.548 47.5149 209.548 48.6518C209.548 49.7887 208.647 50.7227 207.453 50.7227Z" fill="white"/>
</svg>
