<svg width="142" height="55" viewBox="0 0 142 55" fill="none" xmlns="http://www.w3.org/2000/svg">
<g clip-path="url(#clip0_34_41189)">
<path fill-rule="evenodd" clip-rule="evenodd" d="M0 38.0227H23.0062V15H0V38.0227Z" fill="white"/>
<path fill-rule="evenodd" clip-rule="evenodd" d="M117.404 21.8864L119.335 21.5682V34.7159H117.404V21.8864ZM124.967 23.375V31.6591C124.967 33.0796 125.319 33.5682 126.488 33.5682C127.011 33.5682 126.875 33.5682 127.204 33.3977L127.465 34.6932C126.863 35.0227 126.647 35.125 125.819 35.125C125.194 35.125 124.728 35 124.274 34.7614C123.445 34.3182 123.127 33.5 123.127 32.2046V23.375H121.583V21.8523H123.127V16.9773H125.035V21.8523H128.01L127.442 23.375H124.967ZM140.229 34.3182C139.49 34.3182 138.889 33.6818 138.889 32.8068C138.889 31.9318 139.49 31.2955 140.229 31.2955C140.967 31.2955 141.569 31.9318 141.569 32.8068C141.569 33.6818 140.967 34.3182 140.229 34.3182ZM140.229 30.9318C139.252 30.9318 138.457 31.7727 138.457 32.8068C138.457 33.8409 139.252 34.6818 140.229 34.6818C141.205 34.6818 142 33.8409 142 32.8068C142 31.7727 141.205 30.9318 140.229 30.9318ZM139.922 32.6477V32.0341H140.251C140.444 32.0341 140.66 32.0796 140.66 32.3296C140.66 32.6137 140.467 32.6477 140.251 32.6477H139.922ZM141.035 32.3637C141.035 31.9205 140.774 31.7387 140.297 31.7387H139.547V33.8637H139.922V32.9432H140.149L140.671 33.8637H141.058L140.524 32.9318C140.853 32.8977 141.046 32.7273 141.046 32.3637H141.035ZM139.434 21.8523L135.357 35.1705C134.551 37.75 133.597 39.4546 131.519 40L130.974 38.6364C132.132 38.2387 132.745 37.6705 133.245 36.2727C133.052 35.2614 132.95 34.8182 132.95 34.8182C132.813 33.9887 132.166 31.4887 131.757 30.1932L129.202 22.1364L131.042 21.4659L133.472 29.8068C133.824 31.0227 134.187 33.0114 134.187 33.0114H134.233C134.233 33.0114 134.687 31.3637 134.971 30.2955L137.299 21.8523H139.422H139.434ZM82.0886 31.4318C82.0886 31.4318 81.8729 31.9773 81.3732 32.3637C80.6124 32.9546 80.0674 33.1932 79.0908 33.1932C78.0007 33.1932 77.2512 32.75 76.7062 31.6932C76.3201 30.9432 76.2292 29.8296 76.2292 28.3409C76.2292 26.5341 76.4223 25.6023 76.99 24.625C77.4897 23.75 78.2732 23.2841 79.2044 23.2841C80.6124 23.2841 81.4868 23.7273 82.0886 24.625V31.4432V31.4318ZM83.9736 16.9773H82.1113V21.2614C82.1113 22.1932 82.1341 23.25 82.1341 23.25C81.4187 22.2159 80.2491 21.625 78.9205 21.625C78.0574 21.625 77.3988 21.8523 76.638 22.4205C75.0142 23.6364 74.1852 25.6477 74.1852 28.3864C74.1852 32.4887 75.9453 34.8977 79.0113 34.8977C80.3967 34.8977 81.2938 34.4659 82.1568 33.3977C82.1795 34.0682 82.4179 34.7159 82.4179 34.7159H84.3257C84.0645 33.9659 83.9736 32.7727 83.9736 30.5568V16.9773ZM112.317 21.875H115.383L114.815 23.3977H112.249V31.6818C112.249 33.1023 112.601 33.5909 113.77 33.5909C114.293 33.5909 114.156 33.5909 114.486 33.4091L114.747 34.7046C114.145 35.0341 113.929 35.1364 113.1 35.1364C112.487 35.1364 112.01 35.0114 111.556 34.7727C110.727 34.3296 110.409 33.5114 110.409 32.2159V23.3864H108.865V21.8637H110.409V17H112.317V21.875ZM106.912 23.4432C107.105 23.9091 107.196 24.4205 107.196 24.9432V34.7046H105.311V26C105.311 24.625 105.22 24.2955 104.879 23.8523C104.618 23.5227 104.118 23.3068 103.573 23.3068C102.619 23.3068 101.143 24.1364 100.291 25.1137V34.6932H98.4859V24.7727C98.4859 22.9432 98.0317 22.0568 98.0317 22.0568L99.8372 21.5114C99.8372 21.5114 100.269 22.4659 100.269 23.5227C101.506 22.1818 102.744 21.5341 104.005 21.5341C105.265 21.5341 106.435 22.2841 106.912 23.4205V23.4432ZM88.5272 27.0909C88.618 24.4318 89.5719 23.0909 91.2638 23.0909C92.1723 23.0909 93.0012 23.5341 93.41 24.2273C93.762 24.8523 93.9324 25.7046 93.9551 27.0909H88.5272ZM91.366 21.5114C89.9353 21.5114 88.7656 22.0796 87.8231 23.2955C86.8239 24.5909 86.3924 25.9773 86.3924 28.1477C86.3924 32.4091 88.3682 34.9887 91.6499 34.9887C93.1716 34.9887 94.6024 34.4205 95.6471 33.3864L94.9317 32.0909C94.1027 32.9205 93.1716 33.3068 92.0247 33.3068C90.8778 33.3068 89.7422 32.8409 89.0722 31.7273C88.6634 31.0568 88.5272 30.125 88.5272 28.9091V28.6023H95.9309V28.3182C95.8855 25.25 95.6016 24.0341 94.5796 22.8977C93.7734 22 92.6492 21.5 91.366 21.5V21.5114ZM69.6885 34.7046H71.5962V16.9887H69.6885V34.7046Z" fill="white"/>
<path fill-rule="evenodd" clip-rule="evenodd" d="M67.6898 21.2727L69.0298 23.4318C68.3371 24.1136 67.6671 24.3977 66.7814 24.3977C66.4748 24.3977 66.1341 24.3522 65.9411 24.3181C66.418 24.9204 66.6679 25.5908 66.6679 26.4545C66.6679 28.6931 64.7488 30.3181 62.137 30.3181C61.9894 30.3181 61.8986 30.3181 61.6601 30.2954C60.8425 30.7045 60.3883 31.0113 60.3883 31.3636C60.3883 31.5454 60.5813 31.6704 60.9106 31.6704L62.6367 31.6931C64.5103 31.7158 65.4869 32.0227 66.3499 32.8636C67.0653 33.5795 67.406 34.4658 67.406 35.6363C67.406 36.7272 67.088 37.5681 66.418 38.3295C65.3393 39.5454 63.4883 40.0113 61.5693 40.0113C59.8205 40.0113 58.0264 39.7045 56.9135 38.6136C56.2435 37.9545 55.9029 37.1931 55.9029 36.3068C55.9029 35.5908 56.0732 35.2386 56.1868 34.9886H59.1619C59.037 35.2954 59.0143 35.4658 59.0143 35.8295C59.0143 36.8749 59.8319 37.4318 61.3194 37.4318C62.137 37.4318 62.8297 37.3295 63.3294 36.9999C63.8063 36.6931 64.1242 36.2158 64.1242 35.6818C64.1242 34.5113 63.1477 34.159 61.8645 34.1363L60.5018 34.1136C59.0597 34.0908 58.1286 33.9658 57.5494 33.7045C56.9703 33.4772 56.6183 32.8977 56.6183 31.9999C56.6183 31.159 56.8567 30.3749 58.8667 29.8181C57.0952 29.3295 56.2322 28.1363 56.2322 26.2045C56.2322 23.534 58.2762 21.8068 61.4103 21.8068C62.103 21.8068 62.7275 21.909 63.6132 22.1363C64.2832 22.3181 64.7147 22.4204 65.1235 22.4204C66.0092 22.4204 66.9177 22.0113 67.6671 21.2954L67.6898 21.2727ZM47.3068 21.6818C47.5907 22.2158 47.761 22.7727 47.761 23.3068C48.2379 22.9545 48.6467 22.6477 49.1805 22.3408C49.8277 21.9886 50.668 21.784 51.3834 21.784C52.7461 21.784 53.9497 22.5454 54.3358 23.659C54.5062 24.1363 54.5743 24.7045 54.5743 25.5113V35.0113H51.4061V26.5454C51.4061 25.0681 51.1677 24.6363 50.3274 24.6363C49.6801 24.6363 48.8398 25.0908 48.1017 25.8068V35.0113H44.8881V25.5795C44.8881 24.4658 44.7405 23.3977 44.4566 22.534L47.3068 21.6704V21.6818ZM42.265 21.7045V35.0227H39.0514V22.2386L42.265 21.7045ZM30.6824 17.3636C33.5099 17.3636 34.3729 17.6704 35.3154 18.2272C36.8711 19.1477 37.7114 20.7727 37.7114 22.8068C37.7114 25.1477 36.6554 27.0227 34.8385 27.9431C34.0663 28.3295 33.3509 28.5227 31.5 28.5227H29.6491V35.0227H26.2878V17.3636H30.6711H30.6824ZM61.3989 24.2727C60.1725 24.2727 59.4799 24.9886 59.4799 26.2045C59.4799 27.5227 60.252 28.0568 61.3762 28.0568C62.648 28.0568 63.3407 27.3977 63.3407 26.2045C63.3407 25.0113 62.6253 24.2727 61.3989 24.2727ZM31.7839 20.2272H29.6491V25.6136H31.3978C32.7605 25.6136 33.1693 25.4318 33.6235 24.6931C33.9074 24.2158 34.0323 23.7045 34.0323 22.8636C34.0323 21.2158 33.192 20.2158 31.7725 20.2158L31.7839 20.2272ZM40.7093 16.3181C41.788 16.3181 42.6511 17.2613 42.6511 18.4318C42.6511 19.6022 41.7653 20.5454 40.6639 20.5454C39.5624 20.5454 38.6994 19.6022 38.6994 18.4318C38.6994 17.2613 39.6078 16.3181 40.7093 16.3181Z" fill="white"/>
</g>
<defs>
<clipPath id="clip0_34_41189">
<rect width="142" height="25" fill="white" transform="translate(0 15)"/>
</clipPath>
</defs>
</svg>
