<svg width="210" height="110" viewBox="0 0 210 110" fill="none" xmlns="http://www.w3.org/2000/svg">
<g clip-path="url(#clip0_7_354)">
<path d="M132.736 60.0459L129.826 53.2934L126.931 60.0459L126.729 60.5051H132.923L132.736 60.0459ZM131.776 48.3124L140.582 68.3326H136.288L134.474 64.1438H125.209L125.077 64.4315L123.375 68.3326H119.197L128.088 48.1963H131.66L131.776 48.3124ZM160.347 62.0646L155.764 48.2013H152.42L147.837 62.0646L143.397 48.2013H139.047L146.079 68.3376H149.459L154.041 55.1102L158.624 68.3376H162.039L169.057 48.2013H164.808L160.347 62.0646ZM176.397 59.6876H183.849V56.0085H176.397V51.8703H187.204V48.2165H172.366V68.3376H187.598V64.6687H176.397V59.6724V59.6876ZM192.463 48.2165V68.3224H196.505V48.2013L192.463 48.2165ZM89.9849 56.3164H80.7495V48.2013H76.6572V68.3527H80.7495V60.162H89.9849V68.3527H94.0771V48.2013H89.9849V56.3214V56.3164ZM113.038 48.1963H117.125V59.5665C117.125 65.3399 113.942 68.6505 108.395 68.6505C102.848 68.6505 99.7507 65.3954 99.7507 59.728V48.2114H103.843V59.5967C103.843 62.9629 105.5 64.7645 108.456 64.7645C111.411 64.7645 113.038 63.0083 113.038 59.7179V48.2013V48.1963Z" fill="white"/>
<path d="M43.7623 66.208C43.7945 66.2293 43.8323 66.2406 43.8709 66.2406C43.9095 66.2406 43.9473 66.2293 43.9795 66.208C46.3136 65.0422 56.0391 60.1066 60.0606 56.1752C61.624 54.8185 62.5866 52.899 62.7383 50.8358C63.0262 46.2938 58.4288 42.0395 58.4288 42.0395C52.6061 49.4067 47.659 57.424 43.6865 65.9305C43.6752 65.9758 43.6758 66.0233 43.6882 66.0684C43.7006 66.1135 43.7243 66.1546 43.7572 66.1878M66.1081 55.5898C66.1081 55.5898 52.2449 63.0337 45.0708 67.8684C45.034 67.8932 45.0058 67.929 44.9904 67.9706C44.975 68.0123 44.9731 68.0577 44.9849 68.1005C44.9849 68.1005 45.0556 68.2317 45.1567 68.2317C47.7232 68.2317 57.4335 68.2318 57.6911 68.2015C58.6552 68.1319 59.6027 67.914 60.5002 67.5555C62.8488 66.6341 64.735 64.8189 65.7443 62.5088C66.7041 60.3162 66.8316 57.8494 66.103 55.5696M45.4346 69.4429C45.3959 69.4503 45.3592 69.4659 45.327 69.4885C45.2947 69.5111 45.2677 69.5403 45.2476 69.5742C45.2378 69.6121 45.2378 69.6519 45.2475 69.6898C45.2572 69.7277 45.2764 69.7626 45.3032 69.7912C46.8593 70.9115 51.5982 74.2222 53.8919 74.8379C53.8919 74.8379 58.1155 76.2762 61.7733 69.988L45.4497 69.4278L45.4346 69.4429ZM41.5747 64.9009C41.6172 64.9174 41.6644 64.9178 41.7072 64.902C41.75 64.8862 41.7855 64.8553 41.8071 64.8151C43.3632 62.5694 50.4362 52.0874 51.8609 45.7235C51.8609 45.7235 52.639 42.6451 51.8912 40.5406C51.4984 39.3099 50.7969 38.2 49.8533 37.3166C48.9097 36.4333 47.7555 35.8058 46.5006 35.4939C46.5006 35.4939 45.2628 35.176 43.9341 34.9893C43.9341 34.9893 39.0941 41.2068 41.4534 64.6991C41.4488 64.7387 41.4578 64.7788 41.4789 64.8127C41.5 64.8466 41.532 64.8724 41.5696 64.8858M36.1638 35.0044C35.4565 35.0599 33.5417 35.5091 33.5417 35.5091C32.2951 35.8278 31.1503 36.4583 30.2151 37.3412C29.28 38.2242 28.5853 39.3304 28.1965 40.5557C27.4033 43.0185 28.1965 45.7387 28.1965 45.7387C29.6364 52.1278 36.7246 62.6501 38.2554 64.8555C38.3565 64.9716 38.4423 64.9262 38.4423 64.9262C38.4865 64.9134 38.5254 64.887 38.5535 64.8507C38.5817 64.8144 38.5976 64.7702 38.599 64.7243C40.9634 41.232 36.1487 35.0145 36.1487 35.0145M35.0877 68.1207C35.1736 67.9895 35.0321 67.8785 35.0321 67.8785C27.8732 63.0438 13.9797 55.615 13.9797 55.615C13.5206 57.0244 13.3928 58.5206 13.6064 59.9873C13.8199 61.454 14.369 62.8518 15.211 64.0721C16.053 65.2925 17.1652 66.3026 18.4614 67.024C19.7575 67.7454 21.2027 68.1587 22.6846 68.2317C22.9271 68.2772 32.3797 68.2317 34.9159 68.2317C34.9841 68.2214 35.0456 68.1853 35.0877 68.1308M34.8452 69.5843C34.8292 69.54 34.7995 69.502 34.7605 69.4757C34.7214 69.4494 34.675 69.4362 34.628 69.4379L18.3145 69.9981C20.0878 73.1523 23.0686 75.5948 26.1656 74.8479C28.3127 74.313 33.1527 70.9317 34.7543 69.8013C34.8856 69.7003 34.8401 69.6145 34.8401 69.5994M36.3558 66.2333C36.3843 66.2091 36.4042 66.1764 36.4124 66.1399C36.4206 66.1035 36.4167 66.0654 36.4013 66.0314C32.4353 57.4903 27.4807 49.4431 21.6388 42.0546C21.6388 42.0546 17.0009 46.4604 17.3293 50.8762C17.4069 51.8945 17.6847 52.8875 18.1468 53.7985C18.6088 54.7094 19.2461 55.5205 20.0221 56.1853C24.0638 60.1268 33.8701 65.1079 36.1436 66.2484C36.1803 66.2628 36.2204 66.2662 36.259 66.2582C36.2976 66.2501 36.333 66.2309 36.3608 66.203" fill="white"/>
</g>
<defs>
<clipPath id="clip0_7_354">
<rect width="183" height="40" fill="white" transform="translate(13.5 35)"/>
</clipPath>
</defs>
</svg>
