<svg width="210" height="110" viewBox="0 0 210 110" fill="none" xmlns="http://www.w3.org/2000/svg">
<g clip-path="url(#clip0_21_1347530)">
<path d="M205.709 41.2081V42.5188H205.334V39.5247H206.46C206.838 39.5247 207.402 39.7111 207.402 40.2732C207.402 40.6475 207.214 40.8338 206.838 41.0218C207.213 41.0218 207.213 41.2081 207.402 41.5823C207.402 41.9566 207.402 42.3308 207.589 42.5188H207.025V41.9566C206.838 41.7703 206.838 41.396 206.838 41.396C206.647 41.2081 206.46 41.2081 206.271 41.2081H205.709ZM205.709 40.8338H206.46C206.838 40.8338 207.027 40.6475 207.027 40.2732C207.027 40.0869 206.84 39.899 206.46 39.899H205.709V40.8338ZM116.919 46.2581C116.919 46.0718 118.802 48.1294 118.802 48.1294V64.5918C118.802 65.7146 122.375 68.7086 123.505 68.895C124.256 68.1481 126.703 66.2784 129.147 64.5918C130.839 67.0253 133.286 68.1481 135.166 68.895L135.733 68.1481C135.733 68.1481 133.85 64.5918 133.85 63.4707V45.6975C133.85 45.5112 131.97 43.452 131.031 43.0777L127.267 46.0718C127.267 46.0718 129.147 47.5688 129.147 47.9431V63.4707C129.147 63.4707 127.454 64.5902 126.516 64.9677C125.949 65.154 123.694 63.098 123.694 62.3479V46.0718C123.694 45.6975 121.435 43.6399 120.496 43.2657L116.919 46.2581ZM59.7342 45.6975C60.8632 46.0718 62.9321 48.3157 64.4373 48.3157C64.8136 48.3157 65.3789 48.1294 66.1299 47.7551C67.1631 46.9168 68.1085 45.9766 68.9514 44.949L68.3878 44.3868C68.3878 44.3868 67.0715 45.5096 66.5062 45.1353C65.3789 44.3868 63.8737 43.0777 63.121 42.1413C61.6158 42.7035 59.1706 44.2005 57.478 45.6959C56.7254 46.2565 55.4091 47.1929 54.6565 48.1278C53.3402 58.2295 64.6263 56.7324 64.8153 63.8433C64.8153 64.4039 64.8153 65.3403 64.439 65.713C63.6863 65.8993 63.1227 65.713 62.3701 65.3403C61.4285 64.7798 60.1122 64.0296 58.6069 63.657C57.6654 63.4707 56.3491 63.8433 55.4091 64.4039C54.0912 65.5266 52.5876 67.5842 52.5876 67.5842L53.3402 67.9601C54.0928 67.0237 55.0328 66.2768 55.5981 66.2768C57.1033 66.6494 58.9849 68.1464 60.3012 69.2708C60.8664 69.2708 64.2516 67.3979 66.6968 64.9677C67.4495 64.0312 68.5784 62.5342 68.5784 61.9736C69.142 52.2446 58.6086 54.4901 58.6086 46.6324C58.6068 46.0718 58.9816 45.5112 59.7342 45.6975ZM48.4482 44.2005C47.5066 43.6383 47.5066 42.7035 47.6955 41.5807C44.874 43.2657 39.6073 47.3809 38.6657 48.1294C37.9131 48.6916 36.9731 49.4401 36.9731 50.0007C36.7841 53.369 36.7841 61.2251 36.9731 64.9677C37.1604 66.0872 41.8635 69.2708 43.1814 69.2708C43.3688 69.4571 47.5082 66.8374 47.5082 66.8374C49.2024 65.9009 51.2713 64.4039 51.4586 63.8433C52.0223 60.1024 51.835 48.69 51.6476 46.6307C51.457 46.2581 49.5771 44.7611 48.4482 44.2005ZM46.7556 65.3419C46.7556 65.7146 46.7556 65.9025 46.5666 66.0888C45.6266 65.9025 44.4977 65.1556 43.1814 64.2192C42.4288 63.6586 41.6762 63.0997 41.6762 62.7222C41.6762 60.2919 41.6762 51.4977 41.8635 47.9431C41.8635 47.3809 42.0525 46.8203 42.2398 46.446C43.3671 46.8187 45.4377 47.5688 46.3776 48.5053C46.565 48.6916 46.7539 49.0658 46.7539 49.0658C47.1319 52.9931 47.1318 61.601 46.7556 65.3419ZM200.064 44.0142C199.126 43.6399 199.126 42.5172 199.313 41.3944C196.492 43.0777 191.601 46.8187 190.471 47.9431C189.717 48.5053 188.591 49.2522 188.591 50.0007C188.404 53.369 188.404 61.0372 188.591 64.7814C188.778 65.9009 193.481 69.0813 194.799 69.2708C194.987 69.2708 199.126 66.8374 199.126 66.8374C200.819 65.7146 202.887 64.2176 203.075 63.657C203.642 59.9128 203.449 48.5036 203.262 46.6324C203.075 46.0718 201.193 44.7611 200.064 44.0142ZM198.372 65.3419V65.9025C197.243 65.7162 196.115 64.9693 194.799 64.2192C194.045 63.6586 193.294 62.9085 193.294 62.7222C193.294 60.1056 193.294 51.4977 193.481 47.9431C193.481 47.3809 193.669 46.8203 193.669 46.2581C194.987 46.6324 197.054 47.3809 197.995 48.3157C198.37 48.69 198.37 49.0642 198.37 49.0642C198.746 52.8068 198.935 61.4114 198.372 65.3419ZM29.0738 36.9049C27.1923 39.1505 27.5686 44.949 27.5686 49.4401C27.3796 53.5553 27.5686 60.4782 27.5686 64.2192C27.3796 72.4528 24.5581 76.0058 22.6765 76.0058C18.5387 76.0058 16.4698 72.2616 15.3409 69.4588C14.023 66.2784 12.8957 63.6586 11.0141 62.9085C10.2631 62.7222 9.13418 62.7222 8.38156 63.4723C7.62893 64.0329 6.5 65.5299 6.5 65.5299C8.75787 65.7162 10.0741 68.8966 11.2031 71.5164C12.7067 75.6332 15.9062 78.9999 19.104 78.9999C23.6181 78.8136 29.6375 73.0134 31.8953 68.7086C33.7769 64.9677 33.2116 51.872 33.2116 45.137C33.0243 37.4671 33.5879 34.4731 35.8458 32.4155L35.6568 32.2275C33.2116 32.9761 30.3901 35.22 29.0738 36.9049Z" fill="white"/>
<path d="M21.5476 72.6376C23.6165 70.5784 24.5581 67.7739 24.5581 64.7798V44.0126C24.5581 40.8323 25.3107 39.1489 26.816 37.0913V36.9034C24.1818 38.961 22.1129 41.3929 22.1129 45.8823V66.6495C22.2847 68.6752 22.0289 70.7143 21.3619 72.636H21.5476V72.6376ZM31.3301 32.0397C30.3901 32.4139 29.2612 32.6019 27.5686 32.6019C25.4981 32.4156 20.984 30.5427 17.9751 31.1049C14.0247 32.226 11.2031 35.408 11.2031 37.0913C11.2031 38.7747 13.0831 39.3353 13.0831 39.3353L13.6483 38.7747C13.6483 38.7747 12.3304 35.9686 13.6483 34.6579C15.3409 33.1608 19.2914 34.6579 21.1729 35.2184C22.3019 35.5927 24.3708 35.7806 25.687 35.4064C28.3212 34.6579 31.5191 32.2244 31.5191 32.2244L31.3301 32.0397ZM102.248 69.8315C104.693 67.398 106.198 64.9678 106.198 60.6646V44.7628C106.198 38.59 107.327 36.905 108.832 35.2217V74.1363C101.308 71.3301 98.8625 63.286 98.8625 54.1176C98.8625 44.3885 100.742 37.093 108.832 31.855L108.643 31.4807C104.129 33.352 98.6736 37.8415 96.4173 40.8339C94.1595 44.0143 92.8432 49.8128 92.8432 56.7341C92.8432 67.7739 98.2989 78.812 111.092 78.812C119.931 78.812 124.633 71.7012 124.633 71.7012L124.258 71.3285C122.189 73.3861 119.367 75.0695 114.29 75.0695C112.597 75.0695 110.905 74.8831 109.776 74.5089V34.8474C110.527 34.6595 111.281 34.8474 112.032 35.0337C114.291 35.5959 114.853 36.1565 117.3 36.1565C118.805 36.1565 120.685 35.2201 121.624 34.4732C122.753 33.5367 124.071 32.4156 124.071 32.4156L123.883 32.0413C123.883 32.0413 122.565 32.7898 121.062 32.7898C118.615 32.7898 114.666 29.9837 112.219 31.8534L108.834 34.6595C104.884 37.6535 103.567 41.2082 103.567 45.5113C103.755 50.563 103.567 60.4783 103.567 62.348C103.755 64.7815 103.755 67.5843 102.062 69.2709L102.248 69.8315ZM85.317 48.6917C85.5043 48.6917 81.5538 44.0143 80.0502 42.5172C80.0502 42.5172 77.794 43.6384 75.9108 45.1354C73.0909 47.381 71.2077 48.69 71.2077 49.0643V64.5903C71.3951 65.713 76.0981 68.8934 78.9197 69.4572C79.1086 69.4572 82.3065 67.2101 82.1175 67.398C82.3065 67.2117 82.6828 66.8374 82.8701 66.8374C83.5353 66.1874 84.226 65.5637 84.9407 64.9678L84.3754 64.2176C83.0591 65.3404 81.7428 66.0873 80.9902 65.901C78.9197 64.9678 75.9108 63.0981 75.9108 62.7206V57.8569C77.794 56.1736 84.566 50.375 85.317 48.6917ZM76.8524 46.4461C77.2287 46.4461 80.9918 50.9356 80.9918 51.1235C80.9918 51.6857 77.794 54.6782 75.9124 56.5478V48.5053C75.9124 46.4461 76.0998 46.4461 76.8524 46.4461ZM152.284 48.5037C152.284 48.3158 148.523 43.6384 146.83 42.1414C146.83 42.1414 144.571 43.4521 142.878 44.7612C139.867 47.193 137.988 48.3158 137.988 48.69V64.404C138.175 65.5267 143.065 68.5208 145.7 69.0814C145.887 69.0814 149.272 66.8374 148.897 67.0238C149.272 66.8374 149.461 66.6511 149.652 66.4632L151.908 64.5903L151.344 63.8434C150.026 64.9662 148.71 65.901 147.768 65.5267C145.888 64.5903 142.878 62.9069 142.878 62.3464V57.4826C144.76 55.8009 151.533 50.0008 152.284 48.5037ZM143.632 46.0719C144.196 46.0719 147.956 50.7493 147.956 50.9356C147.956 51.4978 144.571 54.3039 142.878 56.1736V48.1295C142.878 46.0719 143.067 46.0719 143.632 46.0719ZM164.324 42.3293C162.632 44.3869 161.127 45.8839 160.185 47.193C159.998 46.4445 158.116 44.0126 156.8 42.8899L153.227 46.0702C153.227 46.0702 155.296 48.1279 155.296 48.69V65.5267C155.296 66.2769 157.93 68.7071 159.061 69.0797L162.634 66.4632C162.634 66.4632 160.187 64.404 160.187 64.0297V48.69C160.187 48.69 161.128 47.5673 161.879 47.0067C162.634 47.193 165.08 50.7477 165.08 50.7477C165.08 50.7477 168.278 47.193 167.711 46.2582C167.146 45.3234 165.453 43.6384 164.324 42.3293ZM185.202 47.1946C184.828 43.2658 182.572 42.5172 182.572 39.8991C182.572 39.1506 182.759 38.402 183.323 37.093L183.135 36.7187C180.692 38.2157 178.999 40.087 178.999 41.9567C178.808 44.2022 180.125 45.137 180.314 46.8204C180.692 50.7493 180.881 58.4223 180.126 63.6587C180.126 64.5919 179.939 65.342 179.752 65.9026C178.668 65.0893 177.538 64.3401 176.366 63.6587C176.179 63.4724 175.803 63.286 175.238 63.0981V45.6976C175.05 45.3234 172.603 42.8915 172.416 42.8915L168.843 45.6976L170.536 47.5689C170.536 50.9356 170.723 60.851 170.349 63.0981C170.349 64.0313 169.785 64.7815 169.22 65.5284V65.7147C170.349 65.7147 171.667 66.2785 173.359 67.2117C176.37 69.0814 176.557 69.4589 176.744 69.4589L179.942 67.0254C181.635 65.9026 184.645 63.2844 184.833 63.0981C185.393 58.9813 185.393 50.7493 185.202 47.1946Z" fill="white"/>
</g>
<defs>
<clipPath id="clip0_21_1347530">
<rect width="197" height="48" fill="white" transform="translate(6.5 31)"/>
</clipPath>
</defs>
</svg>
