<svg width="308" height="49" viewBox="0 0 308 49" fill="none" xmlns="http://www.w3.org/2000/svg">
<path d="M287.018 0C287.57 0 288.018 0.447715 288.018 1V40.9685C288.018 41.5208 287.57 41.9685 287.018 41.9685H281.809C281.257 41.9685 280.809 41.5208 280.809 40.9685V0.999999C280.809 0.447715 281.257 0 281.809 0H287.018ZM304.302 12.424C305.165 12.424 305.623 13.4442 305.049 14.089L293.67 26.8686L286.707 33.9407L284.414 28.3431L289.793 21.5713L297.522 12.7644C297.712 12.548 297.986 12.424 298.274 12.424H304.302ZM299.695 41.9685C299.36 41.9685 299.047 41.8009 298.862 41.5221L290.011 28.2066L294.817 23.5373L306.435 40.4012C306.892 41.0646 306.417 41.9685 305.611 41.9685H299.695Z" fill="#FF6213"/>
<path d="M267.867 18.4576V40.9676C267.867 41.5199 267.419 41.9676 266.867 41.9676H261.658C261.106 41.9676 260.658 41.5199 260.658 40.9676V13.4231C260.658 12.8708 261.106 12.4231 261.658 12.4231H266.546C267.073 12.4231 267.51 12.8332 267.544 13.3598L267.867 18.4576ZM276.85 12.2319L276.741 18.9491C276.34 18.8763 275.885 18.8216 275.376 18.7852C274.884 18.7488 274.42 18.7306 273.983 18.7306C272.873 18.7306 271.899 18.8854 271.061 19.1948C270.224 19.4861 269.523 19.9139 268.959 20.4782C268.413 21.0425 267.994 21.7342 267.703 22.5534C267.412 23.3544 267.248 24.2645 267.211 25.2839L265.655 25.0928C265.655 23.2178 265.846 21.4794 266.228 19.8775C266.611 18.2755 267.166 16.8739 267.894 15.6724C268.622 14.471 269.532 13.5426 270.625 12.8873C271.735 12.2137 273.009 11.877 274.447 11.877C274.848 11.877 275.276 11.9134 275.731 11.9862C276.204 12.0408 276.577 12.1227 276.85 12.2319Z" fill="#FF6213"/>
<path d="M246.896 35.6873V22.0619C246.896 21.0607 246.723 20.196 246.377 19.4679C246.031 18.7397 245.503 18.1754 244.794 17.7749C244.084 17.3745 243.183 17.1742 242.09 17.1742C241.126 17.1742 240.279 17.338 239.551 17.6657C238.841 17.9934 238.295 18.4576 237.913 19.0583C237.705 19.3749 237.554 19.7183 237.459 20.0887C237.322 20.6237 236.891 21.0789 236.339 21.0789H231.103C230.551 21.0789 230.096 20.6291 230.17 20.0819C230.287 19.2249 230.556 18.4013 230.977 17.6111C231.559 16.5007 232.388 15.5177 233.462 14.6621C234.554 13.7883 235.856 13.1057 237.366 12.6142C238.896 12.1227 240.607 11.877 242.5 11.877C244.739 11.877 246.732 12.2592 248.48 13.0238C250.246 13.7701 251.629 14.8988 252.63 16.4097C253.65 17.9206 254.159 19.8228 254.159 22.1165V35.0047C254.159 36.4792 254.25 37.7443 254.432 38.8001C254.633 39.8378 254.924 40.7388 255.306 41.5034V41.9676H247.961C247.615 41.2212 247.351 40.2746 247.169 39.1278C246.987 37.9628 246.896 36.816 246.896 35.6873ZM247.906 23.9733L247.961 28.2602H243.401C242.272 28.2602 241.28 28.3786 240.425 28.6152C239.569 28.8337 238.868 29.1613 238.322 29.5982C237.776 30.0169 237.366 30.5266 237.093 31.1273C236.82 31.7098 236.684 32.3743 236.684 33.1206C236.684 33.8488 236.848 34.5041 237.175 35.0866C237.521 35.6691 238.013 36.1333 238.65 36.4792C239.305 36.8068 240.07 36.9707 240.943 36.9707C242.218 36.9707 243.328 36.7158 244.275 36.2061C245.221 35.6782 245.959 35.0411 246.486 34.2947C247.014 33.5484 247.297 32.8385 247.333 32.1649L249.408 35.2777C249.153 36.0241 248.771 36.816 248.261 37.6533C247.752 38.4907 247.096 39.2734 246.295 40.0016C245.494 40.7297 244.53 41.3305 243.401 41.8038C242.272 42.277 240.962 42.5137 239.469 42.5137C237.558 42.5137 235.846 42.1314 234.336 41.3669C232.825 40.6023 231.632 39.5556 230.759 38.2267C229.885 36.8979 229.448 35.387 229.448 33.694C229.448 32.1285 229.739 30.745 230.322 29.5436C230.904 28.3422 231.769 27.3319 232.916 26.5127C234.063 25.6753 235.482 25.0473 237.175 24.6286C238.886 24.1917 240.843 23.9733 243.046 23.9733H247.906Z" fill="#FF6213"/>
<path d="M216.969 34.9504V13.4233C216.969 12.8711 217.417 12.4233 217.969 12.4233H223.233C223.785 12.4233 224.233 12.8711 224.233 13.4233V41.9679H217.406L216.969 34.9504ZM217.898 28.8339L220.137 28.7793C220.137 30.7635 219.918 32.593 219.481 34.2677C219.044 35.9425 218.362 37.3987 217.433 38.6366C216.523 39.8562 215.367 40.8119 213.966 41.5037C212.564 42.1772 210.907 42.514 208.996 42.514C207.54 42.514 206.211 42.3137 205.009 41.9132C203.808 41.4946 202.77 40.8483 201.897 39.9746C201.041 39.0826 200.377 37.9449 199.903 36.5614C199.43 35.1597 199.193 33.4759 199.193 31.5099V13.4233C199.193 12.8711 199.641 12.4233 200.193 12.4233H205.402C205.954 12.4233 206.402 12.8711 206.402 13.4233V31.5645C206.402 32.5475 206.511 33.3666 206.73 34.022C206.966 34.6773 207.285 35.2143 207.685 35.633C208.104 36.0335 208.586 36.3247 209.133 36.5068C209.697 36.6706 210.298 36.7525 210.935 36.7525C212.682 36.7525 214.057 36.4066 215.058 35.7149C216.077 35.005 216.805 34.0584 217.242 32.8751C217.679 31.6737 217.898 30.3266 217.898 28.8339Z" fill="#FF6213"/>
<path d="M182.701 36.3718L192.353 44.0335C192.843 44.4226 192.859 45.161 192.387 45.5715L189.12 48.412C188.755 48.7291 188.215 48.7399 187.838 48.4378L178.059 40.6041L182.701 36.3718ZM193.487 21.0807V23.1286C193.487 26.1322 193.086 28.8354 192.285 31.2383C191.484 33.623 190.337 35.6527 188.845 37.3274C187.37 39.0022 185.613 40.2855 183.575 41.1775C181.536 42.0695 179.279 42.5155 176.803 42.5155C174.345 42.5155 172.088 42.0695 170.031 41.1775C167.992 40.2855 166.227 39.0022 164.734 37.3274C163.241 35.6527 162.085 33.623 161.266 31.2383C160.447 28.8354 160.037 26.1322 160.037 23.1286V21.0807C160.037 18.0589 160.438 15.3556 161.239 12.971C162.058 10.5863 163.205 8.55658 164.679 6.88185C166.172 5.18891 167.938 3.89645 169.977 3.00447C172.034 2.11249 174.291 1.6665 176.748 1.6665C179.224 1.6665 181.481 2.11249 183.52 3.00447C185.577 3.89645 187.343 5.18891 188.817 6.88185C190.31 8.55658 191.457 10.5863 192.258 12.971C193.077 15.3556 193.487 18.0589 193.487 21.0807ZM185.896 23.1286V21.0261C185.896 18.8598 185.695 16.9576 185.295 15.3192C184.894 13.6627 184.294 12.2701 183.493 11.1415C182.71 10.0129 181.754 9.16641 180.626 8.60209C179.497 8.01958 178.205 7.72832 176.748 7.72832C175.31 7.72832 174.027 8.01958 172.898 8.60209C171.77 9.16641 170.814 10.0129 170.031 11.1415C169.248 12.2701 168.648 13.6627 168.229 15.3192C167.829 16.9576 167.628 18.8598 167.628 21.0261V23.1286C167.628 25.2766 167.829 27.1789 168.229 28.8354C168.648 30.492 169.248 31.8937 170.031 33.0405C170.832 34.1691 171.797 35.0247 172.926 35.6072C174.072 36.1897 175.365 36.481 176.803 36.481C178.259 36.481 179.552 36.1897 180.68 35.6072C181.809 35.0247 182.756 34.1691 183.52 33.0405C184.303 31.8937 184.894 30.492 185.295 28.8354C185.695 27.1789 185.896 25.2766 185.896 23.1286Z" fill="#FF6213"/>
<path d="M152.948 0.0283203C153.501 0.0283203 153.948 0.476036 153.948 1.02832V40.9695C153.948 41.5218 153.501 41.9695 152.948 41.9695H147.712C147.16 41.9695 146.712 41.5218 146.712 40.9695V1.02832C146.712 0.476037 147.16 0.0283203 147.712 0.0283203H152.948Z" fill="white"/>
<path d="M132.541 35.6873V22.0619C132.541 21.0607 132.368 20.196 132.022 19.4679C131.676 18.7397 131.148 18.1754 130.438 17.7749C129.728 17.3745 128.827 17.1742 127.735 17.1742C126.77 17.1742 125.924 17.338 125.196 17.6657C124.486 17.9934 123.94 18.4576 123.557 19.0583C123.35 19.3749 123.198 19.7183 123.103 20.0887C122.966 20.6237 122.536 21.0789 121.984 21.0789H116.748C116.196 21.0789 115.74 20.6291 115.815 20.0819C115.931 19.2249 116.2 18.4013 116.622 17.6111C117.204 16.5007 118.032 15.5177 119.106 14.6621C120.199 13.7883 121.5 13.1057 123.011 12.6142C124.54 12.1227 126.251 11.877 128.145 11.877C130.384 11.877 132.377 12.2592 134.124 13.0238C135.89 13.7701 137.274 14.8988 138.275 16.4097C139.294 17.9206 139.804 19.8228 139.804 22.1165V35.0047C139.804 36.4792 139.895 37.7443 140.077 38.8001C140.277 39.8378 140.569 40.7388 140.951 41.5034V41.9676H133.606C133.26 41.2212 132.996 40.2746 132.814 39.1278C132.632 37.9628 132.541 36.816 132.541 35.6873ZM133.551 23.9733L133.606 28.2602H129.046C127.917 28.2602 126.925 28.3786 126.069 28.6152C125.214 28.8337 124.513 29.1613 123.967 29.5982C123.421 30.0169 123.011 30.5266 122.738 31.1273C122.465 31.7098 122.329 32.3743 122.329 33.1206C122.329 33.8488 122.492 34.5041 122.82 35.0866C123.166 35.6691 123.657 36.1333 124.295 36.4792C124.95 36.8068 125.714 36.9707 126.588 36.9707C127.862 36.9707 128.973 36.7158 129.919 36.2061C130.866 35.6782 131.603 35.0411 132.131 34.2947C132.659 33.5484 132.941 32.8385 132.978 32.1649L135.053 35.2777C134.798 36.0241 134.416 36.816 133.906 37.6533C133.396 38.4907 132.741 39.2734 131.94 40.0016C131.139 40.7297 130.174 41.3305 129.046 41.8038C127.917 42.277 126.606 42.5137 125.114 42.5137C123.202 42.5137 121.491 42.1314 119.98 41.3669C118.469 40.6023 117.277 39.5556 116.403 38.2267C115.529 36.8979 115.093 35.387 115.093 33.694C115.093 32.1285 115.384 30.745 115.966 29.5436C116.549 28.3422 117.414 27.3319 118.56 26.5127C119.707 25.6753 121.127 25.0473 122.82 24.6286C124.531 24.1917 126.488 23.9733 128.691 23.9733H133.551Z" fill="white"/>
<path d="M84.7835 1.02832C84.7835 0.476037 85.2312 0.0283203 85.7835 0.0283203H91.0194C91.5717 0.0283203 92.0194 0.476036 92.0194 1.02832V35.4435L91.4065 41.0777C91.3513 41.5851 90.9228 41.9695 90.4124 41.9695H85.7835C85.2312 41.9695 84.7835 41.5218 84.7835 40.9695V1.02832ZM111.024 26.8969V27.4703C111.024 29.673 110.778 31.6936 110.287 33.5321C109.813 35.3707 109.094 36.9635 108.13 38.3106C107.165 39.6395 105.963 40.6771 104.525 41.4234C103.105 42.1516 101.44 42.5156 99.5284 42.5156C97.7081 42.5156 96.1244 42.1607 94.7773 41.4507C93.4484 40.7408 92.3289 39.7396 91.4187 38.4471C90.5085 37.1365 89.7804 35.5982 89.2343 33.8325C88.6882 32.0485 88.2786 30.1007 88.0055 27.9891V26.4327C88.2786 24.3029 88.6882 22.3551 89.2343 20.5893C89.7804 18.8236 90.5085 17.2854 91.4187 15.9747C92.3289 14.6641 93.4484 13.6538 94.7773 12.9438C96.1061 12.2339 97.6717 11.8789 99.4738 11.8789C101.403 11.8789 103.087 12.2521 104.525 12.9984C105.982 13.7266 107.183 14.7642 108.13 16.1112C109.094 17.4401 109.813 19.0238 110.287 20.8624C110.778 22.6828 111.024 24.6943 111.024 26.8969ZM103.788 27.4703V26.8969C103.788 25.6409 103.688 24.4576 103.488 23.3472C103.287 22.2186 102.96 21.2265 102.505 20.3709C102.05 19.5153 101.431 18.8418 100.648 18.3503C99.8652 17.8588 98.8822 17.613 97.699 17.613C96.5703 17.613 95.6055 17.8042 94.8046 18.1865C94.0218 18.5687 93.3665 19.0966 92.8386 19.7702C92.3289 20.4437 91.9284 21.2356 91.6372 22.1458C91.3641 23.0559 91.1821 24.0389 91.091 25.0947V29.3544C91.2185 30.7561 91.5188 32.0212 91.9921 33.1499C92.4654 34.2603 93.1663 35.1432 94.0946 35.7985C95.0412 36.4538 96.2609 36.7815 97.7536 36.7815C98.9186 36.7815 99.8925 36.5539 100.675 36.0989C101.458 35.6256 102.077 34.9702 102.532 34.1329C102.987 33.2773 103.306 32.2852 103.488 31.1566C103.688 30.0279 103.788 28.7992 103.788 27.4703Z" fill="white"/>
<path d="M51.8531 27.4957V26.9223C51.8531 24.756 52.1626 22.7627 52.7815 20.9424C53.4004 19.1038 54.3015 17.511 55.4847 16.1639C56.668 14.8168 58.1151 13.7701 59.8263 13.0238C61.5374 12.2592 63.4852 11.877 65.6697 11.877C67.8905 11.877 69.8565 12.2592 71.5676 13.0238C73.297 13.7701 74.7533 14.8168 75.9365 16.1639C77.1198 17.511 78.0208 19.1038 78.6398 20.9424C79.2587 22.7627 79.5681 24.756 79.5681 26.9223V27.4957C79.5681 29.6437 79.2587 31.637 78.6398 33.4756C78.0208 35.2959 77.1198 36.8888 75.9365 38.254C74.7533 39.6011 73.3061 40.6478 71.5949 41.3942C69.8838 42.1405 67.9269 42.5137 65.7243 42.5137C63.5398 42.5137 61.5829 42.1405 59.8536 41.3942C58.1242 40.6478 56.668 39.6011 55.4847 38.254C54.3015 36.8888 53.4004 35.2959 52.7815 33.4756C52.1626 31.637 51.8531 29.6437 51.8531 27.4957ZM59.0617 26.9223V27.4957C59.0617 28.7881 59.1892 29.9987 59.444 31.1273C59.6989 32.2559 60.0902 33.248 60.6181 34.1036C61.1461 34.9592 61.8287 35.6327 62.6661 36.1242C63.5216 36.5975 64.541 36.8342 65.7243 36.8342C66.8893 36.8342 67.8905 36.5975 68.7279 36.1242C69.5652 35.6327 70.2479 34.9592 70.7758 34.1036C71.3219 33.248 71.7224 32.2559 71.9772 31.1273C72.2321 29.9987 72.3595 28.7881 72.3595 27.4957V26.9223C72.3595 25.648 72.2321 24.4557 71.9772 23.3453C71.7224 22.2166 71.3219 21.2245 70.7758 20.369C70.2479 19.4952 69.5561 18.8125 68.7006 18.321C67.8632 17.8113 66.8529 17.5565 65.6697 17.5565C64.5046 17.5565 63.5034 17.8113 62.6661 18.321C61.8287 18.8125 61.1461 19.4952 60.6181 20.369C60.0902 21.2245 59.6989 22.2166 59.444 23.3453C59.1892 24.4557 59.0617 25.648 59.0617 26.9223Z" fill="white"/>
<path d="M45.2555 0.0283203C45.8077 0.0283203 46.2555 0.476036 46.2555 1.02832V40.9695C46.2555 41.5218 45.8077 41.9695 45.2555 41.9695H40.0195C39.4672 41.9695 39.0195 41.5218 39.0195 40.9695V1.02832C39.0195 0.476037 39.4672 0.0283203 40.0195 0.0283203H45.2555Z" fill="white"/>
<path d="M32.0566 21.4073V36.5455C32.0566 36.7685 31.984 36.9865 31.8378 37.1548C31.2538 37.8268 30.4075 38.5484 29.2988 39.3197C28.0609 40.1935 26.4408 40.949 24.4384 41.5861C22.436 42.205 19.9785 42.5145 17.0659 42.5145C14.5356 42.5145 12.2238 42.0958 10.1303 41.2584C8.03691 40.4029 6.23475 39.1559 4.72385 37.5176C3.21294 35.8792 2.04791 33.8768 1.22875 31.5104C0.409582 29.1439 0 26.4407 0 23.4006V20.7793C0 17.7393 0.382277 15.0361 1.14683 12.6696C1.92959 10.3031 3.04001 8.30072 4.4781 6.66239C5.93439 5.02406 7.67284 3.77711 9.69344 2.92154C11.7323 2.06597 14.0077 1.63818 16.5198 1.63818C19.8875 1.63818 22.6544 2.19339 24.8207 3.30382C27.0051 4.41424 28.6798 5.94335 29.8449 7.89114C30.8351 9.53122 31.5097 11.3817 31.8687 13.4426C31.9713 14.0317 31.5046 14.5537 30.9067 14.5537H25.5771C25.0802 14.5537 24.6636 14.1874 24.5581 13.7018C24.3335 12.6675 23.9841 11.7409 23.51 10.922C22.9093 9.86623 22.0537 9.04707 20.9433 8.46455C19.8511 7.86383 18.4312 7.56347 16.6836 7.56347C15.2091 7.56347 13.9076 7.85473 12.779 8.43725C11.6503 9.01976 10.7037 9.86623 9.93919 10.9767C9.17464 12.0871 8.59212 13.4615 8.19164 15.0998C7.80937 16.7381 7.61823 18.6131 7.61823 20.7247V23.4006C7.61823 25.5305 7.83667 27.4237 8.27356 29.0802C8.71045 30.7185 9.33847 32.102 10.1576 33.2306C10.995 34.341 12.0235 35.1875 13.2432 35.77C14.481 36.3343 15.8827 36.6165 17.4482 36.6165C18.8681 36.6165 20.0422 36.4982 20.9706 36.2615C21.9172 36.0067 22.6726 35.7063 23.237 35.3604C23.8013 35.0146 24.2382 34.6778 24.5476 34.3501V26.8957H17.6563C17.1041 26.8957 16.6563 26.448 16.6563 25.8957V22.4073C16.6563 21.8551 17.1041 21.4073 17.6563 21.4073H32.0566Z" fill="white"/>
</svg>
