<svg width="209" height="34" viewBox="0 0 209 34" fill="none" xmlns="http://www.w3.org/2000/svg">
<path d="M194.109 0C194.661 0 195.109 0.447715 195.109 1V27.4303C195.109 27.9825 194.661 28.4303 194.109 28.4303H191.226C190.673 28.4303 190.226 27.9825 190.226 27.4303V1C190.226 0.447717 190.673 0 191.226 0H194.109ZM205.421 8.41624C206.284 8.41624 206.742 9.4365 206.168 10.0812L198.938 18.2013L194.221 22.9921L192.667 19.2001L196.311 14.6128L201.451 8.75663C201.64 8.54028 201.914 8.41624 202.202 8.41624H205.421ZM203.192 28.4303C202.857 28.4303 202.544 28.2627 202.359 27.9838L196.459 19.1077L199.715 15.9446L207.236 26.863C207.693 27.5264 207.218 28.4303 206.413 28.4303H203.192Z" fill="#FF6213"/>
<path d="M181.458 12.5037V27.4299C181.458 27.9821 181.01 28.4299 180.458 28.4299H177.575C177.022 28.4299 176.575 27.9821 176.575 27.4299V9.41584C176.575 8.86356 177.022 8.41584 177.575 8.41584H180.26C180.788 8.41584 181.225 8.82594 181.258 9.35262L181.458 12.5037ZM187.543 8.28636L187.469 12.8367C187.198 12.7874 186.89 12.7504 186.545 12.7257C186.212 12.701 185.897 12.6887 185.601 12.6887C184.849 12.6887 184.189 12.7935 183.622 13.0032C183.055 13.2005 182.58 13.4903 182.198 13.8725C181.828 14.2548 181.544 14.7234 181.347 15.2783C181.15 15.8209 181.039 16.4375 181.014 17.128L179.96 16.9986C179.96 15.7284 180.089 14.5508 180.348 13.4656C180.607 12.3804 180.983 11.4309 181.476 10.617C181.97 9.80314 182.586 9.17423 183.326 8.7303C184.078 8.27403 184.941 8.0459 185.916 8.0459C186.187 8.0459 186.477 8.07056 186.785 8.11989C187.106 8.15688 187.358 8.21237 187.543 8.28636Z" fill="#FF6213"/>
<path d="M167.252 24.1755V14.9454C167.252 14.2671 167.135 13.6814 166.9 13.1881C166.666 12.6949 166.309 12.3126 165.828 12.0413C165.347 11.77 164.736 11.6344 163.996 11.6344C163.343 11.6344 162.769 11.7453 162.276 11.9673C161.795 12.1893 161.425 12.5037 161.166 12.9107C161.085 13.0352 161.016 13.1658 160.96 13.3026C160.751 13.8138 160.33 14.2795 159.778 14.2795H156.876C156.324 14.2795 155.865 13.8272 155.975 13.2861C156.071 12.8191 156.235 12.3672 156.468 11.9303C156.863 11.1781 157.424 10.5122 158.151 9.93262C158.891 9.34071 159.773 8.87827 160.796 8.54532C161.832 8.21237 162.991 8.0459 164.274 8.0459C165.791 8.0459 167.141 8.30486 168.325 8.82278C169.521 9.32837 170.458 10.0929 171.136 11.1164C171.827 12.14 172.172 13.4286 172.172 14.9824V23.7131C172.172 24.7119 172.234 25.569 172.357 26.2842C172.493 26.9871 172.69 27.5975 172.949 28.1154V28.4299H167.973C167.739 27.9243 167.56 27.283 167.437 26.5061C167.314 25.7169 167.252 24.94 167.252 24.1755ZM167.936 16.2402L167.973 19.1442H164.884C164.12 19.1442 163.448 19.2244 162.868 19.3847C162.289 19.5327 161.814 19.7547 161.444 20.0506C161.074 20.3342 160.796 20.6795 160.611 21.0865C160.426 21.4811 160.334 21.9312 160.334 22.4368C160.334 22.93 160.445 23.3739 160.667 23.7686C160.901 24.1632 161.234 24.4776 161.666 24.7119C162.11 24.9339 162.628 25.0449 163.22 25.0449C164.083 25.0449 164.835 24.8722 165.476 24.5269C166.117 24.1693 166.617 23.7377 166.974 23.2321C167.332 22.7265 167.523 22.2456 167.548 21.7894L168.954 23.898C168.781 24.4036 168.522 24.94 168.177 25.5073C167.832 26.0745 167.388 26.6048 166.845 27.0981C166.302 27.5913 165.649 27.9983 164.884 28.3189C164.12 28.6395 163.232 28.7998 162.221 28.7998C160.926 28.7998 159.767 28.5408 158.743 28.0229C157.72 27.505 156.912 26.7959 156.32 25.8957C155.728 24.9955 155.432 23.972 155.432 22.8252C155.432 21.7647 155.629 20.8275 156.024 20.0136C156.419 19.1997 157.004 18.5153 157.781 17.9604C158.558 17.3932 159.52 16.9677 160.667 16.6841C161.826 16.3882 163.152 16.2402 164.644 16.2402H167.936Z" fill="#FF6213"/>
<path d="M146.979 23.6758V9.41553C146.979 8.86324 147.427 8.41553 147.979 8.41553H150.899C151.451 8.41553 151.899 8.86324 151.899 9.41553V28.4295H147.275L146.979 23.6758ZM147.608 19.5324L149.125 19.4954C149.125 20.8395 148.977 22.0788 148.681 23.2133C148.385 24.3478 147.922 25.3343 147.293 26.1729C146.677 26.9991 145.894 27.6465 144.944 28.1151C143.995 28.5714 142.873 28.7995 141.578 28.7995C140.591 28.7995 139.691 28.6638 138.877 28.3925C138.063 28.1089 137.36 27.6712 136.768 27.0792C136.189 26.475 135.739 25.7043 135.418 24.7671C135.098 23.8176 134.937 22.6769 134.937 21.3451V9.41553C134.937 8.86324 135.385 8.41553 135.937 8.41553H138.82C139.373 8.41553 139.82 8.86324 139.82 9.41553V21.3821C139.82 22.048 139.894 22.6029 140.042 23.0468C140.203 23.4908 140.419 23.8546 140.69 24.1382C140.973 24.4095 141.3 24.6068 141.67 24.7301C142.052 24.8411 142.459 24.8966 142.891 24.8966C144.075 24.8966 145.006 24.6623 145.684 24.1937C146.375 23.7127 146.868 23.0715 147.164 22.27C147.46 21.4561 147.608 20.5436 147.608 19.5324Z" fill="#FF6213"/>
<path d="M123.765 24.6379L129.999 29.5868C130.489 29.9758 130.506 30.7142 130.034 31.1247L128.316 32.6176C127.952 32.9347 127.412 32.9455 127.035 32.6434L120.62 27.505L123.765 24.6379ZM131.071 14.2795V15.6668C131.071 17.7015 130.8 19.5327 130.258 21.1604C129.715 22.7759 128.938 24.1508 127.927 25.2853C126.928 26.4198 125.738 27.2892 124.357 27.8934C122.976 28.4977 121.447 28.7998 119.77 28.7998C118.105 28.7998 116.576 28.4977 115.182 27.8934C113.801 27.2892 112.605 26.4198 111.594 25.2853C110.583 24.1508 109.8 22.7759 109.245 21.1604C108.69 19.5327 108.412 17.7015 108.412 15.6668V14.2795C108.412 12.2324 108.684 10.4012 109.226 8.78579C109.781 7.17036 110.558 5.7954 111.557 4.6609C112.568 3.51407 113.764 2.63854 115.145 2.03429C116.539 1.43005 118.068 1.12793 119.733 1.12793C121.41 1.12793 122.939 1.43005 124.32 2.03429C125.713 2.63854 126.91 3.51407 127.908 4.6609C128.92 5.7954 129.696 7.17036 130.239 8.78579C130.794 10.4012 131.071 12.2324 131.071 14.2795ZM125.929 15.6668V14.2425C125.929 12.775 125.794 11.4864 125.522 10.3766C125.251 9.25439 124.844 8.31103 124.301 7.54647C123.771 6.78192 123.124 6.20851 122.359 5.82623C121.595 5.43162 120.719 5.23432 119.733 5.23432C118.758 5.23432 117.889 5.43162 117.124 5.82623C116.36 6.20851 115.713 6.78192 115.182 7.54647C114.652 8.31103 114.245 9.25439 113.961 10.3766C113.69 11.4864 113.554 12.775 113.554 14.2425V15.6668C113.554 17.1219 113.69 18.4105 113.961 19.5327C114.245 20.6549 114.652 21.6044 115.182 22.3813C115.725 23.1458 116.378 23.7254 117.143 24.12C117.92 24.5146 118.795 24.7119 119.77 24.7119C120.756 24.7119 121.632 24.5146 122.396 24.12C123.161 23.7254 123.802 23.1458 124.32 22.3813C124.85 21.6044 125.251 20.6549 125.522 19.5327C125.794 18.4105 125.929 17.1219 125.929 15.6668Z" fill="#FF6213"/>
<path d="M103.287 0.0180664C103.84 0.0180664 104.287 0.465782 104.287 1.01807V27.4298C104.287 27.9821 103.84 28.4298 103.287 28.4298H100.385C99.8332 28.4298 99.3855 27.9821 99.3855 27.4298V1.01807C99.3855 0.465783 99.8332 0.0180664 100.385 0.0180664H103.287Z" fill="white"/>
<path d="M89.7855 24.1755V14.9454C89.7855 14.2671 89.6684 13.6814 89.4341 13.1881C89.1998 12.6949 88.8421 12.3126 88.3612 12.0413C87.8803 11.77 87.2699 11.6344 86.53 11.6344C85.8764 11.6344 85.303 11.7453 84.8097 11.9673C84.3288 12.1893 83.9589 12.5037 83.6999 12.9107C83.6182 13.0352 83.5494 13.1658 83.4935 13.3026C83.2844 13.8138 82.8637 14.2795 82.3115 14.2795H79.4097C78.8574 14.2795 78.3984 13.8272 78.509 13.2861C78.6044 12.8191 78.7686 12.3672 79.0016 11.9303C79.3962 11.1781 79.9573 10.5122 80.6849 9.93262C81.4247 9.34071 82.3064 8.87827 83.33 8.54532C84.3658 8.21237 85.525 8.0459 86.8074 8.0459C88.3242 8.0459 89.6745 8.30486 90.8583 8.82278C92.0545 9.32837 92.9917 10.0929 93.6699 11.1164C94.3605 12.14 94.7058 13.4286 94.7058 14.9824V23.7131C94.7058 24.7119 94.7674 25.569 94.8907 26.2842C95.0264 26.9871 95.2237 27.5975 95.4827 28.1154V28.4299H90.5069C90.2726 27.9243 90.0938 27.283 89.9705 26.5061C89.8472 25.7169 89.7855 24.94 89.7855 24.1755ZM90.4699 16.2402L90.5069 19.1442H87.4179C86.6533 19.1442 85.9812 19.2244 85.4017 19.3847C84.8221 19.5327 84.3473 19.7547 83.9774 20.0506C83.6074 20.3342 83.33 20.6795 83.145 21.0865C82.96 21.4811 82.8675 21.9312 82.8675 22.4368C82.8675 22.93 82.9785 23.3739 83.2005 23.7686C83.4348 24.1632 83.7677 24.4776 84.1993 24.7119C84.6433 24.9339 85.1612 25.0449 85.7531 25.0449C86.6163 25.0449 87.3685 24.8722 88.0098 24.5269C88.651 24.1693 89.1504 23.7377 89.508 23.2321C89.8657 22.7265 90.0568 22.2456 90.0815 21.7894L91.4872 23.898C91.3146 24.4036 91.0556 24.94 90.7104 25.5073C90.3651 26.0745 89.9211 26.6048 89.3786 27.0981C88.836 27.5913 88.1824 27.9983 87.4179 28.3189C86.6533 28.6395 85.7654 28.7998 84.7542 28.7998C83.4594 28.7998 82.3003 28.5408 81.2768 28.0229C80.2533 27.505 79.4455 26.7959 78.8536 25.8957C78.2617 24.9955 77.9658 23.972 77.9658 22.8252C77.9658 21.7647 78.1631 20.8275 78.5577 20.0136C78.9523 19.1997 79.538 18.5153 80.3149 17.9604C81.0918 17.3932 82.0537 16.9677 83.2005 16.6841C84.3596 16.3882 85.6853 16.2402 87.1774 16.2402H90.4699Z" fill="white"/>
<path d="M57.4337 1.01807C57.4337 0.465783 57.8814 0.0180664 58.4337 0.0180664H61.3355C61.8878 0.0180664 62.3355 0.465782 62.3355 1.01807V24.009L61.9516 27.538C61.8964 28.0454 61.4679 28.4298 60.9574 28.4298H58.4337C57.8814 28.4298 57.4337 27.9821 57.4337 27.4298V1.01807ZM75.2096 18.2194V18.6078C75.2096 20.0999 75.0431 21.4687 74.7101 22.7142C74.3895 23.9597 73.9024 25.0387 73.2489 25.9512C72.5953 26.8514 71.7814 27.5543 70.8072 28.0599C69.8454 28.5532 68.717 28.7998 67.4222 28.7998C66.1891 28.7998 65.1162 28.5593 64.2037 28.0784C63.3035 27.5975 62.5451 26.9192 61.9285 26.0437C61.312 25.1558 60.8187 24.1138 60.4488 22.9177C60.0788 21.7092 59.8014 20.3897 59.6164 18.9592V17.9049C59.8014 16.4621 60.0788 15.1426 60.4488 13.9465C60.8187 12.7503 61.312 11.7083 61.9285 10.8205C62.5451 9.93259 63.3035 9.24819 64.2037 8.76726C65.1039 8.28633 66.1644 8.04587 67.3852 8.04587C68.6924 8.04587 69.833 8.29867 70.8072 8.80426C71.7937 9.29752 72.6076 10.0004 73.2489 10.9129C73.9024 11.8131 74.3895 12.886 74.7101 14.1315C75.0431 15.3646 75.2096 16.7272 75.2096 18.2194ZM70.3078 18.6078V18.2194C70.3078 17.3685 70.24 16.5669 70.1043 15.8147C69.9687 15.0502 69.7467 14.3781 69.4384 13.7985C69.1301 13.2189 68.7109 12.7627 68.1806 12.4297C67.6504 12.0968 66.9845 11.9303 66.1829 11.9303C65.4184 11.9303 64.7648 12.0598 64.2222 12.3187C63.692 12.5777 63.248 12.9353 62.8904 13.3916C62.5451 13.8478 62.2738 14.3843 62.0765 15.0008C61.8916 15.6174 61.7682 16.2833 61.7066 16.9985V19.8841C61.7929 20.8336 61.9964 21.6907 62.317 22.4552C62.6376 23.2074 63.1124 23.8055 63.7413 24.2495C64.3825 24.6934 65.2087 24.9154 66.2199 24.9154C67.0091 24.9154 67.6689 24.7612 68.1991 24.4529C68.7294 24.1323 69.1486 23.6884 69.4569 23.1211C69.7652 22.5415 69.981 21.8695 70.1043 21.1049C70.24 20.3404 70.3078 19.508 70.3078 18.6078Z" fill="white"/>
<path d="M35.126 18.6263V18.2379C35.126 16.7704 35.3357 15.4201 35.7549 14.187C36.1742 12.9415 36.7846 11.8625 37.5862 10.95C38.3877 10.0374 39.3681 9.32837 40.5272 8.82278C41.6864 8.30486 43.0059 8.0459 44.4856 8.0459C45.9901 8.0459 47.3219 8.30486 48.481 8.82278C49.6525 9.32837 50.6391 10.0374 51.4406 10.95C52.2422 11.8625 52.8526 12.9415 53.2718 14.187C53.6911 15.4201 53.9007 16.7704 53.9007 18.2379V18.6263C53.9007 20.0814 53.6911 21.4317 53.2718 22.6772C52.8526 23.9104 52.2422 24.9894 51.4406 25.9142C50.6391 26.8268 49.6587 27.5358 48.4995 28.0414C47.3404 28.547 46.0147 28.7998 44.5226 28.7998C43.0429 28.7998 41.7172 28.547 40.5457 28.0414C39.3742 27.5358 38.3877 26.8268 37.5862 25.9142C36.7846 24.9894 36.1742 23.9104 35.7549 22.6772C35.3357 21.4317 35.126 20.0814 35.126 18.6263ZM40.0093 18.2379V18.6263C40.0093 19.5019 40.0956 20.3219 40.2683 21.0865C40.4409 21.851 40.706 22.5231 41.0637 23.1027C41.4213 23.6822 41.8837 24.1385 42.4509 24.4715C43.0305 24.7921 43.7211 24.9524 44.5226 24.9524C45.3119 24.9524 45.9901 24.7921 46.5573 24.4715C47.1246 24.1385 47.587 23.6822 47.9446 23.1027C48.3146 22.5231 48.5859 21.851 48.7585 21.0865C48.9311 20.3219 49.0175 19.5019 49.0175 18.6263V18.2379C49.0175 17.3747 48.9311 16.567 48.7585 15.8147C48.5859 15.0502 48.3146 14.3781 47.9446 13.7985C47.587 13.2066 47.1184 12.7442 46.5388 12.4112C45.9716 12.066 45.2872 11.8933 44.4856 11.8933C43.6964 11.8933 43.0182 12.066 42.4509 12.4112C41.8837 12.7442 41.4213 13.2066 41.0637 13.7985C40.706 14.3781 40.4409 15.0502 40.2683 15.8147C40.0956 16.567 40.0093 17.3747 40.0093 18.2379Z" fill="white"/>
<path d="M30.3341 0.0180664C30.8864 0.0180664 31.3341 0.465782 31.3341 1.01807V27.4298C31.3341 27.9821 30.8864 28.4298 30.3341 28.4298H27.4324C26.8801 28.4298 26.4324 27.9821 26.4324 27.4298V1.01807C26.4324 0.465783 26.8801 0.0180664 27.4324 0.0180664H30.3341Z" fill="white"/>
<path d="M21.7158 14.5014V24.6453C21.7158 24.8682 21.6437 25.0869 21.4938 25.2519C21.102 25.6835 20.5532 26.1447 19.8475 26.6356C19.009 27.2275 17.9115 27.7392 16.555 28.1708C15.1986 28.5901 13.5338 28.7997 11.5608 28.7997C9.8467 28.7997 8.2806 28.5161 6.86248 27.9489C5.44436 27.3693 4.22354 26.5246 3.20002 25.4148C2.17651 24.3049 1.38729 22.9485 0.832376 21.3454C0.277459 19.7423 0 17.911 0 15.8517V14.0759C0 12.0166 0.258961 10.1854 0.776884 8.58226C1.30714 6.97917 2.05936 5.6227 3.03355 4.51287C4.02007 3.40303 5.19773 2.55833 6.56652 1.97875C7.94765 1.39917 9.48909 1.10938 11.1908 1.10938C13.4722 1.10938 15.3465 1.48549 16.814 2.23771C18.2938 2.98993 19.4283 4.02577 20.2175 5.34524C20.8308 6.36105 21.2654 7.496 21.5212 8.75011C21.6408 9.33597 21.1725 9.85857 20.5746 9.85857H17.6057C17.1087 9.85857 16.6951 9.49121 16.5719 9.00976C16.4205 8.41756 16.2052 7.88045 15.9261 7.39844C15.5192 6.68321 14.9396 6.12829 14.1874 5.73369C13.4475 5.32675 12.4856 5.12328 11.3018 5.12328C10.303 5.12328 9.42126 5.32058 8.65671 5.71519C7.89216 6.1098 7.25092 6.68321 6.733 7.43543C6.21507 8.18765 5.82047 9.11868 5.54917 10.2285C5.29021 11.3384 5.16073 12.6085 5.16073 14.0389V15.8517C5.16073 17.2945 5.30871 18.5769 5.60466 19.6991C5.90062 20.8089 6.32606 21.7461 6.88097 22.5107C7.44822 23.2629 8.14495 23.8363 8.97116 24.2309C9.8097 24.6132 10.7592 24.8043 11.8197 24.8043C12.7816 24.8043 13.577 24.7242 14.2059 24.5639C14.8471 24.3912 15.3589 24.1878 15.7412 23.9535C16.1234 23.7192 16.4194 23.491 16.629 23.2691V18.2193H12.2833C11.731 18.2193 11.2833 17.7716 11.2833 17.2193V15.5014C11.2833 14.9491 11.731 14.5014 12.2833 14.5014H21.7158Z" fill="white"/>
</svg>
