<svg width="272" height="44" viewBox="0 0 272 44" fill="none" xmlns="http://www.w3.org/2000/svg">
<path d="M253.489 0C254.042 0 254.489 0.447715 254.489 1V36.0829C254.489 36.6352 254.042 37.0829 253.489 37.0829H249.12C248.568 37.0829 248.12 36.6352 248.12 36.0829V1C248.12 0.447717 248.568 0 249.12 0H253.489ZM268.618 10.9777C269.481 10.9777 269.939 11.998 269.365 12.6427L259.484 23.7408L253.331 29.9897L251.305 25.0436L256.058 19.0602L262.852 11.3181C263.042 11.1017 263.316 10.9777 263.604 10.9777H268.618ZM264.869 37.0829C264.534 37.0829 264.222 36.9154 264.036 36.6365L256.251 24.923L260.497 20.7973L270.636 35.5156C271.093 36.1791 270.618 37.0829 269.813 37.0829H264.869Z" fill="#FF6213"/>
<path d="M236.684 16.3087V36.0819C236.684 36.6342 236.236 37.0819 235.684 37.0819H231.314C230.762 37.0819 230.314 36.6342 230.314 36.0819V11.9767C230.314 11.4244 230.762 10.9767 231.314 10.9767H235.407C235.935 10.9767 236.372 11.3868 236.405 11.9135L236.684 16.3087ZM244.622 10.8078L244.525 16.743C244.171 16.6787 243.769 16.6304 243.319 16.5982C242.885 16.5661 242.474 16.55 242.088 16.55C241.107 16.55 240.247 16.6867 239.507 16.9601C238.767 17.2175 238.148 17.5955 237.649 18.0941C237.166 18.5927 236.797 19.2039 236.539 19.9277C236.282 20.6355 236.137 21.4397 236.105 22.3404L234.73 22.1715C234.73 20.5148 234.899 18.9787 235.236 17.5633C235.574 16.1479 236.065 14.9094 236.708 13.8478C237.351 12.7862 238.156 11.9659 239.121 11.3868C240.102 10.7917 241.228 10.4941 242.498 10.4941C242.852 10.4941 243.23 10.5263 243.632 10.5906C244.051 10.6389 244.38 10.7113 244.622 10.8078Z" fill="#FF6213"/>
<path d="M218.154 31.5327V19.4934C218.154 18.6088 218.002 17.8448 217.696 17.2014C217.39 16.558 216.924 16.0594 216.297 15.7055C215.669 15.3517 214.873 15.1747 213.908 15.1747C213.056 15.1747 212.308 15.3195 211.664 15.609C211.037 15.8986 210.554 16.3087 210.217 16.8395C210.054 17.087 209.931 17.3531 209.847 17.6377C209.69 18.1673 209.262 18.6249 208.71 18.6249H204.316C203.764 18.6249 203.308 18.1745 203.392 17.6287C203.503 16.9129 203.735 16.2235 204.088 15.5608C204.603 14.5796 205.335 13.7111 206.284 12.9551C207.249 12.183 208.399 11.5798 209.734 11.1456C211.085 10.7113 212.597 10.4941 214.27 10.4941C216.248 10.4941 218.01 10.8319 219.554 11.5075C221.114 12.1669 222.336 13.1642 223.221 14.4992C224.122 15.8342 224.572 17.515 224.572 19.5417V30.9296C224.572 32.2324 224.652 33.3503 224.813 34.2832C224.99 35.2 225.248 35.9962 225.585 36.6718V37.0819H219.095C218.79 36.4224 218.556 35.586 218.396 34.5727C218.235 33.5433 218.154 32.53 218.154 31.5327ZM219.047 21.1823L219.095 24.9702H215.066C214.069 24.9702 213.192 25.0748 212.436 25.2839C211.68 25.4769 211.061 25.7664 210.579 26.1525C210.096 26.5224 209.734 26.9728 209.493 27.5036C209.252 28.0183 209.131 28.6053 209.131 29.2648C209.131 29.9082 209.276 30.4872 209.565 31.0019C209.871 31.5167 210.305 31.9268 210.868 32.2324C211.447 32.5219 212.123 32.6667 212.895 32.6667C214.021 32.6667 215.002 32.4415 215.838 31.9911C216.675 31.5247 217.326 30.9617 217.792 30.3023C218.259 29.6428 218.508 29.0155 218.54 28.4204L220.374 31.1708C220.149 31.8303 219.811 32.53 219.361 33.2699C218.91 34.0098 218.331 34.7014 217.624 35.3448C216.916 35.9882 216.063 36.5189 215.066 36.9371C214.069 37.3553 212.911 37.5644 211.592 37.5644C209.903 37.5644 208.391 37.2267 207.056 36.5511C205.721 35.8756 204.667 34.9507 203.895 33.7765C203.123 32.6024 202.737 31.2673 202.737 29.7715C202.737 28.3882 202.995 27.1658 203.509 26.1042C204.024 25.0426 204.788 24.1499 205.801 23.4261C206.815 22.6862 208.069 22.1313 209.565 21.7614C211.077 21.3753 212.806 21.1823 214.752 21.1823H219.047Z" fill="#FF6213"/>
<path d="M191.712 30.8812V11.9766C191.712 11.4243 192.16 10.9766 192.712 10.9766H197.13C197.682 10.9766 198.13 11.4243 198.13 11.9766V37.0818H192.098L191.712 30.8812ZM192.532 25.4768L194.511 25.4285C194.511 27.1818 194.318 28.7983 193.932 30.278C193.546 31.7578 192.942 33.0446 192.122 34.1383C191.318 35.216 190.296 36.0604 189.058 36.6716C187.819 37.2668 186.356 37.5643 184.667 37.5643C183.38 37.5643 182.206 37.3874 181.144 37.0335C180.083 36.6636 179.166 36.0926 178.394 35.3205C177.638 34.5324 177.051 33.5271 176.633 32.3047C176.214 31.0662 176.005 29.5784 176.005 27.8412V11.9766C176.005 11.4243 176.453 10.9766 177.005 10.9766H181.375C181.927 10.9766 182.375 11.4243 182.375 11.9766V27.8895C182.375 28.758 182.471 29.4818 182.664 30.0609C182.873 30.6399 183.155 31.1144 183.509 31.4844C183.879 31.8382 184.305 32.0956 184.788 32.2564C185.286 32.4012 185.817 32.4736 186.38 32.4736C187.924 32.4736 189.138 32.168 190.023 31.5568C190.924 30.9295 191.567 30.0931 191.953 29.0476C192.339 27.986 192.532 26.7957 192.532 25.4768Z" fill="#FF6213"/>
<path d="M161.432 32.1359L169.851 38.8187C170.341 39.2077 170.357 39.9461 169.885 40.3566L167.177 42.7108C166.812 43.0279 166.273 43.0387 165.896 42.7366L157.331 35.8756L161.432 32.1359ZM170.962 18.6249V20.4344C170.962 23.0883 170.608 25.4769 169.901 27.6001C169.193 29.7071 168.18 31.5006 166.861 32.9803C165.558 34.4601 164.006 35.5941 162.204 36.3822C160.403 37.1704 158.408 37.5644 156.221 37.5644C154.049 37.5644 152.055 37.1704 150.237 36.3822C148.436 35.5941 146.876 34.4601 145.557 32.9803C144.238 31.5006 143.216 29.7071 142.493 27.6001C141.769 25.4769 141.407 23.0883 141.407 20.4344V18.6249C141.407 15.9548 141.761 13.5663 142.469 11.4592C143.192 9.35213 144.206 7.55871 145.509 6.07893C146.827 4.58306 148.388 3.44106 150.189 2.65292C152.007 1.86477 154.001 1.4707 156.173 1.4707C158.36 1.4707 160.355 1.86477 162.156 2.65292C163.974 3.44106 165.534 4.58306 166.837 6.07893C168.156 7.55871 169.169 9.35213 169.877 11.4592C170.6 13.5663 170.962 15.9548 170.962 18.6249ZM164.255 20.4344V18.5766C164.255 16.6626 164.078 14.9817 163.724 13.5341C163.37 12.0704 162.84 10.84 162.132 9.84271C161.44 8.84547 160.596 8.09754 159.599 7.59892C158.601 7.08421 157.459 6.82686 156.173 6.82686C154.902 6.82686 153.768 7.08421 152.771 7.59892C151.773 8.09754 150.929 8.84547 150.237 9.84271C149.546 10.84 149.015 12.0704 148.645 13.5341C148.291 14.9817 148.114 16.6626 148.114 18.5766V20.4344C148.114 22.3324 148.291 24.0132 148.645 25.4769C149.015 26.9406 149.546 28.1791 150.237 29.1924C150.945 30.1897 151.798 30.9456 152.795 31.4604C153.808 31.9751 154.95 32.2324 156.221 32.2324C157.508 32.2324 158.65 31.9751 159.647 31.4604C160.644 30.9456 161.48 30.1897 162.156 29.1924C162.848 28.1791 163.37 26.9406 163.724 25.4769C164.078 24.0132 164.255 22.3324 164.255 20.4344Z" fill="#FF6213"/>
<path d="M135.027 0.0234375C135.579 0.0234375 136.027 0.471153 136.027 1.02344V36.0823C136.027 36.6345 135.579 37.0823 135.027 37.0823H130.634C130.081 37.0823 129.634 36.6345 129.634 36.0823V1.02344C129.634 0.471151 130.081 0.0234375 130.634 0.0234375H135.027Z" fill="#022385"/>
<path d="M117.111 31.5327V19.4934C117.111 18.6088 116.959 17.8448 116.653 17.2014C116.347 16.558 115.881 16.0594 115.254 15.7055C114.626 15.3517 113.83 15.1747 112.865 15.1747C112.013 15.1747 111.265 15.3195 110.621 15.609C109.994 15.8986 109.511 16.3087 109.174 16.8395C109.011 17.087 108.888 17.3531 108.804 17.6377C108.647 18.1673 108.219 18.6249 107.667 18.6249H103.273C102.721 18.6249 102.265 18.1745 102.349 17.6287C102.46 16.9129 102.692 16.2235 103.045 15.5608C103.56 14.5796 104.292 13.7111 105.241 12.9551C106.206 12.183 107.356 11.5798 108.691 11.1456C110.042 10.7113 111.554 10.4941 113.227 10.4941C115.205 10.4941 116.967 10.8319 118.511 11.5075C120.071 12.1669 121.293 13.1642 122.178 14.4992C123.079 15.8342 123.529 17.515 123.529 19.5417V30.9296C123.529 32.2324 123.61 33.3503 123.77 34.2832C123.947 35.2 124.205 35.9962 124.542 36.6718V37.0819H118.052C117.747 36.4224 117.513 35.586 117.353 34.5727C117.192 33.5433 117.111 32.53 117.111 31.5327ZM118.004 21.1823L118.052 24.9702H114.023C113.026 24.9702 112.149 25.0748 111.393 25.2839C110.637 25.4769 110.018 25.7664 109.536 26.1525C109.053 26.5224 108.691 26.9728 108.45 27.5036C108.209 28.0183 108.088 28.6053 108.088 29.2648C108.088 29.9082 108.233 30.4872 108.522 31.0019C108.828 31.5167 109.262 31.9268 109.825 32.2324C110.404 32.5219 111.08 32.6667 111.852 32.6667C112.978 32.6667 113.959 32.4415 114.795 31.9911C115.632 31.5247 116.283 30.9617 116.749 30.3023C117.216 29.6428 117.465 29.0155 117.497 28.4204L119.331 31.1708C119.106 31.8303 118.768 32.53 118.318 33.2699C117.867 34.0098 117.288 34.7014 116.581 35.3448C115.873 35.9882 115.02 36.5189 114.023 36.9371C113.026 37.3553 111.868 37.5644 110.549 37.5644C108.86 37.5644 107.348 37.2267 106.013 36.5511C104.678 35.8756 103.624 34.9507 102.852 33.7765C102.08 32.6024 101.694 31.2673 101.694 29.7715C101.694 28.3882 101.952 27.1658 102.466 26.1042C102.981 25.0426 103.745 24.1499 104.758 23.4261C105.772 22.6862 107.026 22.1313 108.522 21.7614C110.034 21.3753 111.763 21.1823 113.709 21.1823H118.004Z" fill="#022385"/>
<path d="M74.9138 1.02344C74.9138 0.471151 75.3615 0.0234375 75.9138 0.0234375H80.3074C80.8597 0.0234375 81.3074 0.471153 81.3074 1.02344V31.3159L80.7771 36.1904C80.7219 36.6978 80.2934 37.0822 79.783 37.0822H75.9138C75.3615 37.0822 74.9138 36.6345 74.9138 36.0822V1.02344ZM98.0997 23.7642V24.2709C98.0997 26.2171 97.8825 28.0025 97.4482 29.6271C97.03 31.2516 96.3947 32.659 95.5422 33.8493C94.6897 35.0234 93.6282 35.9402 92.3575 36.5997C91.1029 37.2431 89.6312 37.5648 87.9423 37.5648C86.3338 37.5648 84.9345 37.2511 83.7442 36.6238C82.5701 35.9965 81.5809 35.1119 80.7766 33.9699C79.9724 32.8118 79.329 31.4527 78.8465 29.8925C78.364 28.3162 78.002 26.5951 77.7608 24.7293V23.3541C78.002 21.4722 78.364 19.7511 78.8465 18.1909C79.329 16.6307 79.9724 15.2716 80.7766 14.1135C81.5809 12.9554 82.5701 12.0627 83.7442 11.4354C84.9184 10.8081 86.3017 10.4945 87.894 10.4945C89.599 10.4945 91.0868 10.8242 92.3575 11.4837C93.6443 12.1271 94.7058 13.0439 95.5422 14.2341C96.3947 15.4083 97.03 16.8077 97.4482 18.4322C97.8825 20.0407 98.0997 21.818 98.0997 23.7642ZM91.7061 24.2709V23.7642C91.7061 22.6544 91.6176 21.6089 91.4407 20.6278C91.2637 19.6305 90.9742 18.7539 90.5721 17.9979C90.17 17.242 89.6231 16.6468 88.9315 16.2125C88.2399 15.7783 87.3713 15.5611 86.3258 15.5611C85.3286 15.5611 84.4761 15.73 83.7684 16.0678C83.0767 16.4056 82.4977 16.872 82.0312 17.4671C81.5809 18.0623 81.227 18.7619 80.9696 19.5662C80.7284 20.3704 80.5675 21.239 80.4871 22.1719V25.9357C80.5997 27.1742 80.8651 28.292 81.2833 29.2893C81.7015 30.2704 82.3207 31.0505 83.1411 31.6296C83.9775 32.2086 85.0551 32.4981 86.374 32.4981C87.4035 32.4981 88.264 32.2971 88.9556 31.895C89.6472 31.4768 90.1941 30.8977 90.5962 30.1578C90.9983 29.4019 91.2798 28.5253 91.4407 27.528C91.6176 26.5308 91.7061 25.4451 91.7061 24.2709Z" fill="#022385"/>
<path d="M45.8169 24.2947V23.788C45.8169 21.874 46.0903 20.1127 46.6372 18.5042C47.1841 16.8797 47.9803 15.4723 49.0258 14.2821C50.0713 13.0918 51.35 12.1669 52.8619 11.5075C54.3739 10.8319 56.0949 10.4941 58.0251 10.4941C59.9874 10.4941 61.7245 10.8319 63.2364 11.5075C64.7645 12.1669 66.0512 13.0918 67.0967 14.2821C68.1422 15.4723 68.9384 16.8797 69.4853 18.5042C70.0322 20.1127 70.3056 21.874 70.3056 23.788V24.2947C70.3056 26.1927 70.0322 27.9539 69.4853 29.5785C68.9384 31.1869 68.1422 32.5943 67.0967 33.8007C66.0512 34.9909 64.7725 35.9158 63.2606 36.5752C61.7486 37.2347 60.0195 37.5644 58.0733 37.5644C56.1432 37.5644 54.4141 37.2347 52.886 36.5752C51.358 35.9158 50.0713 34.9909 49.0258 33.8007C47.9803 32.5943 47.1841 31.1869 46.6372 29.5785C46.0903 27.9539 45.8169 26.1927 45.8169 24.2947ZM52.1864 23.788V24.2947C52.1864 25.4367 52.299 26.5063 52.5241 27.5036C52.7493 28.5008 53.0951 29.3774 53.5616 30.1334C54.028 30.8894 54.6312 31.4845 55.3711 31.9188C56.1271 32.337 57.0278 32.5461 58.0733 32.5461C59.1027 32.5461 59.9874 32.337 60.7273 31.9188C61.4671 31.4845 62.0703 30.8894 62.5368 30.1334C63.0193 29.3774 63.3732 28.5008 63.5983 27.5036C63.8235 26.5063 63.9361 25.4367 63.9361 24.2947V23.788C63.9361 22.6621 63.8235 21.6086 63.5983 20.6274C63.3732 19.6302 63.0193 18.7536 62.5368 17.9976C62.0703 17.2255 61.4591 16.6224 60.7031 16.1881C59.9632 15.7377 59.0705 15.5125 58.0251 15.5125C56.9956 15.5125 56.111 15.7377 55.3711 16.1881C54.6312 16.6224 54.028 17.2255 53.5616 17.9976C53.0951 18.7536 52.7493 19.6302 52.5241 20.6274C52.299 21.6086 52.1864 22.6621 52.1864 23.788Z" fill="#022385"/>
<path d="M39.8711 0.0234375C40.4234 0.0234375 40.8711 0.471153 40.8711 1.02344V36.0823C40.8711 36.6345 40.4234 37.0823 39.8711 37.0823H35.4775C34.9253 37.0823 34.4775 36.6345 34.4775 36.0823V1.02344C34.4775 0.471151 34.9253 0.0234375 35.4775 0.0234375H39.8711Z" fill="#022385"/>
<path d="M28.3249 18.9151V32.251C28.3249 32.4739 28.2524 32.6921 28.1051 32.8595C27.5902 33.4447 26.8512 34.0723 25.8881 34.7423C24.7943 35.5144 23.3628 36.1819 21.5935 36.7448C19.8242 37.2917 17.6528 37.5651 15.0792 37.5651C12.8435 37.5651 10.8008 37.1952 8.95104 36.4553C7.10132 35.6993 5.50895 34.5975 4.17394 33.1499C2.83892 31.7023 1.80951 29.933 1.08571 27.842C0.361902 25.751 0 23.3625 0 20.6763V18.3602C0 15.6741 0.337775 13.2855 1.01333 11.1945C1.70496 9.10351 2.68612 7.33421 3.95679 5.8866C5.24356 4.43899 6.77963 3.3372 8.56501 2.58123C10.3665 1.82525 12.377 1.44727 14.5967 1.44727C17.5723 1.44727 20.0172 1.93784 21.9313 2.919C23.8614 3.90016 25.3412 5.25126 26.3706 6.97231C27.2249 8.38724 27.8133 9.97942 28.1359 11.7488C28.2431 12.3371 27.776 12.8593 27.1781 12.8593H22.7004C22.2035 12.8593 21.7877 12.4927 21.6774 12.0082C21.4784 11.1338 21.177 10.3479 20.7732 9.65039C20.2424 8.71748 19.4864 7.99368 18.5053 7.47897C17.5402 6.94818 16.2856 6.68279 14.7415 6.68279C13.4386 6.68279 12.2886 6.94014 11.2913 7.45485C10.2941 7.96955 9.4577 8.71748 8.78215 9.69864C8.1066 10.6798 7.5919 11.8942 7.23804 13.3418C6.90026 14.7894 6.73138 16.4461 6.73138 18.3119V20.6763C6.73138 22.5582 6.92439 24.231 7.31042 25.6947C7.69645 27.1423 8.25136 28.3648 8.97517 29.362C9.71506 30.3432 10.6238 31.0911 11.7015 31.6058C12.7952 32.1044 14.0338 32.3537 15.417 32.3537C16.6716 32.3537 17.7091 32.2492 18.5294 32.0401C19.3658 31.8149 20.0333 31.5495 20.5319 31.2439C21.0305 30.9383 21.4166 30.6407 21.69 30.3512V23.7646H15.7173C15.1651 23.7646 14.7173 23.3169 14.7173 22.7646V19.9151C14.7173 19.3628 15.1651 18.9151 15.7173 18.9151H28.3249Z" fill="#022385"/>
</svg>
