<svg width="209" height="34" viewBox="0 0 209 34" fill="none" xmlns="http://www.w3.org/2000/svg">
<path d="M194.109 0C194.661 0 195.109 0.447715 195.109 1V27.4303C195.109 27.9825 194.661 28.4303 194.109 28.4303H191.225C190.673 28.4303 190.225 27.9825 190.225 27.4303V1C190.225 0.447717 190.673 0 191.225 0H194.109ZM205.421 8.41624C206.284 8.41624 206.741 9.4365 206.167 10.0812L198.938 18.2013L194.221 22.9921L192.667 19.2001L196.311 14.6128L201.451 8.75663C201.64 8.54028 201.914 8.41624 202.202 8.41624H205.421ZM203.192 28.4303C202.857 28.4303 202.544 28.2627 202.359 27.9838L196.459 19.1077L199.715 15.9446L207.236 26.863C207.693 27.5264 207.218 28.4303 206.413 28.4303H203.192Z" fill="#FF6213"/>
<path d="M181.458 12.5036V27.4297C181.458 27.982 181.01 28.4297 180.458 28.4297H177.574C177.022 28.4297 176.574 27.982 176.574 27.4297V9.41572C176.574 8.86343 177.022 8.41572 177.574 8.41572H180.26C180.788 8.41572 181.225 8.82582 181.258 9.3525L181.458 12.5036ZM187.543 8.28624L187.469 12.8366C187.198 12.7872 186.89 12.7502 186.544 12.7256C186.212 12.7009 185.897 12.6886 185.601 12.6886C184.849 12.6886 184.189 12.7934 183.622 13.003C183.055 13.2003 182.58 13.4901 182.198 13.8724C181.828 14.2547 181.544 14.7233 181.347 15.2782C181.149 15.8208 181.038 16.4374 181.014 17.1279L179.959 16.9984C179.959 15.7283 180.089 14.5506 180.348 13.4655C180.607 12.3803 180.983 11.4308 181.476 10.6169C181.969 9.80301 182.586 9.17411 183.326 8.73017C184.078 8.27391 184.941 8.04578 185.916 8.04578C186.187 8.04578 186.477 8.07044 186.785 8.11977C187.106 8.15676 187.358 8.21225 187.543 8.28624Z" fill="#FF6213"/>
<path d="M167.252 24.1754V14.9452C167.252 14.267 167.135 13.6813 166.9 13.188C166.666 12.6948 166.309 12.3125 165.828 12.0412C165.347 11.7699 164.736 11.6342 163.996 11.6342C163.343 11.6342 162.769 11.7452 162.276 11.9672C161.795 12.1892 161.425 12.5036 161.166 12.9106C161.085 13.0351 161.016 13.1657 160.96 13.3025C160.751 13.8137 160.33 14.2793 159.778 14.2793H156.876C156.324 14.2793 155.865 13.8271 155.975 13.286C156.071 12.819 156.235 12.3671 156.468 11.9302C156.863 11.178 157.424 10.5121 158.151 9.9325C158.891 9.34058 159.773 8.87815 160.796 8.5452C161.832 8.21225 162.991 8.04578 164.274 8.04578C165.791 8.04578 167.141 8.30474 168.325 8.82266C169.521 9.32825 170.458 10.0928 171.136 11.1163C171.827 12.1398 172.172 13.4285 172.172 14.9822V23.7129C172.172 24.7118 172.234 25.5688 172.357 26.2841C172.493 26.987 172.69 27.5974 172.949 28.1153V28.4297H167.973C167.739 27.9241 167.56 27.2829 167.437 26.506C167.314 25.7168 167.252 24.9399 167.252 24.1754ZM167.936 16.2401L167.973 19.1441H164.884C164.12 19.1441 163.448 19.2243 162.868 19.3846C162.288 19.5326 161.814 19.7545 161.444 20.0505C161.074 20.3341 160.796 20.6794 160.611 21.0863C160.426 21.4809 160.334 21.931 160.334 22.4366C160.334 22.9299 160.445 23.3738 160.667 23.7684C160.901 24.163 161.234 24.4775 161.666 24.7118C162.11 24.9338 162.628 25.0447 163.219 25.0447C164.083 25.0447 164.835 24.8721 165.476 24.5268C166.117 24.1692 166.617 23.7376 166.974 23.232C167.332 22.7264 167.523 22.2455 167.548 21.7892L168.954 23.8979C168.781 24.4035 168.522 24.9399 168.177 25.5072C167.831 26.0744 167.388 26.6047 166.845 27.0979C166.302 27.5912 165.649 27.9981 164.884 28.3188C164.12 28.6394 163.232 28.7997 162.221 28.7997C160.926 28.7997 159.767 28.5407 158.743 28.0228C157.72 27.5049 156.912 26.7958 156.32 25.8956C155.728 24.9954 155.432 23.9719 155.432 22.8251C155.432 21.7646 155.629 20.8274 156.024 20.0135C156.419 19.1996 157.004 18.5152 157.781 17.9603C158.558 17.3931 159.52 16.9676 160.667 16.684C161.826 16.388 163.152 16.2401 164.644 16.2401H167.936Z" fill="#FF6213"/>
<path d="M146.979 23.6759V9.41565C146.979 8.86336 147.427 8.41565 147.979 8.41565H150.899C151.451 8.41565 151.899 8.86336 151.899 9.41565V28.4297H147.275L146.979 23.6759ZM147.608 19.5325L149.125 19.4955C149.125 20.8396 148.977 22.0789 148.681 23.2134C148.385 24.3479 147.922 25.3345 147.293 26.173C146.677 26.9992 145.894 27.6466 144.944 28.1152C143.995 28.5715 142.872 28.7996 141.578 28.7996C140.591 28.7996 139.691 28.664 138.877 28.3927C138.063 28.109 137.36 27.6713 136.768 27.0794C136.189 26.4751 135.739 25.7044 135.418 24.7672C135.097 23.8177 134.937 22.677 134.937 21.3452V9.41565C134.937 8.86336 135.385 8.41565 135.937 8.41565H138.82C139.373 8.41565 139.82 8.86336 139.82 9.41565V21.3822C139.82 22.0481 139.894 22.603 140.042 23.047C140.203 23.4909 140.418 23.8547 140.69 24.1383C140.973 24.4096 141.3 24.6069 141.67 24.7302C142.052 24.8412 142.459 24.8967 142.891 24.8967C144.075 24.8967 145.006 24.6624 145.684 24.1938C146.375 23.7129 146.868 23.0716 147.164 22.2701C147.46 21.4562 147.608 20.5437 147.608 19.5325Z" fill="#FF6213"/>
<path d="M123.765 24.6378L129.999 29.5867C130.489 29.9757 130.506 30.7141 130.034 31.1246L128.316 32.6175C127.951 32.9346 127.412 32.9454 127.035 32.6432L120.62 27.5049L123.765 24.6378ZM131.071 14.2794V15.6666C131.071 17.7013 130.8 19.5326 130.257 21.1603C129.715 22.7758 128.938 24.1507 127.927 25.2852C126.928 26.4197 125.738 27.2891 124.357 27.8933C122.976 28.4976 121.447 28.7997 119.77 28.7997C118.105 28.7997 116.576 28.4976 115.182 27.8933C113.801 27.2891 112.605 26.4197 111.594 25.2852C110.583 24.1507 109.8 22.7758 109.245 21.1603C108.69 19.5326 108.412 17.7013 108.412 15.6666V14.2794C108.412 12.2323 108.684 10.4011 109.226 8.78567C109.781 7.17024 110.558 5.79528 111.557 4.66078C112.568 3.51395 113.764 2.63842 115.145 2.03417C116.539 1.42993 118.068 1.12781 119.733 1.12781C121.41 1.12781 122.939 1.42993 124.32 2.03417C125.713 2.63842 126.909 3.51395 127.908 4.66078C128.92 5.79528 129.696 7.17024 130.239 8.78567C130.794 10.4011 131.071 12.2323 131.071 14.2794ZM125.929 15.6666V14.2424C125.929 12.7749 125.793 11.4863 125.522 10.3764C125.251 9.25426 124.844 8.31091 124.301 7.54635C123.771 6.7818 123.124 6.20838 122.359 5.82611C121.595 5.4315 120.719 5.2342 119.733 5.2342C118.758 5.2342 117.889 5.4315 117.124 5.82611C116.36 6.20838 115.712 6.7818 115.182 7.54635C114.652 8.31091 114.245 9.25426 113.961 10.3764C113.69 11.4863 113.554 12.7749 113.554 14.2424V15.6666C113.554 17.1218 113.69 18.4104 113.961 19.5326C114.245 20.6547 114.652 21.6043 115.182 22.3811C115.725 23.1457 116.378 23.7253 117.143 24.1199C117.92 24.5145 118.795 24.7118 119.77 24.7118C120.756 24.7118 121.632 24.5145 122.396 24.1199C123.161 23.7253 123.802 23.1457 124.32 22.3811C124.85 21.6043 125.251 20.6547 125.522 19.5326C125.793 18.4104 125.929 17.1218 125.929 15.6666Z" fill="#FF6213"/>
<path d="M103.287 0.0181885C103.839 0.0181885 104.287 0.465904 104.287 1.01819V27.43C104.287 27.9822 103.839 28.43 103.287 28.43H100.385C99.8331 28.43 99.3854 27.9822 99.3854 27.43V1.01819C99.3854 0.465905 99.8331 0.0181885 100.385 0.0181885H103.287Z" fill="white"/>
<path d="M89.7854 24.1754V14.9452C89.7854 14.267 89.6683 13.6813 89.434 13.188C89.1997 12.6948 88.8421 12.3125 88.3612 12.0412C87.8802 11.7699 87.2698 11.6342 86.5299 11.6342C85.8764 11.6342 85.3029 11.7452 84.8097 11.9672C84.3288 12.1892 83.9588 12.5036 83.6998 12.9106C83.6181 13.0351 83.5493 13.1657 83.4934 13.3025C83.2844 13.8137 82.8637 14.2793 82.3114 14.2793H79.4096C78.8573 14.2793 78.3983 13.8271 78.5089 13.286C78.6043 12.819 78.7685 12.3671 79.0015 11.9302C79.3962 11.178 79.9572 10.5121 80.6848 9.9325C81.4247 9.34058 82.3064 8.87815 83.3299 8.5452C84.3657 8.21225 85.5249 8.04578 86.8074 8.04578C88.3242 8.04578 89.6745 8.30474 90.8583 8.82266C92.0544 9.32825 92.9916 10.0928 93.6699 11.1163C94.3604 12.1398 94.7057 13.4285 94.7057 14.9822V23.7129C94.7057 24.7118 94.7674 25.5688 94.8907 26.2841C95.0263 26.987 95.2236 27.5974 95.4826 28.1153V28.4297H90.5068C90.2725 27.9241 90.0937 27.2829 89.9704 26.506C89.8471 25.7168 89.7854 24.9399 89.7854 24.1754ZM90.4698 16.2401L90.5068 19.1441H87.4178C86.6532 19.1441 85.9812 19.2243 85.4016 19.3846C84.822 19.5326 84.3472 19.7545 83.9773 20.0505C83.6074 20.3341 83.3299 20.6794 83.1449 21.0863C82.96 21.4809 82.8675 21.931 82.8675 22.4366C82.8675 22.9299 82.9785 23.3738 83.2004 23.7684C83.4347 24.163 83.7677 24.4775 84.1993 24.7118C84.6432 24.9338 85.1611 25.0447 85.753 25.0447C86.6162 25.0447 87.3685 24.8721 88.0097 24.5268C88.6509 24.1692 89.1504 23.7376 89.508 23.232C89.8656 22.7264 90.0567 22.2455 90.0814 21.7892L91.4872 23.8979C91.3145 24.4035 91.0556 24.9399 90.7103 25.5072C90.365 26.0744 89.9211 26.6047 89.3785 27.0979C88.8359 27.5912 88.1823 27.9981 87.4178 28.3188C86.6532 28.6394 85.7654 28.7997 84.7542 28.7997C83.4594 28.7997 82.3002 28.5407 81.2767 28.0228C80.2532 27.5049 79.4455 26.7958 78.8536 25.8956C78.2617 24.9954 77.9657 23.9719 77.9657 22.8251C77.9657 21.7646 78.163 20.8274 78.5576 20.0135C78.9522 19.1996 79.538 18.5152 80.3148 17.9603C81.0917 17.3931 82.0536 16.9676 83.2004 16.684C84.3596 16.388 85.6852 16.2401 87.1773 16.2401H90.4698Z" fill="white"/>
<path d="M57.4336 1.01819C57.4336 0.465905 57.8813 0.0181885 58.4336 0.0181885H61.3354C61.8876 0.0181885 62.3354 0.465904 62.3354 1.01819V24.0091L61.9515 27.5381C61.8963 28.0455 61.4678 28.43 60.9573 28.43H58.4336C57.8813 28.43 57.4336 27.9822 57.4336 27.43V1.01819ZM75.2094 18.2195V18.6079C75.2094 20.1 75.043 21.4688 74.71 22.7143C74.3894 23.9598 73.9023 25.0388 73.2487 25.9513C72.5952 26.8515 71.7813 27.5544 70.8071 28.06C69.8452 28.5533 68.7169 28.7999 67.4221 28.7999C66.189 28.7999 65.1161 28.5594 64.2036 28.0785C63.3034 27.5976 62.545 26.9193 61.9284 26.0438C61.3119 25.1559 60.8186 24.1139 60.4486 22.9178C60.0787 21.7093 59.8012 20.3898 59.6163 18.9594V17.905C59.8012 16.4622 60.0787 15.1428 60.4486 13.9466C60.8186 12.7505 61.3119 11.7084 61.9284 10.8206C62.545 9.93271 63.3034 9.24831 64.2036 8.76739C65.1038 8.28646 66.1643 8.04599 67.3851 8.04599C68.6923 8.04599 69.8329 8.29879 70.8071 8.80438C71.7936 9.29764 72.6075 10.0005 73.2487 10.9131C73.9023 11.8133 74.3894 12.8861 74.71 14.1316C75.043 15.3647 75.2094 16.7274 75.2094 18.2195ZM70.3077 18.6079V18.2195C70.3077 17.3686 70.2399 16.5671 70.1042 15.8148C69.9686 15.0503 69.7466 14.3782 69.4383 13.7986C69.13 13.2191 68.7108 12.7628 68.1805 12.4298C67.6502 12.0969 66.9843 11.9304 66.1828 11.9304C65.4182 11.9304 64.7647 12.0599 64.2221 12.3189C63.6918 12.5778 63.2479 12.9354 62.8903 13.3917C62.545 13.848 62.2737 14.3844 62.0764 15.001C61.8914 15.6175 61.7681 16.2834 61.7065 16.9987V19.8842C61.7928 20.8338 61.9962 21.6908 62.3169 22.4553C62.6375 23.2076 63.1122 23.8056 63.7412 24.2496C64.3824 24.6935 65.2086 24.9155 66.2198 24.9155C67.009 24.9155 67.6687 24.7613 68.199 24.4531C68.7292 24.1324 69.1485 23.6885 69.4568 23.1212C69.7651 22.5417 69.9809 21.8696 70.1042 21.105C70.2399 20.3405 70.3077 19.5081 70.3077 18.6079Z" fill="white"/>
<path d="M35.126 18.6262V18.2378C35.126 16.7703 35.3356 15.42 35.7549 14.1869C36.1742 12.9414 36.7846 11.8624 37.5861 10.9498C38.3877 10.0373 39.368 9.32825 40.5272 8.82266C41.6863 8.30474 43.0058 8.04578 44.4856 8.04578C45.99 8.04578 47.3218 8.30474 48.481 8.82266C49.6525 9.32825 50.639 10.0373 51.4405 10.9498C52.2421 11.8624 52.8525 12.9414 53.2718 14.1869C53.691 15.42 53.9007 16.7703 53.9007 18.2378V18.6262C53.9007 20.0813 53.691 21.4316 53.2718 22.6771C52.8525 23.9102 52.2421 24.9893 51.4405 25.9141C50.639 26.8266 49.6586 27.5357 48.4995 28.0413C47.3403 28.5469 46.0147 28.7997 44.5226 28.7997C43.0428 28.7997 41.7172 28.5469 40.5457 28.0413C39.3742 27.5357 38.3877 26.8266 37.5861 25.9141C36.7846 24.9893 36.1742 23.9102 35.7549 22.6771C35.3356 21.4316 35.126 20.0813 35.126 18.6262ZM40.0092 18.2378V18.6262C40.0092 19.5017 40.0956 20.3218 40.2682 21.0863C40.4409 21.8509 40.706 22.523 41.0636 23.1025C41.4212 23.6821 41.8836 24.1384 42.4509 24.4713C43.0305 24.7919 43.721 24.9523 44.5226 24.9523C45.3118 24.9523 45.99 24.7919 46.5573 24.4713C47.1245 24.1384 47.587 23.6821 47.9446 23.1025C48.3145 22.523 48.5858 21.8509 48.7584 21.0863C48.9311 20.3218 49.0174 19.5017 49.0174 18.6262V18.2378C49.0174 17.3746 48.9311 16.5668 48.7584 15.8146C48.5858 15.0501 48.3145 14.378 47.9446 13.7984C47.587 13.2065 47.1184 12.7441 46.5388 12.4111C45.9715 12.0658 45.2871 11.8932 44.4856 11.8932C43.6964 11.8932 43.0181 12.0658 42.4509 12.4111C41.8836 12.7441 41.4212 13.2065 41.0636 13.7984C40.706 14.378 40.4409 15.0501 40.2682 15.8146C40.0956 16.5668 40.0092 17.3746 40.0092 18.2378Z" fill="white"/>
<path d="M30.334 0.0181885C30.8863 0.0181885 31.334 0.465904 31.334 1.01819V27.43C31.334 27.9822 30.8863 28.43 30.334 28.43H27.4323C26.88 28.43 26.4323 27.9822 26.4323 27.43V1.01819C26.4323 0.465905 26.88 0.0181885 27.4323 0.0181885H30.334Z" fill="white"/>
<path d="M21.7158 14.5016V24.6455C21.7158 24.8685 21.6437 25.0871 21.4938 25.2522C21.102 25.6837 20.5532 26.1449 19.8475 26.6358C19.009 27.2277 17.9115 27.7395 16.555 28.1711C15.1986 28.5904 13.5338 28.8 11.5608 28.8C9.8467 28.8 8.2806 28.5164 6.86248 27.9491C5.44436 27.3695 4.22354 26.5248 3.20002 25.415C2.17651 24.3052 1.38729 22.9487 0.832376 21.3456C0.277459 19.7425 0 17.9113 0 15.8519V14.0762C0 12.0168 0.258961 10.1856 0.776884 8.58251C1.30714 6.97941 2.05936 5.62295 3.03355 4.51311C4.02007 3.40328 5.19773 2.55857 6.56652 1.97899C7.94765 1.39941 9.48909 1.10962 11.1908 1.10962C13.4722 1.10962 15.3465 1.48573 16.814 2.23795C18.2938 2.99017 19.4283 4.02602 20.2175 5.34549C20.8308 6.36129 21.2654 7.49625 21.5212 8.75036C21.6408 9.33621 21.1725 9.85882 20.5746 9.85882H17.6057C17.1087 9.85882 16.6951 9.49145 16.5719 9.01C16.4205 8.41781 16.2052 7.8807 15.9261 7.39868C15.5192 6.68345 14.9396 6.12854 14.1874 5.73393C13.4475 5.32699 12.4856 5.12352 11.3018 5.12352C10.303 5.12352 9.42126 5.32083 8.65671 5.71543C7.89216 6.11004 7.25092 6.68345 6.733 7.43568C6.21507 8.1879 5.82047 9.11893 5.54917 10.2288C5.29021 11.3386 5.16073 12.6087 5.16073 14.0392V15.8519C5.16073 17.2947 5.30871 18.5772 5.60466 19.6993C5.90062 20.8092 6.32606 21.7464 6.88097 22.5109C7.44822 23.2632 8.14495 23.8366 8.97116 24.2312C9.8097 24.6134 10.7592 24.8046 11.8197 24.8046C12.7816 24.8046 13.577 24.7244 14.2059 24.5641C14.8471 24.3915 15.3589 24.188 15.7412 23.9537C16.1234 23.7194 16.4194 23.4913 16.629 23.2693V18.2196H12.2833C11.731 18.2196 11.2833 17.7719 11.2833 17.2196V15.5016C11.2833 14.9493 11.731 14.5016 12.2833 14.5016H21.7158Z" fill="white"/>
</svg>
