<svg width="78" height="97" viewBox="0 0 78 97" fill="none" xmlns="http://www.w3.org/2000/svg">
<g clip-path="url(#clip0_21_1347582)">
<path d="M25.9937 0.194931C26.8601 0.194931 27.7279 0.228441 28.5924 0.189017C31.0023 0.0779738 33.4141 0.203473 35.8214 0.112798C38.0339 0.0306654 40.2458 0.0273799 42.4583 0.0359217C43.7517 0.0405212 45.0458 0.0359218 46.3399 0.0773167C47.8037 0.120683 49.2702 0.168648 50.7294 0.283634C51.9136 0.376937 53.1051 0.415046 54.2926 0.464326C55.4505 0.512291 56.6091 0.530032 57.765 0.602966C58.8137 0.668672 59.865 0.673271 60.9117 0.742263C62.2775 0.831623 63.6545 0.857905 65.0137 1.05962C66.7999 1.32705 68.5664 1.74034 70.1171 2.68651C72.1987 3.95595 73.402 5.88771 73.9987 8.23276C74.3287 9.57241 74.5824 10.9297 74.7586 12.298C74.9158 13.4636 75.0276 14.6371 75.1132 15.812C75.2829 18.1235 75.3823 20.437 75.4546 22.7538C75.5119 24.5798 75.5421 26.4064 75.5862 28.2324C75.6803 32.3371 75.6316 36.4417 75.6211 40.5464C75.6145 42.5373 75.5706 44.5282 75.4895 46.5191C75.4119 48.351 75.2665 50.1793 75.0533 52.0042C74.9151 53.1948 74.8053 54.3894 74.702 55.5845C74.6145 56.5912 74.3875 57.5814 74.1099 58.5531C73.7809 59.7299 73.4013 60.891 72.7493 61.9449C71.7829 63.5061 70.4316 64.5679 68.7072 65.1881C67.5329 65.6106 66.3388 65.9398 65.0999 66.0923C64.3328 66.1869 63.5605 66.2533 62.7887 66.2973C61.3275 66.3801 59.8677 66.4898 58.4025 66.5187C57.5314 66.5358 56.6591 66.6048 55.786 66.6396C54.1808 66.7053 52.5768 66.8124 50.9715 66.8821C50.2057 66.9149 49.4386 66.9162 48.6689 66.9517C47.5754 67.001 46.4794 66.978 45.3866 67.0351C43.7333 67.1225 42.0787 67.1009 40.4247 67.1009C36.93 67.1101 33.4345 67.1265 29.9411 67.0641C28.2549 67.0338 26.5674 67.0825 24.8838 67.0049C23.3279 66.9333 21.7726 66.9997 20.218 66.9451C19.0844 66.9051 17.9476 66.863 16.8199 66.748C14.8002 66.5437 12.7784 66.3295 10.8028 65.8386C9.00604 65.3918 7.4126 64.5988 6.14943 63.1887C5.12048 62.0408 4.51389 60.705 4.10534 59.2424C3.63362 57.5518 3.35599 55.8362 3.17704 54.0891C3.0209 52.5678 2.91125 51.0445 2.84809 49.5192C2.77506 47.8713 2.63361 46.2273 2.53296 44.5807C2.34216 41.4531 2.42506 38.3216 2.40138 35.192C2.37769 32.1156 2.35466 29.0386 2.4323 25.9629C2.46453 24.6849 2.51388 23.4063 2.60927 22.1316C2.74743 20.2675 2.83625 18.4008 2.93822 16.5347C3.01256 15.1851 3.12507 13.8355 3.26717 12.4912C3.43033 10.9261 3.54481 9.35174 4.04021 7.83852C4.72442 5.74841 5.82969 3.95529 7.65866 2.67468C8.65274 1.98082 9.80144 1.63258 10.9554 1.32245C12.2265 0.981433 13.5212 0.781687 14.8317 0.648303C16.0028 0.529375 17.1745 0.451185 18.3482 0.373651C19.7147 0.284291 21.0818 0.290205 22.4469 0.242239C23.6252 0.194931 24.8095 0.200844 25.9937 0.194931ZM17.1456 23.5922C17.1083 23.6359 17.0688 23.6776 17.0272 23.7171C15.8956 24.541 14.7613 25.3597 13.6324 26.1896C13.4955 26.2901 13.4146 26.2553 13.2982 26.1613C12.7765 25.7277 12.2455 25.3072 11.7192 24.8755C11.2811 24.5161 10.8054 24.4812 10.3113 24.7283C9.70539 25.0299 9.10604 25.3459 8.50669 25.66C8.01787 25.9163 7.65603 26.6213 7.79747 27.1896C8.00669 28.0307 8.53827 28.7232 8.88762 29.5721C9.19617 29.0143 9.63367 28.7245 10.1653 28.5688C10.5231 28.4682 10.8923 28.4137 11.264 28.4065C12.8429 28.3533 14.416 28.4657 15.9916 28.4992C17.8212 28.5373 19.6397 28.6963 21.4614 28.8356C23.5009 28.9933 25.5272 29.195 27.5417 29.5583C29.1628 29.8501 30.7786 30.1628 32.3628 30.6195C34.7122 31.2969 36.9155 32.3101 39.0425 33.5106C42.262 35.306 45.0772 37.7439 47.3129 40.6725C49.5945 43.6661 50.8972 47.0914 51.365 50.8287C51.576 52.5045 51.4907 54.2043 51.113 55.8507C50.5867 58.1504 49.5998 60.2622 48.3287 62.2432C47.9893 62.7689 47.6616 63.309 47.3064 63.8773C47.4669 63.8773 47.5741 63.8832 47.68 63.8773C49.1718 63.771 50.6451 63.4841 52.0676 63.0231C53.7742 62.4824 55.3939 61.755 56.8321 60.6781C58.6703 59.2989 59.9413 57.4598 60.9604 55.442C62.6012 52.1895 63.7236 48.7321 64.8874 45.2956C65.8085 42.5787 66.4355 39.7763 67.0914 36.9858C67.7329 34.2557 68.2894 31.5085 68.675 28.7291C68.9059 27.0628 69.0987 25.3926 69.2671 23.7184C69.4394 22.0205 69.596 20.322 69.6421 18.6156C69.6954 16.722 69.6256 14.831 69.5059 12.9419C69.3927 11.1416 69.0342 9.39379 68.1901 7.7761C66.7809 5.06638 64.2381 3.77657 61.2394 4.10839C59.5242 4.29434 57.9617 4.96717 56.488 5.84763C54.7643 6.88053 53.2452 8.18874 51.6853 9.43518C48.9222 11.6357 46.1985 13.8822 43.3603 15.9848C41.6135 17.2805 39.8188 18.5105 38.0162 19.7248C35.1964 21.6243 32.3247 23.4266 29.1102 24.6107C27.9027 25.0548 26.6827 25.4587 25.4503 25.8223C25.3706 25.8453 25.2529 25.934 25.1871 25.8046C25.1114 25.6574 25.2476 25.6219 25.3371 25.5674C25.5805 25.4208 25.8167 25.2605 26.0687 25.1317C28.0105 24.1327 29.7367 22.7622 31.149 21.098C31.2556 20.9745 31.3812 20.8582 31.4246 20.6801C30.3799 20.7866 29.3667 20.9357 28.3503 21.056C26.7943 21.24 25.2332 21.3122 23.6706 21.3543C22.7851 21.3779 21.8989 21.3746 21.0121 21.3227C20.0052 21.273 18.9961 21.2871 17.991 21.3648C17.3703 21.4077 16.7529 21.4889 16.1423 21.6079C14.9798 21.8326 13.9502 22.3911 12.8923 22.8793C12.635 22.9982 12.3659 23.1047 12.1508 23.2933C12.085 23.3498 12.0192 23.4214 12.0567 23.516C12.0942 23.6106 12.1883 23.5758 12.2613 23.5705C13.8686 23.4608 15.4739 23.5699 17.1456 23.5922ZM14.7863 31.477C13.5712 31.4559 12.4238 31.5308 11.2778 31.6136C11.1462 31.6235 10.9343 31.5624 10.9857 31.864C11.183 33.0355 11.4015 34.2044 11.6547 35.3668C12.4673 39.1002 13.5041 42.7718 14.6811 46.4054C15.5581 49.1243 16.4508 51.834 17.6923 54.4163C18.7081 56.5274 19.9022 58.5078 21.5877 60.1649C23.2397 61.7898 25.1003 63.0672 27.3463 63.7328C29.2812 64.3044 31.2773 64.4325 33.2766 64.5074C35.5793 64.5935 37.8635 64.5015 40.1188 63.9358C43.2175 63.1591 45.4195 61.3351 46.7781 58.4585C47.5564 56.8113 47.884 55.0615 47.9906 53.2677C48.0866 51.6356 48.0044 50.0054 47.5893 48.4173C46.7998 45.3876 45.3892 42.7009 43.0557 40.5562C41.7399 39.3466 40.2267 38.428 38.6359 37.6474C36.6247 36.6618 34.499 36.2183 32.2543 36.4693C30.7102 36.6428 29.3056 37.219 27.9779 38.0055C27.9003 38.0515 27.8378 38.156 27.7253 38.0548C27.6246 37.9635 27.7115 37.8892 27.7463 37.8235C27.9957 37.3557 28.1332 36.8524 28.2411 36.3386C28.593 34.667 27.874 33.3161 26.293 32.6761C25.4253 32.3265 24.5055 32.1899 23.5877 32.0847C22.2108 31.9244 20.8292 31.7851 19.443 31.6971C17.8693 31.5939 16.3002 31.4474 14.7863 31.477ZM35.5872 17.7562C35.3721 17.5348 35.1964 17.3423 35.0076 17.1649C32.4443 14.7165 29.746 12.4132 26.9253 10.2657C24.8345 8.68022 22.7805 7.04611 20.6298 5.54078C19.0857 4.4586 17.4061 3.84031 15.4673 4.05977C14.1653 4.20498 13.0212 4.67478 12.0863 5.55195C10.4014 7.13218 9.67775 9.19601 9.60407 11.4353C9.49946 14.7488 9.56459 18.0663 9.71789 21.3806C9.72578 21.5435 9.76394 21.7058 9.79289 21.8983C9.9521 21.7544 10.0745 21.646 10.1949 21.5363C11.8765 20.0165 13.8686 19.1459 16.0989 18.8824C17.3239 18.7379 18.5693 18.7411 19.8061 18.7352C22.6312 18.7221 25.4568 18.7687 28.2726 18.4685C29.1536 18.3745 30.0398 18.3331 30.9207 18.2503C32.1931 18.1307 33.4635 17.996 34.7365 17.8646C35.0069 17.8383 35.2845 17.7956 35.5872 17.7562Z" fill="white"/>
<path d="M42.6721 92.0944C42.8819 91.62 42.8885 91.0845 43.001 90.5694C43.0155 90.5037 43.0194 90.438 43.0326 90.3762C43.1806 89.6534 43.1813 89.6469 43.9109 89.7691C44.0376 89.7979 44.1666 89.8157 44.2964 89.8223C44.4464 89.8223 44.5286 89.8952 44.5865 90.0371C45.3102 91.823 46.6991 92.8251 48.5339 93.2108C49.6129 93.4374 50.7162 93.5104 51.7965 93.1128C52.8103 92.7403 53.6333 91.6581 53.7294 90.5989C53.8978 88.7592 52.9886 87.6264 51.2294 86.9443C49.1418 86.1335 47.1089 85.2163 45.2543 83.9298C43.2931 82.569 42.2773 80.6865 42.0082 78.3644C41.7852 76.4294 42.1852 74.6304 43.3425 73.0422C44.2846 71.7511 45.5681 70.8739 47.0267 70.2524C48.1776 69.7673 49.3996 69.4717 50.6451 69.3772C53.3998 69.1492 55.957 69.7438 58.3544 71.0967C58.5472 71.2058 58.5452 71.3135 58.4992 71.4857C58.1321 72.8484 57.7676 74.2118 57.4057 75.5759C57.3511 75.7809 57.2195 75.8906 57.0057 75.8873C56.7209 75.8834 56.436 75.8683 56.1505 75.8689C55.9715 75.8689 55.9116 75.7441 55.8459 75.6173C55.2972 74.5601 54.5261 73.7177 53.4346 73.2105C52.1735 72.6244 50.8576 72.5258 49.557 73.0133C47.9997 73.5988 47.2464 75.7316 48.0701 77.0871C48.5004 77.7928 49.1793 78.2219 49.8938 78.5754C51.5603 79.4006 53.2491 80.1773 54.9149 81.0065C56.0636 81.5788 57.2432 82.1163 58.213 82.9777C59.9321 84.5099 60.8939 86.4075 60.888 88.7434C60.8889 88.973 60.87 89.2023 60.8314 89.4287C60.7814 89.7093 60.9281 89.8229 61.1604 89.8006C61.4952 89.7723 61.6209 89.9366 61.7525 90.2185C62.5551 91.9584 63.9637 92.9 65.8196 93.2344C66.6854 93.3908 67.5466 93.4315 68.415 93.239C69.0652 93.0993 69.6522 92.7521 70.0872 92.2497C70.5222 91.7473 70.7817 91.1171 70.8262 90.4544C70.9203 88.9116 70.2249 87.7854 68.8019 87.1651C67.2999 86.5081 65.7604 85.9377 64.3216 85.1447C63.1656 84.508 62.011 83.8529 61.0979 82.8844C59.9604 81.676 59.3143 80.2147 59.1104 78.5675C58.9423 77.2976 59.0718 76.006 59.4886 74.7946C59.9801 73.3826 60.8867 72.2978 62.061 71.4154C63.4624 70.3641 65.0591 69.7497 66.7749 69.4672C67.9723 69.2701 69.1821 69.2983 70.3933 69.4186C72.1697 69.594 73.7835 70.2215 75.348 71.031C75.6 71.1624 75.6414 71.3056 75.5697 71.5566C75.1925 72.9062 74.8236 74.2582 74.4631 75.6127C74.4263 75.7487 74.3671 75.792 74.2309 75.8334C73.8447 75.9511 73.471 75.815 73.0921 75.8164C72.9486 75.8164 72.9545 75.6633 72.9078 75.5746C72.2072 74.2565 71.1973 73.2939 69.7256 72.9115C68.6321 72.627 67.5144 72.5744 66.4637 73.0817C64.9926 73.792 64.3584 75.8374 65.1808 77.1259C65.6341 77.8368 66.3341 78.2547 67.0571 78.6148C68.4387 79.3027 69.844 79.9381 71.2289 80.6155C72.5164 81.2457 73.8355 81.8331 74.973 82.7181C76.6269 84.0014 77.6842 85.6867 77.9151 87.7775C78.15 89.9011 77.5862 91.8421 76.2362 93.5294C75.4875 94.4664 74.6151 95.2641 73.5315 95.7983C72.5703 96.2713 71.5407 96.521 70.4901 96.7247C69.6647 96.8718 68.8284 96.9489 67.99 96.9553C66.8236 96.9783 65.6657 96.8601 64.5407 96.5131C62.939 96.0306 61.3789 95.42 59.8755 94.6872C59.5847 94.5426 59.4729 94.3981 59.5518 94.0649C59.6413 93.6865 59.6617 93.2916 59.7136 92.8986C59.5729 92.8881 59.5531 92.9979 59.5011 93.0721C58.6242 94.3323 57.5222 95.3409 56.1103 95.9632C55.1544 96.3857 54.1366 96.6248 53.1044 96.7865C52.3478 96.9047 51.5846 96.9396 50.8228 96.9626C49.1892 97.0125 47.6339 96.6255 46.1083 96.0755C45.1392 95.726 44.1852 95.3409 43.1852 94.8843C43.2675 95.2917 43.3129 95.6465 43.4168 95.9835C43.4957 96.2411 43.426 96.2773 43.1905 96.2602C41.3313 96.1235 39.4687 96.1899 37.6075 96.1945C37.1937 96.1945 36.7792 96.2345 36.3661 96.2641C36.2141 96.2746 36.1582 96.2326 36.1569 96.067C36.1463 94.3494 35.9759 92.6417 35.8174 90.9347C35.674 89.3939 35.5042 87.855 35.3213 86.3175C35.1525 84.8996 34.9661 83.4834 34.7621 82.069C34.6628 81.3836 34.5588 80.6937 34.3536 79.9848C34.1325 80.2121 34.0444 80.4822 33.9233 80.7266C32.5636 83.4608 31.209 86.1949 29.8594 88.9287C28.6787 91.3138 27.4993 93.7011 26.3213 96.0906C26.2364 96.2621 26.1318 96.2878 25.9857 96.2575C25.4599 96.1537 24.9188 96.1537 24.393 96.2575C24.2344 96.2904 24.1298 96.2575 24.037 96.0775C22.9423 93.9486 21.8317 91.8283 20.7284 89.704C19.1337 86.6347 17.5405 83.5647 15.9488 80.494C15.8995 80.3994 15.8416 80.3087 15.7626 80.174C15.5896 80.6668 15.5685 81.1418 15.5093 81.6051C15.2988 83.2714 15.0922 84.939 14.9258 86.6099C14.7988 87.88 14.7705 89.1606 14.6343 90.4301C14.4317 92.3119 14.3823 94.2016 14.2613 96.0874C14.2475 96.3048 14.135 96.2759 14.0054 96.2628C12.9244 96.1531 11.8402 96.1971 10.7573 96.1971C10.3882 96.1971 10.0244 96.3285 9.63098 96.2411C9.99743 95.065 10.2303 93.8632 10.4514 92.6582C10.8191 90.6554 11.1376 88.6442 11.4251 86.6276C11.7021 84.6873 11.9935 82.751 12.2606 80.8074C12.4777 79.2305 12.6659 77.6535 12.8698 76.0766C13.1271 74.0863 13.3902 72.0974 13.6409 70.1065C13.6659 69.9094 13.7067 69.8772 13.9179 69.8949C15.0409 69.9928 16.1666 69.9567 17.2909 69.8995C17.5376 69.887 17.6554 69.9527 17.7646 70.1624C18.7295 72.0284 19.7006 73.8901 20.6778 75.7474C22.237 78.7261 23.7969 81.7047 25.3574 84.6834C25.7653 85.464 26.1726 86.2441 26.5792 87.0239C26.739 87.3314 26.7686 87.3406 26.9739 87.0508C27.5311 86.2564 27.9877 85.4016 28.4443 84.5487C29.9522 81.7325 31.3575 78.8638 32.7608 75.9938C33.695 74.0817 34.6211 72.1644 35.5391 70.2419C35.6674 69.9731 35.7773 69.8516 36.1312 69.8897C37.2746 70.0145 38.4253 69.9554 39.5714 69.8897C39.8148 69.8752 39.8411 69.9481 39.8424 70.1525C39.8523 71.5527 40.0181 72.9411 40.1562 74.3327C40.2773 75.5601 40.4378 76.7822 40.5806 78.007C40.7345 79.3284 40.9247 80.6451 41.1109 81.9625C41.2938 83.267 41.4852 84.57 41.6852 85.8714C41.9135 87.3774 42.1286 88.886 42.403 90.3847C42.5069 90.9537 42.5813 91.5267 42.6721 92.0944Z" fill="white"/>
<path d="M1.13754 69.9047C1.93755 69.8857 2.73295 70.0145 3.53427 69.9836C4.58691 69.9422 5.63561 69.929 6.68562 69.8837C6.89285 69.8745 6.89746 69.9566 6.89549 70.1071C6.88036 71.027 6.77312 71.937 6.72772 72.8536C6.67706 73.8793 6.62443 74.905 6.59614 75.9319C6.50864 79.2494 6.53956 82.5683 6.57246 85.8838C6.59483 88.1697 6.68364 90.455 6.76522 92.7396C6.80272 93.808 6.86325 94.8763 6.8968 95.9454C6.90601 96.2378 6.81851 96.2838 6.5593 96.268C4.96126 96.1707 3.3619 96.1826 1.76189 96.1983C1.25925 96.2029 0.759908 96.2916 0.25464 96.268C0.12306 96.2614 0.0237174 96.268 0.0434544 96.082C0.182271 94.7771 0.209903 93.4656 0.263851 92.1548C0.32372 90.6909 0.357273 89.2263 0.382931 87.761C0.415168 85.8555 0.4553 83.9501 0.4178 82.0446C0.382273 80.2508 0.357273 78.4564 0.290167 76.6633C0.246088 75.4937 0.224377 74.3228 0.158587 73.1552C0.105297 72.1834 0.0927969 71.2103 0.0368754 70.2392C0.0204279 69.9763 0.0493755 69.8298 0.380299 69.8922C0.626354 69.9415 0.885567 69.9047 1.13754 69.9047Z" fill="white"/>
<path d="M51.6853 14.3101C51.7172 14.3275 51.7462 14.3497 51.7715 14.3758C51.8274 14.4678 51.7346 14.5072 51.6932 14.5663C51.0662 15.408 50.4313 16.2438 49.8116 17.0914C49.1471 18.0008 48.4886 18.9187 47.9609 19.9168C46.9879 21.7526 46.7925 23.689 47.3228 25.6989C47.6833 27.0649 48.3853 28.2779 49.0333 29.5151C50.2129 31.7675 51.4261 34.0035 52.2491 36.4221C52.7182 37.802 53.061 39.2074 53.3675 40.6273C53.6248 41.8225 53.8689 43.019 53.9952 44.2412C54.1564 45.7918 54.1208 47.3399 54.0024 48.8899C53.959 49.4464 53.8846 49.9977 53.7925 50.5476C53.7754 50.6508 53.8018 50.7921 53.6439 50.7927C53.4971 50.7927 53.5346 50.6613 53.5189 50.57C53.2083 48.6757 52.8958 46.7807 52.3794 44.9278C51.732 42.6011 50.8524 40.3586 49.8899 38.1469C48.5234 35.0075 46.7372 32.1164 44.7635 29.3252C44.0129 28.2654 43.1905 27.2509 42.5964 26.0872C42.2628 25.4341 41.9872 24.76 41.9464 24.0109C41.8806 22.8446 42.3411 21.9024 43.1878 21.1369C44.3332 20.1047 45.5563 19.1657 46.7727 18.2169C48.3517 16.983 49.9432 15.7707 51.4504 14.452C51.5123 14.3935 51.5675 14.3179 51.6853 14.3101Z" fill="white" stroke="white" stroke-miterlimit="10"/>
<path d="M26.2187 56.2094C26.7279 56.762 27.2621 57.1411 27.922 57.3264C28.2573 57.4264 28.6092 57.4587 28.9571 57.4212C29.3051 57.3837 29.642 57.2774 29.9483 57.1083C30.1601 56.9952 30.3726 56.8803 30.572 56.7469C31.843 55.8966 33.2161 55.7613 34.6437 56.2252C36.2266 56.741 37.7023 56.5984 39.0681 55.6233C39.8339 55.0773 40.2773 54.2796 40.653 53.4504C41.1622 52.3222 41.4458 51.1055 41.4879 49.8688C41.6352 45.9461 39.9931 42.9164 36.8214 40.666C35.6148 39.8118 34.2503 39.3223 32.8082 39.064C31.9799 38.9128 31.1251 39.0834 30.4187 39.5411C29.9569 39.8251 29.6152 40.2683 29.4584 40.7868C29.3015 41.3054 29.3403 41.8633 29.5674 42.3553C30.4286 44.3074 31.9444 45.4605 34.0411 45.772C35.0161 45.9159 35.8707 45.4553 36.6161 44.8324C36.7326 44.7345 36.8319 44.6156 36.9451 44.5104C36.9984 44.4605 37.0477 44.3908 37.1424 44.4487C37.2641 44.5236 37.1813 44.6044 37.1424 44.6701C36.7477 45.3679 36.2214 45.9428 35.4977 46.3127C34.8648 46.6413 34.174 46.7385 33.4753 46.795C31.6009 46.9468 30.0167 47.6492 28.8917 49.2137C28.583 49.6515 28.3361 50.1297 28.1581 50.6349C28.1009 50.7919 28.0924 50.8767 28.3029 50.8596C28.7851 50.8241 29.2685 50.9109 29.7082 51.1119C30.2424 51.3491 30.6516 51.0889 31.0332 50.7473C31.1187 50.6704 31.1575 50.4706 31.3305 50.6027C31.4845 50.7203 31.5049 51.1139 31.3786 51.221C30.9838 51.5574 30.8792 51.9845 31.1187 52.3846C31.2444 52.5929 31.4477 52.7342 31.645 52.8702C32.1931 53.2441 32.5253 54.1081 32.3687 54.7494C32.3496 54.8237 32.3602 54.9111 32.2542 54.917C32.1483 54.9229 32.1286 54.8453 32.1102 54.7691C32.0917 54.6929 32.0812 54.6187 32.0648 54.5438C31.9174 53.8867 31.6207 53.6364 30.9523 53.639C30.8929 53.6434 30.8336 53.6296 30.7823 53.5996C30.7309 53.5695 30.6899 53.5246 30.6647 53.4708C29.722 51.9457 27.7535 51.7992 26.3884 52.9313C26.2781 53.0369 26.1763 53.1509 26.0838 53.2723C26.0239 53.338 26.0016 53.478 25.8667 53.4156C25.6937 53.3361 25.8344 53.2112 25.8667 53.1403C26.2391 52.2322 26.693 51.3662 27.1641 50.5028C27.72 49.4896 28.3035 48.4916 28.6904 47.3936C28.9536 46.6524 28.9332 45.9198 28.7601 45.1708C28.5417 44.2253 28.268 43.2935 28.0608 42.3454C27.6792 40.5943 28.8174 38.9431 30.1792 38.2611C31.824 37.4385 33.4964 37.5088 35.1707 38.0831C38.197 39.1206 40.4885 41.0589 42.1642 43.7725C43.2367 45.5068 43.8899 47.4667 44.0721 49.4969C44.4359 53.296 43.3649 56.6588 40.9306 59.5893C40.1385 60.546 39.0484 61.0533 37.9017 61.4495C36.0437 62.0901 34.224 61.893 32.4227 61.2359C32.3286 61.2018 32.1661 61.1827 32.2036 61.0427C32.2411 60.9028 32.3898 60.977 32.4852 60.9968C33.5089 61.1834 34.3444 60.7799 35.1095 60.1629C35.2345 60.0618 35.3826 59.9303 35.2937 59.7483C35.2049 59.5663 35.0181 59.6307 34.8549 59.6524C34.1516 59.7457 33.4477 59.8384 32.7424 59.9152C32.4596 59.9553 32.1717 59.9422 31.8937 59.8765C31.6963 59.8246 31.5463 59.7286 31.5095 59.5236C31.4727 59.3186 31.5977 59.1951 31.7417 59.0834C31.8457 59.0052 31.9674 58.952 32.074 58.8738C32.1806 58.7956 32.3858 58.7654 32.3187 58.5821C32.2595 58.4204 32.0779 58.4677 31.9384 58.4697C31.4507 58.4666 30.9734 58.6104 30.5687 58.8823C28.8871 60.0296 26.6272 58.86 26.2621 57.0925C26.2078 56.8014 26.1932 56.5044 26.2187 56.2094Z" fill="white" stroke="white" stroke-miterlimit="10"/>
</g>
<defs>
<clipPath id="clip0_21_1347582">
<rect width="78" height="97" fill="white"/>
</clipPath>
</defs>
</svg>
