<svg width="24" height="21" viewBox="0 0 24 21" fill="none" xmlns="http://www.w3.org/2000/svg">
<path d="M23.0769 1.84615H10.1538C10.1538 0.828 9.32585 0 8.30769 0H6.46154C5.44338 0 4.61538 0.828 4.61538 1.84615H0.923077C0.413538 1.84615 0 2.25877 0 2.76923C0 3.27969 0.413538 3.69231 0.923077 3.69231H4.61538C4.61538 4.71046 5.44338 5.53846 6.46154 5.53846H8.30769C9.32585 5.53846 10.1538 4.71046 10.1538 3.69231H23.0769C23.5865 3.69231 24 3.27969 24 2.76923C24 2.25877 23.5865 1.84615 23.0769 1.84615ZM6.46154 3.69231V1.84615H8.30769L8.30862 2.76554L8.30769 2.76923L8.30862 2.77292V3.69231H6.46154Z" fill="#007CD4"/>
<path d="M23.0769 9.23077H17.5385C17.5385 8.21262 16.7105 7.38462 15.6923 7.38462H13.8462C12.828 7.38462 12 8.21262 12 9.23077H0.923077C0.413538 9.23077 0 9.64338 0 10.1538C0 10.6643 0.413538 11.0769 0.923077 11.0769H12C12 12.0951 12.828 12.9231 13.8462 12.9231H15.6923C16.7105 12.9231 17.5385 12.0951 17.5385 11.0769H23.0769C23.5865 11.0769 24 10.6643 24 10.1538C24 9.64338 23.5865 9.23077 23.0769 9.23077ZM13.8462 11.0769V9.23077H15.6923L15.6932 10.1502L15.6923 10.1538L15.6932 10.1575V11.0769H13.8462Z" fill="#007CD4"/>
<path d="M23.0769 16.6154H10.1538C10.1538 15.5972 9.32585 14.7692 8.30769 14.7692H6.46154C5.44338 14.7692 4.61538 15.5972 4.61538 16.6154H0.923077C0.413538 16.6154 0 17.028 0 17.5385C0 18.0489 0.413538 18.4615 0.923077 18.4615H4.61538C4.61538 19.4797 5.44338 20.3077 6.46154 20.3077H8.30769C9.32585 20.3077 10.1538 19.4797 10.1538 18.4615H23.0769C23.5865 18.4615 24 18.0489 24 17.5385C24 17.028 23.5865 16.6154 23.0769 16.6154ZM6.46154 18.4615V16.6154H8.30769L8.30862 17.5348L8.30769 17.5385L8.30862 17.5422V18.4615H6.46154Z" fill="#007CD4"/>
</svg>
