<svg width="240" height="42" viewBox="0 0 240 42" fill="none" xmlns="http://www.w3.org/2000/svg">
<path d="M39.5771 37.0588C39.5771 39.7878 37.3622 42 34.63 42C31.8978 42 29.6828 39.7878 29.6828 37.0588C29.6828 34.3299 31.8978 32.1176 34.63 32.1176C37.3622 32.1176 39.5771 34.3299 39.5771 37.0588Z" fill="#007CD4"/>
<path d="M39.5771 19.7647C39.5771 30.6805 30.7175 39.5294 19.7886 39.5294C8.85964 39.5294 0 30.6805 0 19.7647C0 8.84896 8.85964 0 19.7886 0C30.7175 0 39.5771 8.84896 39.5771 19.7647Z" fill="#FF6213"/>
<path d="M39.5771 20.0118C39.5771 26.6977 34.1506 32.1176 27.4566 32.1176C20.7627 32.1176 15.3361 26.6977 15.3361 20.0118C15.3361 13.3259 20.7627 7.90588 27.4566 7.90588C34.1506 7.90588 39.5771 13.3259 39.5771 20.0118Z" fill="white"/>
<path d="M227.829 5.8592C228.376 5.8592 228.819 6.30165 228.819 6.84744V30.829C228.819 31.3748 228.376 31.8173 227.829 31.8173H225.344C224.798 31.8173 224.355 31.3748 224.355 30.829V6.84744C224.355 6.30165 224.798 5.8592 225.344 5.8592H227.829ZM238.077 13.5436C238.932 13.5436 239.384 14.5519 238.816 15.189L232.319 22.4778L228.007 26.852L226.587 23.3898L229.918 19.2013L234.594 13.88C234.781 13.6662 235.052 13.5436 235.337 13.5436H238.077ZM236.248 31.8173C235.917 31.8173 235.608 31.6517 235.424 31.3761L230.053 23.3053L233.029 20.4173L239.824 30.2684C240.276 30.924 239.806 31.8173 239.009 31.8173H236.248Z" fill="#FF6213"/>
<path d="M216.34 17.276V30.829C216.34 31.3748 215.897 31.8173 215.35 31.8173H212.865C212.319 31.8173 211.876 31.3748 211.876 30.829V14.5318C211.876 13.986 212.319 13.5436 212.865 13.5436H215.174C215.697 13.5436 216.129 13.9489 216.162 14.4694L216.34 17.276ZM221.903 13.4254L221.835 17.58C221.587 17.535 221.305 17.5012 220.99 17.4787C220.685 17.4562 220.398 17.4449 220.127 17.4449C219.44 17.4449 218.837 17.5406 218.318 17.732C217.8 17.9122 217.366 18.1768 217.016 18.5258C216.678 18.8748 216.419 19.3027 216.238 19.8093C216.058 20.3047 215.957 20.8677 215.934 21.4982L214.97 21.38C214.97 20.2203 215.089 19.145 215.325 18.1542C215.562 17.1634 215.906 16.2965 216.357 15.5534C216.808 14.8103 217.371 14.236 218.048 13.8307C218.735 13.4141 219.524 13.2058 220.415 13.2058C220.663 13.2058 220.928 13.2283 221.21 13.2734C221.503 13.3072 221.734 13.3578 221.903 13.4254Z" fill="#FF6213"/>
<path d="M203.354 27.9328V19.5053C203.354 18.8861 203.246 18.3513 203.032 17.9009C202.818 17.4505 202.491 17.1015 202.052 16.8538C201.612 16.6061 201.054 16.4823 200.378 16.4823C199.78 16.4823 199.256 16.5836 198.805 16.7862C198.365 16.9889 198.027 17.276 197.79 17.6476C197.73 17.7401 197.677 17.8364 197.631 17.9363C197.407 18.4338 196.992 18.8973 196.446 18.8973H193.944C193.397 18.8973 192.942 18.4496 193.061 17.9168C193.15 17.5165 193.295 17.1284 193.496 16.7525C193.856 16.0657 194.369 15.4577 195.034 14.9285C195.711 14.388 196.517 13.9658 197.452 13.6618C198.399 13.3578 199.459 13.2058 200.631 13.2058C202.018 13.2058 203.252 13.4423 204.334 13.9152C205.428 14.3768 206.285 15.0749 206.905 16.0094C207.536 16.9439 207.851 18.1205 207.851 19.5391V27.5106C207.851 28.4226 207.908 29.2051 208.021 29.8582C208.145 30.4999 208.325 31.0573 208.562 31.5302V31.8173H204.013C203.799 31.3556 203.635 30.7702 203.523 30.0608C203.41 29.3402 203.354 28.6309 203.354 27.9328ZM203.979 20.6876L204.013 23.3391H201.189C200.49 23.3391 199.876 23.4123 199.346 23.5587C198.816 23.6938 198.382 23.8964 198.044 24.1666C197.706 24.4256 197.452 24.7409 197.283 25.1124C197.114 25.4727 197.03 25.8837 197.03 26.3453C197.03 26.7957 197.131 27.201 197.334 27.5613C197.548 27.9216 197.852 28.2087 198.247 28.4226C198.653 28.6253 199.126 28.7266 199.667 28.7266C200.456 28.7266 201.144 28.569 201.73 28.2537C202.316 27.9272 202.773 27.5331 203.1 27.0715C203.427 26.6099 203.602 26.1708 203.624 25.7542L204.909 27.6795C204.751 28.1411 204.515 28.6309 204.199 29.1488C203.883 29.6668 203.478 30.1509 202.982 30.6013C202.486 31.0516 201.888 31.4232 201.189 31.7159C200.49 32.0087 199.679 32.155 198.754 32.155C197.571 32.155 196.511 31.9186 195.575 31.4457C194.64 30.9728 193.901 30.3254 193.36 29.5035C192.819 28.6816 192.549 27.7471 192.549 26.7C192.549 25.7317 192.729 24.876 193.09 24.1329C193.45 23.3898 193.986 22.7649 194.696 22.2582C195.406 21.7403 196.286 21.3518 197.334 21.0929C198.394 20.8227 199.605 20.6876 200.969 20.6876H203.979Z" fill="#FF6213"/>
<path d="M184.821 27.4769V14.5318C184.821 13.986 185.264 13.5436 185.811 13.5436H188.33C188.876 13.5436 189.319 13.986 189.319 14.5318V31.8173H185.092L184.821 27.4769ZM185.396 23.6938L186.783 23.66C186.783 24.8872 186.647 26.0188 186.377 27.0546C186.106 28.0905 185.684 28.9912 185.109 29.7568C184.545 30.5112 183.829 31.1023 182.961 31.5302C182.093 31.9467 181.067 32.155 179.884 32.155C178.982 32.155 178.159 32.0312 177.415 31.7835C176.671 31.5245 176.028 31.1248 175.487 30.5844C174.957 30.0327 174.546 29.329 174.253 28.4733C173.96 27.6063 173.813 26.5649 173.813 25.3489V14.5318C173.813 13.986 174.256 13.5436 174.803 13.5436H177.288C177.834 13.5436 178.277 13.986 178.277 14.5318V25.3826C178.277 25.9906 178.345 26.4973 178.48 26.9026C178.627 27.308 178.824 27.6401 179.072 27.8991C179.331 28.1468 179.63 28.3269 179.968 28.4395C180.318 28.5408 180.69 28.5915 181.084 28.5915C182.166 28.5915 183.017 28.3776 183.637 27.9497C184.269 27.5106 184.72 26.9251 184.99 26.1933C185.261 25.4502 185.396 24.617 185.396 23.6938Z" fill="#FF6213"/>
<path d="M163.6 28.3551L169.228 32.8173C169.713 33.2018 169.729 33.9315 169.262 34.3372L167.808 35.5997C167.447 35.913 166.914 35.9237 166.54 35.6251L160.726 30.9728L163.6 28.3551ZM170.279 18.8973V20.164C170.279 22.0218 170.031 23.6938 169.535 25.18C169.039 26.6549 168.329 27.9103 167.405 28.9462C166.492 29.982 165.404 30.7758 164.141 31.3275C162.879 31.8792 161.481 32.155 159.948 32.155C158.426 32.155 157.028 31.8792 155.754 31.3275C154.492 30.7758 153.398 29.982 152.474 28.9462C151.55 27.9103 150.834 26.6549 150.326 25.18C149.819 23.6938 149.566 22.0218 149.566 20.164V18.8973C149.566 17.0283 149.814 15.3563 150.31 13.8814C150.817 12.4064 151.527 11.151 152.44 10.1152C153.364 9.06807 154.458 8.26867 155.72 7.71697C156.994 7.16527 158.392 6.88942 159.914 6.88942C161.447 6.88942 162.845 7.16527 164.107 7.71697C165.381 8.26867 166.475 9.06807 167.388 10.1152C168.312 11.151 169.022 12.4064 169.518 13.8814C170.026 15.3563 170.279 17.0283 170.279 18.8973ZM165.578 20.164V18.8636C165.578 17.5237 165.454 16.3471 165.206 15.3338C164.958 14.3092 164.586 13.4479 164.09 12.7498C163.606 12.0518 163.014 11.5282 162.315 11.1792C161.616 10.8189 160.816 10.6387 159.914 10.6387C159.023 10.6387 158.229 10.8189 157.53 11.1792C156.831 11.5282 156.239 12.0518 155.754 12.7498C155.27 13.4479 154.898 14.3092 154.638 15.3338C154.39 16.3471 154.266 17.5237 154.266 18.8636V20.164C154.266 21.4926 154.39 22.6692 154.638 23.6938C154.898 24.7183 155.27 25.5853 155.754 26.2946C156.25 26.9927 156.848 27.5219 157.547 27.8822C158.257 28.2425 159.057 28.4226 159.948 28.4226C160.85 28.4226 161.65 28.2425 162.349 27.8822C163.048 27.5219 163.634 26.9927 164.107 26.2946C164.592 25.5853 164.958 24.7183 165.206 23.6938C165.454 22.6692 165.578 21.4926 165.578 20.164Z" fill="#FF6213"/>
<path d="M144.805 5.87609C145.352 5.87609 145.795 6.31854 145.795 6.86433V30.829C145.795 31.3748 145.352 31.8173 144.805 31.8173H142.303C141.757 31.8173 141.314 31.3748 141.314 30.829V6.86433C141.314 6.31854 141.757 5.87609 142.303 5.87609H144.805Z" fill="#022385"/>
<path d="M132.538 27.9328V19.5053C132.538 18.8861 132.431 18.3513 132.217 17.9009C132.003 17.4505 131.676 17.1015 131.236 16.8538C130.796 16.6061 130.238 16.4823 129.562 16.4823C128.964 16.4823 128.44 16.5836 127.989 16.7862C127.55 16.9889 127.212 17.276 126.975 17.6476C126.914 17.7401 126.861 17.8364 126.816 17.9363C126.591 18.4338 126.177 18.8973 125.63 18.8973H123.128C122.582 18.8973 122.127 18.4496 122.245 17.9168C122.334 17.5165 122.479 17.1284 122.68 16.7525C123.041 16.0657 123.554 15.4577 124.219 14.9285C124.895 14.388 125.701 13.9658 126.637 13.6618C127.584 13.3578 128.643 13.2058 129.816 13.2058C131.202 13.2058 132.437 13.4423 133.519 13.9152C134.612 14.3768 135.469 15.0749 136.089 16.0094C136.72 16.9439 137.036 18.1205 137.036 19.5391V27.5106C137.036 28.4226 137.092 29.2051 137.205 29.8582C137.329 30.4999 137.509 31.0573 137.746 31.5302V31.8173H133.197C132.983 31.3556 132.82 30.7702 132.707 30.0608C132.594 29.3402 132.538 28.6309 132.538 27.9328ZM133.164 20.6876L133.197 23.3391H130.374C129.675 23.3391 129.06 23.4123 128.53 23.5587C128.001 23.6938 127.567 23.8964 127.228 24.1666C126.89 24.4256 126.637 24.7409 126.468 25.1124C126.298 25.4727 126.214 25.8837 126.214 26.3453C126.214 26.7957 126.315 27.201 126.518 27.5613C126.732 27.9216 127.037 28.2087 127.431 28.4226C127.837 28.6253 128.311 28.7266 128.852 28.7266C129.641 28.7266 130.329 28.569 130.915 28.2537C131.501 27.9272 131.957 27.5331 132.284 27.0715C132.611 26.6099 132.786 26.1708 132.809 25.7542L134.094 27.6795C133.936 28.1411 133.699 28.6309 133.383 29.1488C133.068 29.6668 132.662 30.1509 132.166 30.6013C131.67 31.0516 131.073 31.4232 130.374 31.7159C129.675 32.0087 128.863 32.155 127.939 32.155C126.755 32.155 125.695 31.9186 124.76 31.4457C123.824 30.9728 123.086 30.3254 122.545 29.5035C122.004 28.6816 121.733 27.7471 121.733 26.7C121.733 25.7317 121.913 24.876 122.274 24.1329C122.635 23.3898 123.17 22.7649 123.88 22.2582C124.591 21.7403 125.47 21.3518 126.518 21.0929C127.578 20.8227 128.79 20.6876 130.154 20.6876H133.164Z" fill="#022385"/>
<path d="M102.964 6.86433C102.964 6.31854 103.407 5.87609 103.953 5.87609H106.455C107.002 5.87609 107.445 6.31854 107.445 6.86433V27.7808L107.101 30.9359C107.046 31.4374 106.623 31.8173 106.117 31.8173H103.953C103.407 31.8173 102.964 31.3748 102.964 30.829V6.86433ZM119.214 22.4947V22.8493C119.214 24.2117 119.061 25.4615 118.757 26.5986C118.464 27.7358 118.019 28.721 117.421 29.5542C116.824 30.3761 116.08 31.0179 115.189 31.4795C114.31 31.9299 113.278 32.155 112.095 32.155C110.967 32.155 109.987 31.9355 109.153 31.4964C108.33 31.0573 107.636 30.438 107.073 29.6386C106.509 28.828 106.058 27.8766 105.72 26.7844C105.382 25.681 105.128 24.4763 104.959 23.1702V22.2075C105.128 20.8902 105.382 19.6855 105.72 18.5933C106.058 17.5012 106.509 16.5498 107.073 15.7391C107.636 14.9285 108.33 14.3036 109.153 13.8645C109.975 13.4254 110.945 13.2058 112.061 13.2058C113.256 13.2058 114.299 13.4366 115.189 13.8983C116.091 14.3486 116.835 14.9904 117.421 15.8236C118.019 16.6455 118.464 17.6251 118.757 18.7622C119.061 19.8882 119.214 21.1323 119.214 22.4947ZM114.733 22.8493V22.4947C114.733 21.7178 114.671 20.9859 114.547 20.2991C114.423 19.601 114.22 18.9874 113.938 18.4582C113.656 17.9291 113.273 17.5125 112.788 17.2085C112.303 16.9045 111.695 16.7525 110.962 16.7525C110.263 16.7525 109.665 16.8707 109.169 17.1071C108.685 17.3436 108.279 17.6701 107.952 18.0867C107.636 18.5033 107.388 18.993 107.208 19.556C107.039 20.119 106.926 20.727 106.87 21.38V24.0146C106.949 24.8816 107.135 25.6641 107.428 26.3622C107.721 27.049 108.155 27.5951 108.73 28.0004C109.316 28.4057 110.071 28.6084 110.996 28.6084C111.717 28.6084 112.32 28.4677 112.805 28.1862C113.29 27.8934 113.673 27.4881 113.955 26.9702C114.237 26.441 114.434 25.8274 114.547 25.1293C114.671 24.4312 114.733 23.6712 114.733 22.8493Z" fill="#022385"/>
<path d="M82.5714 22.8662V22.5115C82.5714 21.1717 82.763 19.9388 83.1463 18.8129C83.5295 17.6757 84.0875 16.6905 84.8203 15.8574C85.553 15.0242 86.4492 14.3768 87.5088 13.9152C88.5685 13.4423 89.7747 13.2058 91.1274 13.2058C92.5027 13.2058 93.7201 13.4423 94.7798 13.9152C95.8507 14.3768 96.7525 15.0242 97.4853 15.8574C98.218 16.6905 98.776 17.6757 99.1593 18.8129C99.5425 19.9388 99.7342 21.1717 99.7342 22.5115V22.8662C99.7342 24.1948 99.5425 25.4277 99.1593 26.5649C98.776 27.6908 98.218 28.676 97.4853 29.5204C96.7525 30.3536 95.8563 31.001 94.7967 31.4626C93.7371 31.9242 92.5252 32.155 91.1612 32.155C89.8085 32.155 88.5967 31.9242 87.5257 31.4626C86.4548 31.001 85.553 30.3536 84.8203 29.5204C84.0875 28.676 83.5295 27.6908 83.1463 26.5649C82.763 25.4277 82.5714 24.1948 82.5714 22.8662ZM87.0354 22.5115V22.8662C87.0354 23.6656 87.1143 24.4144 87.2721 25.1124C87.4299 25.8105 87.6723 26.4241 87.9992 26.9533C88.3261 27.4825 88.7488 27.8991 89.2674 28.2031C89.7972 28.4958 90.4285 28.6422 91.1612 28.6422C91.8827 28.6422 92.5027 28.4958 93.0212 28.2031C93.5398 27.8991 93.9625 27.4825 94.2894 26.9533C94.6276 26.4241 94.8756 25.8105 95.0334 25.1124C95.1912 24.4144 95.2701 23.6656 95.2701 22.8662V22.5115C95.2701 21.7234 95.1912 20.9859 95.0334 20.2991C94.8756 19.601 94.6276 18.9874 94.2894 18.4582C93.9625 17.9178 93.5341 17.4956 93.0043 17.1916C92.4858 16.8763 91.8601 16.7187 91.1274 16.7187C90.4059 16.7187 89.7859 16.8763 89.2674 17.1916C88.7488 17.4956 88.3261 17.9178 87.9992 18.4582C87.6723 18.9874 87.4299 19.601 87.2721 20.2991C87.1143 20.9859 87.0354 21.7234 87.0354 22.5115Z" fill="#022385"/>
<path d="M78.1156 5.87609C78.662 5.87609 79.105 6.31854 79.105 6.86433V30.829C79.105 31.3748 78.662 31.8173 78.1156 31.8173H75.6135C75.067 31.8173 74.624 31.3748 74.624 30.829V6.86433C74.624 6.31854 75.067 5.87609 75.6135 5.87609H78.1156Z" fill="#022385"/>
<path d="M70.3122 19.1V28.336C70.3122 28.5563 70.241 28.7726 70.0918 28.9349C69.7348 29.3234 69.239 29.7381 68.6044 30.1791C67.8378 30.7195 66.8346 31.1868 65.5946 31.5808C64.3545 31.9636 62.8327 32.155 61.0291 32.155C59.4622 32.155 58.0305 31.8961 56.7341 31.3782C55.4378 30.849 54.3218 30.0777 53.3861 29.0644C52.4505 28.0511 51.729 26.8126 51.2218 25.3489C50.7145 23.8852 50.4608 22.2132 50.4608 20.3329V18.7116C50.4608 16.8313 50.6976 15.1593 51.171 13.6956C51.6558 12.2319 52.3434 10.9934 53.2339 9.98007C54.1358 8.96674 55.2123 8.19549 56.4636 7.6663C57.7261 7.13712 59.1352 6.87253 60.6909 6.87253C62.7764 6.87253 64.4898 7.21594 65.8313 7.90275C67.184 8.58956 68.2211 9.53533 68.9426 10.7401C69.4897 11.6452 69.8812 12.6539 70.1172 13.7662C70.2398 14.3442 69.7761 14.8609 69.1845 14.8609H66.6202C66.1285 14.8609 65.72 14.4975 65.5936 14.0229C65.4561 13.5071 65.2648 13.0377 65.0196 12.6147C64.6476 11.9617 64.1178 11.455 63.4302 11.0947C62.7538 10.7232 61.8745 10.5374 60.7923 10.5374C59.8792 10.5374 59.0732 10.7175 58.3743 11.0778C57.6754 11.4381 57.0892 11.9617 56.6158 12.6485C56.1423 13.3353 55.7816 14.1854 55.5336 15.1987C55.2969 16.212 55.1785 17.3717 55.1785 18.6778V20.3329C55.1785 21.6502 55.3138 22.8212 55.5843 23.8458C55.8549 24.8591 56.2438 25.7148 56.7511 26.4129C57.2696 27.0997 57.9065 27.6232 58.6618 27.9835C59.4283 28.3325 60.2963 28.5071 61.2658 28.5071C62.1451 28.5071 62.8722 28.4339 63.4471 28.2875C64.0333 28.1299 64.5011 27.9441 64.8505 27.7302C65.2 27.5163 65.4706 27.308 65.6622 27.1053V22.4947H61.7649C61.2184 22.4947 60.7754 22.0522 60.7754 21.5064V20.0882C60.7754 19.5425 61.2184 19.1 61.7649 19.1H70.3122Z" fill="#022385"/>
</svg>
