<svg width="17" height="17" viewBox="0 0 17 17" fill="none" xmlns="http://www.w3.org/2000/svg">
<path d="M15.0074 0H1.49256C0.66825 0 0 0.66825 0 1.49256V15.0074C0 15.8317 0.66825 16.5 1.49256 16.5H15.0074C15.8317 16.5 16.5 15.8317 16.5 15.0074V1.49256C16.5 0.66825 15.8318 0 15.0074 0ZM5.1058 14.2472C5.1058 14.4871 4.91134 14.6815 4.67144 14.6815H2.82249C2.5826 14.6815 2.38814 14.4871 2.38814 14.2472V6.49646C2.38814 6.25657 2.5826 6.06211 2.82249 6.06211H4.67144C4.91134 6.06211 5.1058 6.25657 5.1058 6.49646V14.2472ZM3.74697 5.33149C2.77688 5.33149 1.99045 4.54506 1.99045 3.57497C1.99045 2.60488 2.77688 1.81846 3.74697 1.81846C4.71706 1.81846 5.50348 2.60488 5.50348 3.57497C5.50348 4.54506 4.7171 5.33149 3.74697 5.33149ZM14.7684 14.2822C14.7684 14.5027 14.5895 14.6815 14.369 14.6815H12.3849C12.1644 14.6815 11.9856 14.5027 11.9856 14.2822V10.6466C11.9856 10.1043 12.1446 8.27008 10.5682 8.27008C9.34548 8.27008 9.09746 9.52555 9.04766 10.089V14.2822C9.04766 14.5027 8.86888 14.6815 8.64829 14.6815H6.72936C6.50882 14.6815 6.33 14.5027 6.33 14.2822V6.46148C6.33 6.24093 6.50882 6.06211 6.72936 6.06211H8.64829C8.86884 6.06211 9.04766 6.24093 9.04766 6.46148V7.13768C9.50106 6.45724 10.1749 5.93205 11.6096 5.93205C14.7865 5.93205 14.7684 8.90015 14.7684 10.531V14.2822Z" fill="white"/>
</svg>
