<svg width="18" height="18" viewBox="0 0 18 18" fill="none" xmlns="http://www.w3.org/2000/svg">
<path d="M8.71623 1.57058C11.0435 1.57058 11.3191 1.5793 12.2384 1.62122C12.7912 1.62798 13.3387 1.72948 13.8571 1.92131C14.2331 2.0663 14.5746 2.28842 14.8595 2.57336C15.1444 2.8583 15.3666 3.19975 15.5116 3.57573C15.7034 4.09418 15.8049 4.64169 15.8116 5.19446C15.8532 6.11381 15.8623 6.38941 15.8623 8.71664C15.8623 11.0439 15.8536 11.3195 15.8116 12.2388C15.8049 12.7916 15.7034 13.3391 15.5116 13.8576C15.3666 14.2335 15.1444 14.575 14.8595 14.8599C14.5746 15.1449 14.2331 15.367 13.8571 15.512C13.3387 15.7038 12.7912 15.8053 12.2384 15.8121C11.3195 15.8536 11.0439 15.8627 8.71623 15.8627C6.38858 15.8627 6.11298 15.854 5.19404 15.8121C4.64128 15.8053 4.09377 15.7038 3.57531 15.512C3.19934 15.367 2.85789 15.1449 2.57295 14.8599C2.28801 14.575 2.06589 14.2335 1.92089 13.8576C1.72907 13.3391 1.62757 12.7916 1.6208 12.2388C1.5793 11.3195 1.57017 11.0439 1.57017 8.71664C1.57017 6.38941 1.57888 6.11381 1.6208 5.19446C1.62757 4.64169 1.72907 4.09418 1.92089 3.57573C2.06589 3.19975 2.28801 2.8583 2.57295 2.57336C2.85789 2.28842 3.19934 2.0663 3.57531 1.92131C4.09377 1.72948 4.64128 1.62798 5.19404 1.62122C6.11339 1.57971 6.38899 1.57058 8.71623 1.57058ZM8.71623 0C6.35039 0 6.05238 0.00996137 5.12265 0.0522973C4.39922 0.0666865 3.68348 0.203661 3.00585 0.457394C2.42456 0.676406 1.89806 1.01962 1.46308 1.46308C1.01922 1.89822 0.675712 2.42502 0.456564 3.00668C0.202831 3.68431 0.0658565 4.40005 0.0514673 5.12348C0.00996143 6.05238 0 6.35039 0 8.71622C0 11.0821 0.00996137 11.3801 0.0522973 12.3098C0.0666865 13.0332 0.203661 13.749 0.457394 14.4266C0.6763 15.0082 1.01952 15.535 1.46308 15.9702C1.8983 16.4138 2.4251 16.757 3.00668 16.9759C3.68431 17.2296 4.40005 17.3666 5.12348 17.381C6.05321 17.4225 6.34998 17.4333 8.71706 17.4333C11.0841 17.4333 11.3809 17.4233 12.3106 17.381C13.0341 17.3666 13.7498 17.2296 14.4274 16.9759C15.0063 16.7515 15.5319 16.4088 15.9707 15.9697C16.4095 15.5306 16.7519 15.0047 16.9759 14.4258C17.2296 13.7481 17.3666 13.0324 17.381 12.309C17.4225 11.3801 17.4325 11.0821 17.4325 8.71622C17.4325 6.35039 17.4225 6.05238 17.3802 5.12265C17.3658 4.39922 17.2288 3.68348 16.9751 3.00585C16.7562 2.42426 16.4129 1.89747 15.9694 1.46225C15.5342 1.01869 15.0074 0.675469 14.4258 0.456564C13.7481 0.202831 13.0324 0.0658565 12.309 0.0514673C11.3801 0.00996143 11.0821 0 8.71623 0Z" fill="white"/>
<path d="M8.71719 4.24316C7.83193 4.24316 6.96654 4.50568 6.23047 4.9975C5.49439 5.48933 4.9207 6.18839 4.58192 7.00627C4.24314 7.82415 4.1545 8.72412 4.32721 9.59238C4.49992 10.4606 4.92621 11.2582 5.55219 11.8842C6.17817 12.5101 6.97571 12.9364 7.84397 13.1091C8.71223 13.2818 9.6122 13.1932 10.4301 12.8544C11.248 12.5157 11.947 11.942 12.4388 11.2059C12.9307 10.4698 13.1932 9.60442 13.1932 8.71915C13.1932 7.53205 12.7216 6.39356 11.8822 5.55415C11.0428 4.71474 9.9043 4.24316 8.71719 4.24316ZM8.71719 11.6246C8.14256 11.6246 7.58083 11.4542 7.10303 11.1349C6.62524 10.8157 6.25285 10.3619 6.03295 9.83101C5.81304 9.30011 5.75551 8.71593 5.86761 8.15234C5.97972 7.58874 6.25643 7.07105 6.66276 6.66472C7.06909 6.25839 7.58678 5.98168 8.15038 5.86957C8.71397 5.75747 9.29815 5.815 9.82905 6.03491C10.3599 6.25481 10.8137 6.6272 11.133 7.10499C11.4522 7.58279 11.6226 8.14452 11.6226 8.71915C11.6226 9.48972 11.3165 10.2287 10.7716 10.7736C10.2268 11.3185 9.48776 11.6246 8.71719 11.6246Z" fill="white"/>
<path d="M13.3667 5.1085C13.9444 5.1085 14.4127 4.64021 14.4127 4.06255C14.4127 3.48489 13.9444 3.0166 13.3667 3.0166C12.7891 3.0166 12.3208 3.48489 12.3208 4.06255C12.3208 4.64021 12.7891 5.1085 13.3667 5.1085Z" fill="white"/>
</svg>
