<svg width="15" height="12" viewBox="0 0 15 12" fill="none" xmlns="http://www.w3.org/2000/svg">
<path d="M14.3773 1.34787C13.8381 1.58749 13.269 1.73726 12.67 1.82711C13.269 1.46768 13.7483 0.89858 13.9579 0.209669C13.3888 0.539148 12.7598 0.77877 12.0709 0.928533C11.5318 0.359432 10.753 0 9.91433 0C8.29689 0 6.97897 1.31792 6.97897 2.93536C6.97897 3.17498 7.00892 3.38465 7.06883 3.59432C4.64266 3.47451 2.45612 2.30636 0.988438 0.509196C0.748817 0.958486 0.599053 1.43773 0.599053 1.97688C0.599053 2.99527 1.10825 3.89385 1.91697 4.433C1.43773 4.40304 0.988438 4.28323 0.569101 4.07356V4.10352C0.569101 5.54124 1.58749 6.73935 2.93536 7.00893C2.69574 7.06883 2.42617 7.09878 2.15659 7.09878C1.97688 7.09878 1.76721 7.06883 1.58749 7.03888C1.97688 8.20703 3.05517 9.07566 4.34314 9.07566C3.32475 9.85443 2.06673 10.3337 0.688911 10.3337C0.44929 10.3337 0.209669 10.3337 0 10.3037C1.31792 11.1424 2.8455 11.6216 4.52285 11.6216C9.94429 11.6216 12.9096 7.12874 12.9096 3.23489C12.9096 3.11508 12.9096 2.96531 12.9096 2.8455C13.4787 2.45612 13.9879 1.94692 14.3773 1.34787Z" fill="white"/>
</svg>
