<svg width="152" height="89" viewBox="0 0 152 89" fill="none" xmlns="http://www.w3.org/2000/svg">
<path fill-rule="evenodd" clip-rule="evenodd" d="M42.241 4.5868L67.4981 16.6035L43.7585 27.7957C41.8037 28.7233 42.241 27.5981 42.241 33.2672L67.5838 45.0692L42.2581 57.0687L42.241 61.7586L77.8033 45.1379V45.0692L47.4621 30.8621L77.7176 16.6035L42.2753 0L42.241 4.5868Z" fill="#FAFBFD"/>
<path fill-rule="evenodd" clip-rule="evenodd" d="M1.92043 88.24C2.77777 86.6423 3.62653 84.641 4.42386 82.9059C4.90396 81.8494 6.43002 78.216 6.98729 77.5718L12.0627 88.24H14.026L18.9986 77.5289C19.2472 77.7264 19.2301 77.6233 19.5044 78.2332C20.336 80.0714 23.8254 87.7504 24.2026 88.24L26.0973 88.2228L19.1186 73.174L13.1001 86.0067C13.0229 85.938 12.9458 85.8607 12.8943 85.7748L9.98797 79.5818C9.45642 78.4479 9.00203 77.4945 8.47906 76.3521C8.04182 75.2784 7.53599 74.2391 6.96157 73.2427L0 88.2486H1.92043V88.24Z" fill="#FAFBFD"/>
<path fill-rule="evenodd" clip-rule="evenodd" d="M86.008 76.7473C86.188 76.189 86.4624 75.6736 86.8139 75.2098L88.2971 78.156C88.7686 79.1781 89.1801 80.0543 89.6774 81.1108C92.0694 86.1786 90.9462 83.4299 91.2377 88.2401H93.1239C93.2268 86.9173 92.8495 85.1049 93.3382 83.9968L97.4963 75.038C95.3444 75.038 95.6102 74.8662 95.2072 75.7853C95.0529 76.146 94.9329 76.3865 94.7785 76.7129L92.3008 82.1243C91.9751 81.8838 92.2837 82.1759 92.0351 81.8752L91.6921 81.231C90.8605 79.3413 89.4631 76.6614 88.8286 75.0294H76.02V76.7387L80.4696 76.7559L80.5039 88.2401L82.3986 88.1971L82.4329 76.7387H86.0166L86.008 76.7473Z" fill="#FAFBFD"/>
<path fill-rule="evenodd" clip-rule="evenodd" d="M44.6244 82.1157C47.3335 82.1157 50.8658 81.4286 51.0458 84.2545C51.2344 87.2265 47.7708 86.5136 44.6244 86.505V82.1157ZM44.6415 76.7559C47.3078 76.7559 50.137 76.1976 50.1799 78.5339C50.2142 80.939 47.7794 80.3635 44.6158 80.3635L44.6415 76.7559ZM50.9687 81.3083C51.2687 80.6298 51.5002 80.7929 51.8517 79.9082C52.0575 79.3413 52.1346 78.7315 52.0746 78.1216C51.8517 75.0551 48.7653 75.038 46.8363 75.038C45.4646 74.9693 44.0928 74.9864 42.7211 75.0895V88.2057C44.3243 88.3002 45.9189 88.3088 47.5136 88.24C49.1082 88.24 50.4114 88.3174 51.5088 87.5443C53.5492 86.1098 53.2577 82.2188 50.9687 81.2997V81.3083Z" fill="#FAFBFD"/>
<path fill-rule="evenodd" clip-rule="evenodd" d="M37.9629 82.7427C36.574 89.0818 27.4862 87.132 28.8322 80.4923C30.0925 74.2907 39.4118 76.1546 37.9629 82.7427ZM26.9632 82.8802C28.4636 91.504 41.2036 89.5972 39.849 80.4751C39.3775 76.919 36.1282 74.4195 32.5788 74.8833C32.4588 74.9005 32.3387 74.9177 32.2187 74.9435C28.5836 75.6736 26.2259 79.2124 26.9547 82.8544C26.9547 82.863 26.9547 82.8716 26.9547 82.8802H26.9632Z" fill="#FAFBFD"/>
<path fill-rule="evenodd" clip-rule="evenodd" d="M61.7882 88.2486C63.2457 88.2486 68.7498 88.0511 69.7272 88.3431L69.8129 86.5393L63.6487 86.5049V75.0465H61.7625L61.7968 88.24L61.7882 88.2486Z" fill="#FAFBFD"/>
<path fill-rule="evenodd" clip-rule="evenodd" d="M55.8555 88.24H57.7416V75.0465L55.8383 75.0637L55.8555 88.24Z" fill="#FAFBFD"/>
<path fill-rule="evenodd" clip-rule="evenodd" d="M71.982 88.24H73.7824V75.038L71.9648 75.0637L71.982 88.24Z" fill="#FAFBFD"/>
<path fill-rule="evenodd" clip-rule="evenodd" d="M149.357 74.8576C150.66 74.8576 151.714 75.9141 151.714 77.2197C151.714 78.5253 150.66 79.5818 149.357 79.5818C148.053 79.5818 146.999 78.5253 146.999 77.2197C146.999 75.9141 148.053 74.8576 149.357 74.8576ZM149.357 75.1926C150.471 75.1926 151.371 76.1031 151.371 77.2197C151.371 78.3364 150.463 79.2382 149.348 79.2382C148.233 79.2382 147.333 78.3278 147.333 77.2111C147.333 76.0945 148.233 75.1926 149.348 75.184L149.357 75.1926Z" fill="#FAFBFD"/>
<path fill-rule="evenodd" clip-rule="evenodd" d="M120.782 78.1645C122.745 78.1645 126.783 77.7608 126.731 81.6518C126.68 85.4828 122.831 85.1134 120.782 85.1134V78.1559V78.1645ZM117.541 88.2056C118.853 88.3602 120.919 88.24 122.316 88.24C123.679 88.3431 125.043 88.0854 126.269 87.5013C129.501 85.8521 130.778 81.8923 129.132 78.6541C128.489 77.3914 127.46 76.3779 126.191 75.7508C124.931 75.1839 123.551 74.9434 122.17 75.0551C120.619 74.9864 119.067 74.995 117.524 75.098V88.2142H117.532L117.541 88.2056Z" fill="#FAFBFD"/>
<path fill-rule="evenodd" clip-rule="evenodd" d="M137.877 78.1904C142.301 77.0737 144.075 83.9797 139.446 85.1221C135.056 86.2044 133.093 79.4015 137.877 78.1904ZM131.85 81.6519C131.841 85.4055 134.868 88.4548 138.614 88.4634C142.361 88.472 145.404 85.4399 145.413 81.6863C145.421 77.9327 142.395 74.8834 138.648 74.8748C138.623 74.8748 138.597 74.8748 138.571 74.8748C134.85 74.9006 131.85 77.9327 131.841 81.6519H131.85Z" fill="#FAFBFD"/>
<path fill-rule="evenodd" clip-rule="evenodd" d="M104.921 88.2401C105.564 87.175 106.318 85.3368 106.893 84.1515C107.201 83.5158 107.501 82.7685 107.861 81.9869C108.136 81.2826 108.479 80.6126 108.899 79.9856C108.976 80.0629 109.045 80.1487 109.105 80.2432C109.791 81.4801 110.365 82.7771 110.811 84.1171H106.996C107.304 84.83 107.784 85.7233 108.102 86.5222H112.037L112.877 88.2487H115.903L108.873 73.26L101.92 88.2487H104.921V88.2401Z" fill="#FAFBFD"/>
<path d="M148.165 75.8969H149.288C149.494 75.8969 149.708 75.9141 149.905 75.9656C150.034 76.0172 150.145 76.103 150.214 76.2233C150.291 76.3521 150.334 76.4982 150.334 76.6442C150.334 76.8246 150.282 77.0049 150.162 77.1424C150.025 77.2798 149.837 77.3743 149.639 77.3915C149.742 77.4516 149.845 77.5289 149.922 77.6148C150.034 77.7522 150.137 77.8897 150.231 78.0443L150.557 78.5596H149.914L149.528 77.9842C149.442 77.8467 149.348 77.7179 149.245 77.5976C149.202 77.5461 149.142 77.5117 149.082 77.486C148.997 77.4602 148.902 77.4516 148.808 77.4516H148.705V78.5596H148.165V75.8969ZM149.091 77.0135C149.254 77.0135 149.417 77.0135 149.571 76.9792C149.631 76.962 149.682 76.9191 149.717 76.8675C149.751 76.8074 149.777 76.7387 149.768 76.67C149.777 76.5068 149.657 76.3607 149.494 76.3436C149.451 76.3436 149.322 76.335 149.108 76.335H148.688V77.0135H149.091Z" fill="#FAFBFD"/>
<path fill-rule="evenodd" clip-rule="evenodd" d="M86.3681 34.8219L86.2995 26.9196L94.7014 30.8707C94.1613 31.4119 86.5653 34.7618 86.3681 34.8219ZM77.8033 45.1379L108.299 30.8793L77.9319 16.6723L77.889 22.9684L86.2909 26.9196C85.0221 27.7012 82.793 28.6117 81.3269 29.3074V37.2871L77.9147 38.7988L77.8804 45.095L77.8033 45.0606L77.8033 45.1379Z" fill="#FAFBFD"/>
</svg>
